{
.appVersion = "3112";
.formatVersion = 3;
axes = (
{
name = Weight;
tag = wght;
}
);
date = "2022-05-27 18:49:23 +0000";
familyName = "26F Galaxy Sans";
fontMaster = (
{
axesValues = (
50
);
iconName = Light;
id = m01;
metricValues = (
{
pos = 1900;
},
{
pos = 1400;
},
{
pos = 600;
},
{
},
{
pos = -400;
}
);
name = Hairline;
stemValues = (
50
);
},
{
axesValues = (
120
);
id = "19FA402B-9607-46D9-AAD6-815AECBA5B6B";
metricValues = (
{
pos = 1900;
},
{
pos = 1400;
},
{
pos = 1000;
},
{
},
{
pos = -400;
}
);
name = Regular;
stemValues = (
120
);
userData = {
GSOffsetAutoStroke = 1;
GSOffsetCapStyle = 1;
GSOffsetHorizontal = 60;
GSOffsetMakeStroke = 1;
GSOffsetProportional = 1;
GSOffsetVertical = 10;
};
},
{
axesValues = (
300
);
iconName = Bold;
id = "FF87E3F2-B049-41CB-BF2F-09DB15105515";
metricValues = (
{
pos = 1900;
},
{
pos = 1400;
},
{
pos = 600;
},
{
},
{
pos = -400;
}
);
name = Black;
stemValues = (
300
);
}
);
glyphs = (
{
color = 4;
glyphname = A;
kernLeft = A;
kernRight = A;
lastChange = "2022-05-30 04:31:09 +0000";
layers = (
{
layerId = m01;
shapes = (
{
attr = {
fillColor = (0,255);
lineCapEnd = "2";
lineCapStart = "2";
strokeHeight = 50;
strokeWidth = 50;
};
closed = 0;
nodes = (
(375,711,l),
(76,4,l)
);
},
{
attr = {
fillColor = (0,255);
lineCapEnd = "2";
lineCapStart = "2";
strokeHeight = 50;
strokeWidth = 50;
};
closed = 0;
nodes = (
(679,1396,l),
(1276,4,l)
);
}
);
width = 1352;
},
{
anchors = (
{
name = bottom;
pos = (706,0);
},
{
name = ogonek;
pos = (1283,-2);
},
{
name = top;
pos = (706,1400);
}
);
layerId = "19FA402B-9607-46D9-AAD6-815AECBA5B6B";
name = Regular;
shapes = (
{
attr = {
fillColor = (0,255);
lineCapEnd = "2";
lineCapStart = "2";
strokeHeight = 120;
strokeWidth = 120;
};
closed = 0;
nodes = (
(405,711,l),
(109,10,l)
);
},
{
attr = {
fillColor = (0,255);
lineCapEnd = "2";
lineCapStart = "2";
strokeHeight = 120;
strokeWidth = 120;
};
closed = 0;
nodes = (
(712,1390,l),
(1303,10,l)
);
}
);
width = 1412;
},
{
layerId = "FF87E3F2-B049-41CB-BF2F-09DB15105515";
name = Black;
shapes = (
{
attr = {
fillColor = (0,255);
lineCapEnd = "2";
lineCapStart = "2";
strokeHeight = 300;
strokeWidth = 300;
};
closed = 0;
nodes = (
(512,711,l),
(193,28,l)
);
},
{
attr = {
fillColor = (0,255);
lineCapEnd = "2";
lineCapStart = "2";
strokeHeight = 300;
strokeWidth = 300;
};
closed = 0;
nodes = (
(746,1374,l),
(1373,27,l)
);
}
);
width = 1566;
}
);
unicode = (65,97);
},
{
color = 5;
glyphname = AE;
kernLeft = A;
kernRight = E;
lastChange = "2022-05-30 02:18:52 +0000";
layers = (
{
layerId = m01;
width = 2470;
},
{
layerId = "19FA402B-9607-46D9-AAD6-815AECBA5B6B";
shapes = (
{
attr = {
fillColor = (0,255);
lineCapEnd = 2;
lineCapStart = 2;
strokeHeight = 120;
strokeWidth = 120;
};
closed = 0;
nodes = (
(717,1386,l),
(108,14,l)
);
},
{
attr = {
fillColor = (0,255);
lineCapEnd = "3";
lineCapStart = "2";
strokeHeight = 120;
strokeWidth = 120;
};
closed = 0;
nodes = (
(897,760,l),
(897,120,l)
);
},
{
attr = {
fillColor = (0,255);
lineCapEnd = "1";
lineCapStart = "2";
strokeHeight = 120;
strokeWidth = 120;
};
closed = 0;
nodes = (
(1594,1340,l),
(697,1340,l)
);
},
{
attr = {
fillColor = (0,255);
lineCapEnd = "2";
lineCapStart = "1";
strokeHeight = 120;
strokeWidth = 120;
};
closed = 0;
nodes = (
(897,60,l),
(1594,60,l)
);
},
{
attr = {
fillColor = (0,255);
lineCapEnd = "2";
lineCapStart = "2";
strokeHeight = 120;
strokeWidth = 120;
};
closed = 0;
nodes = (
(1593,700,l),
(1170,700,l)
);
}
);
width = 1680;
},
{
layerId = "FF87E3F2-B049-41CB-BF2F-09DB15105515";
width = 600;
}
);
metricLeft = A;
metricRight = E;
unicode = (198,230);
},
{
color = 4;
glyphname = B;
kernLeft = I;
kernRight = B;
lastChange = "2022-05-30 05:21:14 +0000";
layers = (
{
layerId = m01;
shapes = (
{
attr = {
fillColor = (0,255);
lineCapEnd = "2";
lineCapStart = "2";
strokeHeight = 50;
strokePos = "1";
strokeWidth = 50;
};
closed = 0;
nodes = (
(110,1000,l),
(110,0,l)
);
},
{
attr = {
fillColor = (0,255);
lineCapStart = "2";
strokeHeight = 50;
strokePos = "0";
strokeWidth = 50;
};
closed = 0;
nodes = (
(560,50,l),
(820,50,ls),
(992,50,o),
(1132,190,o),
(1132,348,cs),
(1132,507,o),
(992,675,o),
(820,675,cs),
(640,675,l)
);
},
{
attr = {
fillColor = (0,255);
lineCapEnd = "2";
lineCapStart = "1";
strokeHeight = 50;
strokePos = "1";
strokeWidth = 50;
};
closed = 0;
nodes = (
(135,1350,l),
(720,1350,ls),
(892,1350,o),
(1032,1211,o),
(1032,1038,cs),
(1032,865,o),
(892,725,o),
(720,725,cs),
(450,725,l)
);
}
);
width = 1237;
},
{
anchors = (
{
name = bottom;
pos = (620,0);
},
{
name = center;
pos = (620,700);
},
{
name = top;
pos = (570,1400);
}
);
layerId = "19FA402B-9607-46D9-AAD6-815AECBA5B6B";
name = Regular;
shapes = (
{
attr = {
fillColor = (0,255);
lineCapEnd = "2";
lineCapStart = "2";
strokeHeight = 120;
strokePos = 1;
strokeWidth = 120;
};
closed = 0;
nodes = (
(100,1000,l),
(100,0,l)
);
},
{
attr = {
fillColor = (0,255);
lineCapStart = "2";
strokeHeight = 120;
strokePos = 0;
strokeWidth = 120;
};
closed = 0;
nodes = (
(550,120,l),
(810,120,ls),
(954,120,o),
(1070,236,o),
(1070,380,cs),
(1070,524,o),
(954,640,o),
(810,640,cs),
(630,640,l)
);
},
{
attr = {
fillColor = (0,255);
lineCapEnd = "2";
lineCapStart = "1";
strokeHeight = 120;
strokePos = 1;
strokeWidth = 120;
};
closed = 0;
nodes = (
(160,1280,l),
(710,1280,ls),
(854,1280,o),
(970,1164,o),
(970,1020,cs),
(970,876,o),
(854,760,o),
(710,760,cs),
(440,760,l)
);
}
);
width = 1240;
},
{
layerId = "FF87E3F2-B049-41CB-BF2F-09DB15105515";
shapes = (
{
attr = {
fillColor = (0,255);
lineCapEnd = "2";
lineCapStart = "2";
strokeHeight = 300;
strokePos = "1";
strokeWidth = 300;
};
closed = 0;
nodes = (
(150,920,l),
(150,15,l)
);
},
{
attr = {
fillColor = (0,255);
lineCapStart = "2";
strokeHeight = 300;
strokePos = "0";
strokeWidth = 300;
};
closed = 0;
nodes = (
(629,300,l),
(840,300,ls),
(909,300,o),
(965,357,o),
(965,426,cs),
(965,495,o),
(909,551,o),
(840,551,cs),
(709,551,l)
);
},
{
attr = {
fillColor = (0,255);
lineCapEnd = "2";
lineCapStart = "1";
strokeHeight = 300;
strokePos = "1";
strokeWidth = 300;
};
closed = 0;
nodes = (
(300,1100,l),
(760,1100,ls),
(828,1100,o),
(884,1044,o),
(884,976,cs),
(884,907,o),
(828,851,o),
(760,851,cs),
(590,851,l)
);
}
);
width = 1340;
}
);
metricLeft = H;
metricRight = "=H/2";
unicode = (66,98);
},
{
color = 4;
glyphname = C;
kernLeft = O;
kernRight = C;
lastChange = "2022-05-30 05:22:16 +0000";
layers = (
{
layerId = m01;
shapes = (
{
closed = 1;
nodes = (
(1133,1350,o),
(1144,1361,o),
(1144,1375,cs),
(1144,1389,o),
(1133,1400,o),
(1119,1400,cs),
(1105,1400,o),
(1094,1389,o),
(1094,1375,cs),
(1094,1361,o),
(1105,1350,o),
(1119,1350,cs)
);
},
{
attr = {
fillColor = (0,255);
lineCapEnd = "1";
lineCapStart = "2";
strokeHeight = "50\\";
strokePos = "0";
strokeWidth = 50;
};
closed = 0;
nodes = (
(764,1350,l),
(405,1350,o),
(114,1059,o),
(114,700,cs),
(114,341,o),
(405,50,o),
(764,50,cs),
(1118,50,l)
);
}
);
width = 1188;
},
{
anchors = (
{
name = bottom;
pos = (631,0);
},
{
name = top;
pos = (691,1400);
}
);
layerId = "19FA402B-9607-46D9-AAD6-815AECBA5B6B";
name = Regular;
shapes = (
{
closed = 1;
nodes = (
(1114,1280,o),
(1141,1307,o),
(1141,1340,cs),
(1141,1373,o),
(1114,1400,o),
(1081,1400,cs),
(1048,1400,o),
(1021,1373,o),
(1021,1340,cs),
(1021,1307,o),
(1048,1280,o),
(1081,1280,cs)
);
},
{
attr = {
fillColor = (0,255);
lineCapEnd = 1;
lineCapStart = "2";
strokeHeight = 120;
strokePos = 0;
strokeWidth = 120;
};
closed = 0;
nodes = (
(780,1280,l),
(460,1280,o),
(200,1020,o),
(200,700,cs),
(200,380,o),
(460,120,o),
(780,120,cs),
(1134,120,l)
);
}
);
width = 1244;
},
{
layerId = "FF87E3F2-B049-41CB-BF2F-09DB15105515";
shapes = (
{
closed = 1;
nodes = (
(1159,1100,o),
(1226,1167,o),
(1226,1250,cs),
(1226,1333,o),
(1159,1400,o),
(1076,1400,cs),
(993,1400,o),
(926,1333,o),
(926,1250,cs),
(926,1167,o),
(993,1100,o),
(1076,1100,cs)
);
},
{
attr = {
fillColor = (0,255);
lineCapEnd = "1";
lineCapStart = "2";
strokeHeight = 300;
strokePos = "0";
strokeWidth = 300;
};
closed = 0;
nodes = (
(827,1116,l),
(602,1116,o),
(420,933,o),
(420,708,cs),
(420,483,o),
(602,300,o),
(827,300,cs),
(1076,300,l)
);
}
);
width = 1301;
}
);
metricLeft = O;
unicode = (67,99);
},
{
color = 4;
glyphname = D;
kernLeft = I;
kernRight = O;
lastChange = "2022-05-30 05:22:16 +0000";
layers = (
{
layerId = m01;
shapes = (
{
attr = {
fillColor = (0,255);
lineCapEnd = "2";
lineCapStart = "2";
strokeHeight = 50;
strokePos = "0";
strokeWidth = 50;
};
closed = 0;
nodes = (
(112,3,l),
(112,791,l)
);
},
{
attr = {
fillColor = (0,255);
lineCapEnd = "1";
lineCapStart = "2";
strokeHeight = "50\\";
strokePos = 1;
strokeWidth = 50;
};
closed = 0;
nodes = (
(112,1350,l),
(531,1350,ls),
(890,1350,o),
(1181,1059,o),
(1181,700,cs),
(1181,341,o),
(890,50,o),
(531,50,c)
);
}
);
width = 1295;
},
{
anchors = (
{
name = bottom;
pos = (643,0);
},
{
name = center;
pos = (643,700);
},
{
name = top;
pos = (583,1400);
}
);
layerId = "19FA402B-9607-46D9-AAD6-815AECBA5B6B";
name = Regular;
shapes = (
{
attr = {
fillColor = (0,255);
lineCapEnd = "2";
lineCapStart = "2";
strokeHeight = 120;
strokePos = 0;
strokeWidth = 120;
};
closed = 0;
nodes = (
(100,6,l),
(100,791,l)
);
},
{
attr = {
fillColor = (0,255);
lineCapEnd = "1";
lineCapStart = 2;
strokeHeight = 120;
strokePos = 1;
strokeWidth = 120;
};
closed = 0;
nodes = (
(106,1280,l),
(525,1280,ls),
(845,1280,o),
(1105,1020,o),
(1105,700,cs),
(1105,380,o),
(845,120,o),
(525,120,c)
);
}
);
width = 1305;
},
{
layerId = "FF87E3F2-B049-41CB-BF2F-09DB15105515";
shapes = (
{
attr = {
fillColor = (0,255);
lineCapEnd = "2";
lineCapStart = "2";
strokeHeight = 300;
strokePos = "0";
strokeWidth = 300;
};
closed = 0;
nodes = (
(165,15,l),
(165,791,l)
);
},
{
attr = {
fillColor = (0,255);
lineCapEnd = "1";
lineCapStart = "2";
strokeHeight = 300;
strokePos = "1";
strokeWidth = 300;
};
closed = 0;
nodes = (
(165,1100,l),
(745,1100,ls),
(965,1100,o),
(1145,921,o),
(1145,701,cs),
(1145,479,o),
(965,300,o),
(745,300,c)
);
}
);
width = 1565;
}
);
metricLeft = H;
metricRight = O;
unicode = (68,100);
},
{
color = 5;
glyphname = Eth;
kernLeft = ETH;
kernRight = O;
lastChange = "2022-05-30 02:18:52 +0000";
layers = (
{
layerId = m01;
width = 600;
},
{
anchors = (
{
name = bottom;
pos = (722,0);
},
{
name = center;
pos = (722,700);
},
{
name = top;
pos = (662,1400);
}
);
layerId = "19FA402B-9607-46D9-AAD6-815AECBA5B6B";
shapes = (
{
attr = {
fillColor = (0,255);
identifier = ID0x6000004932c0;
lineCapEnd = "2";
lineCapStart = "2";
strokeHeight = 120;
strokePos = 0;
strokeWidth = 120;
};
closed = 0;
nodes = (
(179,6,l),
(179,491,l)
);
},
{
attr = {
fillColor = (0,255);
identifier = ID0x6000004932c0;
lineCapEnd = "1";
lineCapStart = 2;
strokeHeight = 120;
strokePos = 1;
strokeWidth = 120;
};
closed = 0;
nodes = (
(185,1280,l),
(604,1280,ls),
(924,1280,o),
(1184,1020,o),
(1184,700,cs),
(1184,380,o),
(924,120,o),
(604,120,c)
);
},
{
attr = {
fillColor = (0,255);
identifier = ID0x6000004932c0;
lineCapEnd = "2";
lineCapStart = "2";
strokeHeight = 120;
strokeWidth = 120;
};
closed = 0;
nodes = (
(6,700,l),
(592,700,l)
);
}
);
width = 1364;
},
{
layerId = "FF87E3F2-B049-41CB-BF2F-09DB15105515";
width = 600;
}
);
unicode = (208,240);
},
{
color = 4;
glyphname = E;
kernRight = E;
lastChange = "2022-05-30 05:21:48 +0000";
layers = (
{
layerId = m01;
shapes = (
{
attr = {
fillColor = (0,255);
lineCapEnd = "3";
lineCapStart = "2";
strokeHeight = 50;
strokeWidth = 50;
};
closed = 0;
nodes = (
(135,758,l),
(135,53,l)
);
},
{
attr = {
fillColor = (0,255);
lineCapEnd = "2";
lineCapStart = "1";
strokeHeight = 50;
strokeWidth = 50;
};
closed = 0;
nodes = (
(135,25,l),
(953,25,l)
);
},
{
attr = {
fillColor = (0,255);
lineCapEnd = "2";
lineCapStart = "2";
strokeHeight = 50;
strokeWidth = 50;
};
closed = 0;
nodes = (
(953,700,l),
(408,700,l)
);
},
{
attr = {
fillColor = (0,255);
lineCapEnd = "1";
lineCapStart = "2";
strokeHeight = 50;
strokeWidth = 50;
};
closed = 0;
nodes = (
(953,1375,l),
(135,1375,l)
);
}
);
width = 1026;
},
{
anchors = (
{
name = bottom;
pos = (497,0);
},
{
name = ogonek;
pos = (925,0);
},
{
name = top;
pos = (517,1400);
},
{
name = topleft;
pos = (20,1400);
}
);
layerId = "19FA402B-9607-46D9-AAD6-815AECBA5B6B";
name = Regular;
shapes = (
{
attr = {
fillColor = (0,255);
lineCapEnd = "3";
lineCapStart = "2";
strokeHeight = 120;
strokeWidth = 120;
};
closed = 0;
nodes = (
(160,760,l),
(160,120,l)
);
},
{
attr = {
fillColor = (0,255);
lineCapEnd = "2";
lineCapStart = "1";
strokeHeight = 120;
strokeWidth = 120;
};
closed = 0;
nodes = (
(160,60,l),
(978,60,l)
);
},
{
attr = {
fillColor = (0,255);
lineCapEnd = "2";
lineCapStart = "2";
strokeHeight = 120;
strokeWidth = 120;
};
closed = 0;
nodes = (
(978,700,l),
(433,700,l)
);
},
{
attr = {
fillColor = (0,255);
lineCapEnd = "1";
lineCapStart = "2";
strokeHeight = 120;
strokeWidth = 120;
};
closed = 0;
nodes = (
(978,1340,l),
(160,1340,l)
);
}
);
width = 1064;
},
{
layerId = "FF87E3F2-B049-41CB-BF2F-09DB15105515";
shapes = (
{
attr = {
fillColor = (0,255);
lineCapEnd = "3";
lineCapStart = "2";
strokeHeight = 300;
strokeWidth = 300;
};
closed = 0;
nodes = (
(300,840,l),
(300,290,l)
);
},
{
attr = {
fillColor = (0,255);
lineCapEnd = "2";
lineCapStart = "1";
strokeHeight = 300;
strokeWidth = 300;
};
closed = 0;
nodes = (
(300,150,l),
(1118,150,l)
);
},
{
attr = {
fillColor = (0,255);
lineCapEnd = "2";
lineCapStart = "2";
strokeHeight = 300;
strokeWidth = 300;
};
closed = 0;
nodes = (
(1118,700,l),
(583,700,l)
);
},
{
attr = {
fillColor = (0,255);
lineCapEnd = "1";
lineCapStart = "2";
strokeHeight = 300;
strokeWidth = 300;
};
closed = 0;
nodes = (
(1118,1250,l),
(300,1250,l)
);
}
);
width = 1253;
}
);
metricLeft = H;
unicode = (69,101);
},
{
color = 4;
glyphname = F;
kernLeft = I;
kernRight = F;
lastChange = "2022-05-30 05:21:50 +0000";
layers = (
{
layerId = m01;
shapes = (
{
attr = {
fillColor = (0,255);
lineCapEnd = 3;
lineCapStart = 1;
strokeHeight = 50;
strokeWidth = 50;
};
closed = 0;
nodes = (
(135,25,l),
(135,675,l)
);
},
{
attr = {
fillColor = (0,255);
lineCapEnd = 2;
lineCapStart = 1;
strokeHeight = 50;
strokeWidth = 50;
};
closed = 0;
nodes = (
(135,700,l),
(861,700,l)
);
},
{
attr = {
fillColor = (0,255);
lineCapEnd = "1";
lineCapStart = "2";
strokeHeight = 50;
strokeWidth = 50;
};
closed = 0;
nodes = (
(953,1375,l),
(135,1375,l)
);
}
);
width = 1026;
},
{
anchors = (
{
name = bottom;
pos = (520,0);
},
{
name = top;
pos = (540,1400);
}
);
layerId = "19FA402B-9607-46D9-AAD6-815AECBA5B6B";
name = Regular;
shapes = (
{
attr = {
fillColor = (0,255);
lineCapEnd = "3";
lineCapStart = "1";
strokeHeight = 120;
strokeWidth = 120;
};
closed = 0;
nodes = (
(160,60,l),
(160,640,l)
);
},
{
attr = {
fillColor = (0,255);
lineCapEnd = "2";
lineCapStart = "1";
strokeHeight = 120;
strokeWidth = 120;
};
closed = 0;
nodes = (
(160,700,l),
(883,700,l)
);
},
{
attr = {
fillColor = (0,255);
lineCapEnd = "1";
lineCapStart = "2";
strokeHeight = 120;
strokeWidth = 120;
};
closed = 0;
nodes = (
(983,1340,l),
(160,1340,l)
);
}
);
width = 1069;
},
{
layerId = "FF87E3F2-B049-41CB-BF2F-09DB15105515";
shapes = (
{
attr = {
fillColor = (0,255);
lineCapEnd = "3";
lineCapStart = "1";
strokeHeight = 300;
strokeWidth = 300;
};
closed = 0;
nodes = (
(300,150,l),
(300,560,l)
);
},
{
attr = {
fillColor = (0,255);
lineCapEnd = "2";
lineCapStart = "1";
strokeHeight = 300;
strokeWidth = 300;
};
closed = 0;
nodes = (
(300,700,l),
(1023,700,l)
);
},
{
attr = {
fillColor = (0,255);
lineCapEnd = "1";
lineCapStart = "2";
strokeHeight = 300;
strokeWidth = 300;
};
closed = 0;
nodes = (
(1123,1250,l),
(300,1250,l)
);
}
);
width = 1258;
}
);
metricLeft = H;
metricRight = E;
unicode = (70,102);
},
{
color = 4;
glyphname = G;
kernLeft = O;
kernRight = G;
lastChange = "2022-05-30 05:22:16 +0000";
layers = (
{
layerId = m01;
shapes = (
{
attr = {
fillColor = (0,255);
lineCapEnd = "1";
lineCapStart = "2";
strokeHeight = "50\\";
strokePos = "0";
strokeWidth = 50;
};
closed = 0;
nodes = (
(1258,1350,l),
(764,1350,ls),
(405,1350,o),
(114,1059,o),
(114,700,cs),
(114,341,o),
(405,50,o),
(764,50,c)
);
},
{
attr = {
fillColor = (0,255);
lineCapEnd = "1";
lineCapStart = "1";
strokeHeight = 50;
strokePos = "0";
strokeWidth = 50;
};
closed = 0;
nodes = (
(1258,608,l),
(1258,25,l)
);
}
);
width = 1371;
},
{
anchors = (
{
name = bottom;
pos = (700,0);
},
{
name = top;
pos = (760,1400);
}
);
layerId = "19FA402B-9607-46D9-AAD6-815AECBA5B6B";
name = Regular;
shapes = (
{
attr = {
fillColor = (0,255);
lineCapEnd = "1";
lineCapStart = "2";
strokeHeight = 120;
strokePos = "0";
strokeWidth = 120;
};
closed = 0;
nodes = (
(1274,1280,l),
(780,1280,ls),
(460,1280,o),
(200,1020,o),
(200,700,cs),
(200,380,o),
(460,120,o),
(780,120,c)
);
},
{
attr = {
fillColor = (0,255);
lineCapEnd = "1";
lineCapStart = "1";
strokeHeight = 120;
strokePos = "0";
strokeWidth = 120;
};
closed = 0;
nodes = (
(1274,608,l),
(1274,60,l)
);
}
);
width = 1380;
},
{
layerId = "FF87E3F2-B049-41CB-BF2F-09DB15105515";
shapes = (
{
attr = {
fillColor = (0,255);
lineCapEnd = "1";
lineCapStart = "2";
strokeHeight = 300;
strokePos = "0";
strokeWidth = 300;
};
closed = 0;
nodes = (
(1368,1100,l),
(818,1100,ls),
(598,1100,o),
(420,921,o),
(420,700,cs),
(420,480,o),
(598,301,o),
(818,301,c)
);
},
{
attr = {
fillColor = (0,255);
lineCapEnd = "1";
lineCapStart = "1";
strokeHeight = 300;
strokePos = "0";
strokeWidth = 300;
};
closed = 0;
nodes = (
(1384,608,l),
(1384,150,l)
);
}
);
width = 1534;
}
);
metricLeft = O;
metricRight = H;
unicode = (71,103);
},
{
color = 4;
glyphname = H;
kernLeft = I;
kernRight = I;
lastChange = "2022-05-30 05:21:10 +0000";
layers = (
{
anchors = (
{
name = bottom;
pos = (638,0);
},
{
name = center;
pos = (638,700);
},
{
name = top;
pos = (638,1400);
},
{
name = topleft;
pos = (30,1400);
}
);
layerId = m01;
shapes = (
{
attr = {
fillColor = (0,255);
lineCapEnd = 2;
lineCapStart = 2;
strokeHeight = "50\\";
strokeWidth = 50;
};
closed = 0;
nodes = (
(135,405,l),
(135,0,l)
);
},
{
attr = {
fillColor = (0,255);
lineCapEnd = 2;
lineCapStart = "1";
strokeHeight = "50\\";
strokeWidth = 50;
};
closed = 0;
nodes = (
(135,700,l),
(135,1400,l)
);
},
{
attr = {
lineCapEnd = "3";
lineCapStart = "3";
strokeHeight = "50\\";
strokeWidth = 50;
};
closed = 0;
nodes = (
(160,700,l),
(1116,700,l)
);
},
{
attr = {
fillColor = (0,255);
lineCapEnd = "1";
lineCapStart = 2;
strokeHeight = "50\\";
strokeWidth = 50;
};
closed = 0;
nodes = (
(1141,0,l),
(1141,700,l)
);
},
{
attr = {
fillColor = (0,255);
lineCapEnd = 2;
lineCapStart = 2;
strokeHeight = "50\\";
strokeWidth = 50;
};
closed = 0;
nodes = (
(1141,1400,l),
(1141,995,l)
);
}
);
width = 1276;
},
{
anchors = (
{
name = bottom;
pos = (663,0);
},
{
name = center;
pos = (663,700);
},
{
name = top;
pos = (663,1400);
},
{
name = topleft;
pos = (20,1400);
}
);
layerId = "19FA402B-9607-46D9-AAD6-815AECBA5B6B";
shapes = (
{
attr = {
fillColor = (0,255);
lineCapEnd = 2;
lineCapStart = 2;
strokeHeight = 120;
strokeWidth = 120;
};
closed = 0;
nodes = (
(160,405,l),
(160,6,l)
);
},
{
attr = {
fillColor = (0,255);
lineCapEnd = 2;
lineCapStart = 1;
strokeHeight = 120;
strokeWidth = 120;
};
closed = 0;
nodes = (
(160,700,l),
(160,1394,l)
);
},
{
attr = {
lineCapEnd = 3;
lineCapStart = 3;
strokeHeight = 120;
strokeWidth = 120;
};
closed = 0;
nodes = (
(220,700,l),
(1106,700,l)
);
},
{
attr = {
fillColor = (0,255);
lineCapEnd = 1;
lineCapStart = 1;
strokeHeight = 120;
strokeWidth = 120;
};
closed = 0;
nodes = (
(1166,60,l),
(1166,700,l)
);
},
{
attr = {
fillColor = (0,255);
lineCapEnd = 2;
lineCapStart = 2;
strokeHeight = 120;
strokeWidth = 120;
};
closed = 0;
nodes = (
(1166,1394,l),
(1166,995,l)
);
}
);
width = 1326;
},
{
anchors = (
{
name = bottom;
pos = (803,0);
},
{
name = center;
pos = (803,700);
},
{
name = top;
pos = (803,1400);
},
{
name = topleft;
pos = (70,1400);
}
);
layerId = "FF87E3F2-B049-41CB-BF2F-09DB15105515";
shapes = (
{
attr = {
fillColor = (0,255);
lineCapEnd = 2;
lineCapStart = 2;
strokeHeight = 300;
strokeWidth = 300;
};
closed = 0;
nodes = (
(300,405,l),
(300,0,l)
);
},
{
attr = {
fillColor = (0,255);
lineCapEnd = 2;
lineCapStart = "1";
strokeHeight = 300;
strokeWidth = 300;
};
closed = 0;
nodes = (
(300,700,l),
(300,1400,l)
);
},
{
attr = {
lineCapEnd = "3";
lineCapStart = "3";
strokeHeight = 300;
strokeWidth = 300;
};
closed = 0;
nodes = (
(450,700,l),
(1156,700,l)
);
},
{
attr = {
fillColor = (0,255);
lineCapEnd = "1";
lineCapStart = 2;
strokeHeight = 300;
strokeWidth = 300;
};
closed = 0;
nodes = (
(1306,0,l),
(1306,700,l)
);
},
{
attr = {
fillColor = (0,255);
lineCapEnd = 2;
lineCapStart = 2;
strokeHeight = 300;
strokeWidth = 300;
};
closed = 0;
nodes = (
(1306,1400,l),
(1306,995,l)
);
}
);
width = 1606;
}
);
unicode = (72,104);
},
{
color = 4;
glyphname = I;
kernLeft = I;
kernRight = I;
lastChange = "2022-05-30 05:21:14 +0000";
layers = (
{
layerId = m01;
shapes = (
{
attr = {
fillColor = (0,255);
lineCapEnd = "2";
lineCapStart = "1";
strokeHeight = 50;
strokeWidth = 50;
};
closed = 0;
nodes = (
(135,500,l),
(135,3,l)
);
},
{
attr = {
fillColor = (0,255);
lineCapEnd = "1";
lineCapStart = "2";
strokeHeight = 50;
strokeWidth = 50;
};
closed = 0;
nodes = (
(135,1397,l),
(135,900,l)
);
}
);
width = 270;
},
{
anchors = (
{
name = bottom;
pos = (160,0);
},
{
name = ogonek;
pos = (160,0);
},
{
name = top;
pos = (160,1400);
},
{
name = topleft;
pos = (20,1400);
}
);
layerId = "19FA402B-9607-46D9-AAD6-815AECBA5B6B";
shapes = (
{
attr = {
fillColor = (0,255);
lineCapEnd = "2";
lineCapStart = "1";
strokeHeight = 120;
strokeWidth = 120;
};
closed = 0;
nodes = (
(160,500,l),
(160,6,l)
);
},
{
attr = {
fillColor = (0,255);
lineCapEnd = "1";
lineCapStart = "2";
strokeHeight = 120;
strokeWidth = 120;
};
closed = 0;
nodes = (
(160,1394,l),
(160,900,l)
);
}
);
width = 320;
},
{
layerId = "FF87E3F2-B049-41CB-BF2F-09DB15105515";
shapes = (
{
attr = {
fillColor = (0,255);
lineCapEnd = "2";
lineCapStart = "1";
strokeHeight = 300;
strokeWidth = 300;
};
closed = 0;
nodes = (
(300,440,l),
(300,6,l)
);
},
{
attr = {
fillColor = (0,255);
lineCapEnd = "1";
lineCapStart = "2";
strokeHeight = 300;
strokeWidth = 300;
};
closed = 0;
nodes = (
(300,1394,l),
(300,960,l)
);
}
);
width = 600;
}
);
metricLeft = H;
metricRight = H;
unicode = (73,105,305);
},
{
color = 4;
glyphname = J;
kernLeft = J;
kernRight = J;
lastChange = "2022-05-30 05:22:00 +0000";
layers = (
{
layerId = m01;
shapes = (
{
attr = {
fillColor = (0,255);
lineCapEnd = "1";
lineCapStart = "2";
strokeHeight = 50;
strokePos = "0";
strokeWidth = 50;
};
closed = 0;
nodes = (
(1056,1394,l),
(1056,900,l)
);
},
{
attr = {
lineCapEnd = "1";
lineCapStart = "1";
strokeHeight = 50;
strokePos = "0";
strokeWidth = 50;
};
closed = 0;
nodes = (
(110,498,l),
(110,250,o),
(310,50,o),
(558,50,cs),
(805,50,o),
(1005,250,o),
(1005,498,c)
);
}
);
width = 1133;
},
{
anchors = (
{
name = bottom;
pos = (568,0);
},
{
name = top;
pos = (1006,1400);
}
);
layerId = "19FA402B-9607-46D9-AAD6-815AECBA5B6B";
shapes = (
{
attr = {
fillColor = (0,255);
lineCapEnd = "1";
lineCapStart = "2";
strokeHeight = 120;
strokePos = 0;
strokeWidth = 120;
};
closed = 0;
nodes = (
(1066,1394,l),
(1066,900,l)
);
},
{
attr = {
lineCapEnd = 1;
lineCapStart = 1;
strokeHeight = 120;
strokePos = 0;
strokeWidth = 120;
};
closed = 0;
nodes = (
(190,498,l),
(190,289,o),
(359,120,o),
(568,120,cs),
(776,120,o),
(945,289,o),
(945,498,c)
);
}
);
width = 1154;
},
{
layerId = "FF87E3F2-B049-41CB-BF2F-09DB15105515";
shapes = (
{
attr = {
fillColor = (0,255);
lineCapEnd = "1";
lineCapStart = "2";
strokeHeight = 300;
strokePos = "0";
strokeWidth = 300;
};
closed = 0;
nodes = (
(1211,1394,l),
(1211,1030,l)
);
},
{
attr = {
lineCapEnd = "1";
lineCapStart = "1";
strokeHeight = 300;
strokePos = "0";
strokeWidth = 300;
};
closed = 0;
nodes = (
(400,558,l),
(400,417,o),
(515,303,o),
(656,303,cs),
(796,303,o),
(911,417,o),
(911,558,c)
);
}
);
width = 1343;
}
);
metricLeft = A;
unicode = (74,106,567);
},
{
color = 4;
glyphname = K;
kernLeft = I;
kernRight = K;
lastChange = "2022-05-30 05:21:14 +0000";
layers = (
{
layerId = m01;
shapes = (
{
attr = {
fillColor = (0,255);
lineCapEnd = "2";
lineCapStart = "2";
strokeHeight = 50;
strokePos = "1";
strokeWidth = 50;
};
closed = 0;
nodes = (
(110,1397,l),
(110,3,l)
);
},
{
attr = {
fillColor = (0,255);
lineCapEnd = "2";
lineCapStart = "1";
strokeHeight = 50;
strokeWidth = 50;
};
closed = 0;
nodes = (
(469,700,l),
(1160,9,l)
);
},
{
attr = {
fillColor = (0,255);
lineCapEnd = "2";
lineCapStart = "1";
strokeHeight = 50;
strokeWidth = 50;
};
closed = 0;
nodes = (
(767,998,l),
(1160,1391,l)
);
}
);
width = 1229;
},
{
anchors = (
{
name = bottom;
pos = (610,0);
},
{
name = top;
pos = (610,1400);
}
);
layerId = "19FA402B-9607-46D9-AAD6-815AECBA5B6B";
shapes = (
{
attr = {
fillColor = (0,255);
lineCapEnd = 2;
lineCapStart = 2;
strokeHeight = 120;
strokePos = 1;
strokeWidth = 120;
};
closed = 0;
nodes = (
(100,1394,l),
(100,6,l)
);
},
{
attr = {
fillColor = (0,255);
lineCapEnd = 2;
lineCapStart = 1;
strokeHeight = 120;
strokeWidth = 120;
};
closed = 0;
nodes = (
(459,700,l),
(1137,22,l)
);
},
{
attr = {
fillColor = (0,255);
lineCapEnd = 2;
lineCapStart = 1;
strokeHeight = 120;
strokeWidth = 120;
};
closed = 0;
nodes = (
(757,998,l),
(1137,1378,l)
);
}
);
width = 1229;
},
{
layerId = "FF87E3F2-B049-41CB-BF2F-09DB15105515";
shapes = (
{
attr = {
fillColor = (0,255);
lineCapEnd = "2";
lineCapStart = "2";
strokeHeight = 300;
strokePos = "1";
strokeWidth = 300;
};
closed = 0;
nodes = (
(150,1385,l),
(150,15,l)
);
},
{
attr = {
fillColor = (0,255);
lineCapEnd = "2";
lineCapStart = "1";
strokeHeight = 300;
strokeWidth = 300;
};
closed = 0;
nodes = (
(679,700,l),
(1324,55,l)
);
},
{
attr = {
fillColor = (0,255);
lineCapEnd = "2";
lineCapStart = "1";
strokeHeight = 300;
strokeWidth = 300;
};
closed = 0;
nodes = (
(977,998,l),
(1324,1345,l)
);
}
);
width = 1479;
}
);
metricLeft = H;
metricRight = A;
unicode = (75,107);
},
{
color = 4;
glyphname = L;
kernLeft = I;
kernRight = L;
lastChange = "2022-05-30 05:21:14 +0000";
layers = (
{
layerId = m01;
shapes = (
{
attr = {
fillColor = (0,255);
lineCapEnd = "2";
lineCapStart = "2";
strokeHeight = 50;
strokePos = "1";
strokeWidth = 50;
};
closed = 0;
nodes = (
(112,4,l),
(1127,4,l)
);
},
{
attr = {
fillColor = (0,255);
lineCapEnd = "1";
lineCapStart = "2";
strokeHeight = 50;
strokePos = "1";
strokeWidth = 50;
};
closed = 0;
nodes = (
(112,1394,l),
(112,402,l)
);
}
);
width = 1190;
},
{
anchors = (
{
name = bottom;
pos = (594,0);
},
{
name = center;
pos = (594,700);
},
{
name = top;
pos = (166,1400);
},
{
name = topright;
pos = (1167,1400);
}
);
layerId = "19FA402B-9607-46D9-AAD6-815AECBA5B6B";
shapes = (
{
attr = {
fillColor = (0,255);
lineCapEnd = 2;
lineCapStart = 2;
strokeHeight = 120;
strokePos = 1;
strokeWidth = 120;
};
closed = 0;
nodes = (
(106,4,l),
(1121,4,l)
);
},
{
attr = {
fillColor = (0,255);
lineCapEnd = 1;
lineCapStart = 2;
strokeHeight = 120;
strokePos = 1;
strokeWidth = 120;
};
closed = 0;
nodes = (
(106,1394,l),
(106,402,l)
);
}
);
width = 1197;
},
{
layerId = "FF87E3F2-B049-41CB-BF2F-09DB15105515";
shapes = (
{
attr = {
fillColor = (0,255);
lineCapEnd = "2";
lineCapStart = "2";
strokeHeight = 300;
strokePos = "1";
strokeWidth = 300;
};
closed = 0;
nodes = (
(165,4,l),
(1180,4,l)
);
},
{
attr = {
fillColor = (0,255);
lineCapEnd = "1";
lineCapStart = "2";
strokeHeight = 300;
strokePos = "1";
strokeWidth = 300;
};
closed = 0;
nodes = (
(165,1394,l),
(165,602,l)
);
}
);
width = 1295;
}
);
metricLeft = H;
metricRight = A;
unicode = (76,108);
},
{
color = 5;
glyphname = Lslash;
kernLeft = I;
kernRight = L;
lastChange = "2022-05-30 02:18:52 +0000";
layers = (
{
layerId = m01;
width = 600;
},
{
layerId = "19FA402B-9607-46D9-AAD6-815AECBA5B6B";
shapes = (
{
attr = {
fillColor = (0,255);
identifier = ID0x60000ffd4000;
lineCapEnd = 1;
lineCapStart = 1;
strokeHeight = 120;
strokePos = 1;
strokeWidth = 120;
};
closed = 0;
nodes = (
(241,0,l),
(1136,0,l)
);
},
{
attr = {
fillColor = (0,255);
identifier = ID0x60000ffd4000;
lineCapEnd = 2;
lineCapStart = 2;
strokeHeight = 120;
strokeWidth = 120;
};
closed = 0;
nodes = (
(241,1394,l),
(241,926,l)
);
},
{
attr = {
fillColor = (0,255);
lineCapEnd = 2;
lineCapStart = 2;
strokeHeight = 120;
strokeWidth = 120;
};
closed = 0;
nodes = (
(13,570,l),
(473,830,l)
);
},
{
attr = {
fillColor = (0,255);
identifier = ID0x60000ffd4000;
lineCapEnd = "2";
lineCapStart = "2";
strokeHeight = 120;
strokeWidth = 120;
};
closed = 0;
nodes = (
(241,474,l),
(241,6,l)
);
}
);
width = 1266;
},
{
layerId = "FF87E3F2-B049-41CB-BF2F-09DB15105515";
width = 600;
}
);
metricRight = L;
unicode = (321,322);
},
{
color = 4;
glyphname = M;
kernLeft = I;
kernRight = I;
lastChange = "2022-05-30 05:21:14 +0000";
layers = (
{
layerId = m01;
shapes = (
{
attr = {
fillColor = (0,255);
lineCapEnd = "2";
lineCapStart = "2";
strokeHeight = 50;
strokePos = "0";
strokeWidth = 50;
};
closed = 0;
nodes = (
(110,3,l),
(110,1397,l)
);
},
{
attr = {
fillColor = (0,255);
lineCapEnd = "1";
lineCapStart = "2";
strokeHeight = 50;
strokeWidth = 50;
};
closed = 0;
nodes = (
(121,1389,l),
(770,698,l)
);
},
{
attr = {
fillColor = (0,255);
lineCapEnd = "2";
lineCapStart = "2";
strokeHeight = 50;
strokePos = "1";
strokeWidth = 50;
};
closed = 0;
nodes = (
(1430,3,l),
(1430,1397,l)
);
}
);
width = 1540;
},
{
anchors = (
{
name = bottom;
pos = (690,0);
},
{
name = top;
pos = (760,1400);
}
);
layerId = "19FA402B-9607-46D9-AAD6-815AECBA5B6B";
shapes = (
{
attr = {
fillColor = (0,255);
lineCapEnd = 2;
lineCapStart = 2;
strokeHeight = 120;
strokePos = 0;
strokeWidth = 120;
};
closed = 0;
nodes = (
(100,6,l),
(100,1394,l)
);
},
{
attr = {
fillColor = (0,255);
lineCapEnd = 1;
lineCapStart = 2;
strokeHeight = 120;
strokeWidth = 120;
};
closed = 0;
nodes = (
(127,1375,l),
(760,698,l)
);
},
{
attr = {
fillColor = (0,255);
lineCapEnd = 2;
lineCapStart = 2;
strokeHeight = 120;
strokePos = 1;
strokeWidth = 120;
};
closed = 0;
nodes = (
(1420,6,l),
(1420,1394,l)
);
}
);
width = 1520;
},
{
layerId = "FF87E3F2-B049-41CB-BF2F-09DB15105515";
shapes = (
{
attr = {
fillColor = (0,255);
lineCapEnd = "2";
lineCapStart = "2";
strokeHeight = 300;
strokePos = "0";
strokeWidth = 300;
};
closed = 0;
nodes = (
(150,15,l),
(150,1385,l)
);
},
{
attr = {
fillColor = (0,255);
lineCapEnd = "1";
lineCapStart = "2";
strokeHeight = 300;
strokeWidth = 300;
};
closed = 0;
nodes = (
(222,1336,l),
(810,698,l)
);
},
{
attr = {
fillColor = (0,255);
lineCapEnd = "2";
lineCapStart = "2";
strokeHeight = 300;
strokePos = "1";
strokeWidth = 300;
};
closed = 0;
nodes = (
(1470,15,l),
(1470,1385,l)
);
}
);
width = 1620;
}
);
metricLeft = H;
metricRight = H;
unicode = (77,109);
},
{
color = 4;
glyphname = N;
kernLeft = I;
kernRight = I;
lastChange = "2022-05-30 05:21:14 +0000";
layers = (
{
layerId = m01;
shapes = (
{
attr = {
fillColor = (0,255);
lineCapEnd = "2";
lineCapStart = "2";
strokeHeight = 50;
strokePos = "1";
strokeWidth = 50;
};
closed = 0;
nodes = (
(110,1397,l),
(110,3,l)
);
},
{
attr = {
fillColor = (0,255);
lineCapEnd = "1";
strokeHeight = 50;
strokeWidth = 50;
};
closed = 0;
nodes = (
(1297,26,l),
(568,1000,l)
);
},
{
attr = {
fillColor = (0,255);
lineCapEnd = "2";
lineCapStart = "2";
strokeHeight = 50;
strokePos = "0";
strokeWidth = 50;
};
closed = 0;
nodes = (
(1323,1397,l),
(1323,3,l)
);
}
);
width = 1433;
},
{
anchors = (
{
name = bottom;
pos = (707,0);
},
{
name = top;
pos = (707,1400);
}
);
layerId = "19FA402B-9607-46D9-AAD6-815AECBA5B6B";
shapes = (
{
attr = {
fillColor = (0,255);
lineCapEnd = 2;
lineCapStart = 2;
strokeHeight = 120;
strokePos = 1;
strokeWidth = 120;
};
closed = 0;
nodes = (
(100,1394,l),
(100,6,l)
);
},
{
attr = {
fillColor = (0,255);
lineCapEnd = 1;
strokeHeight = 120;
strokeWidth = 120;
};
closed = 0;
nodes = (
(1255,57,l),
(558,1000,l)
);
},
{
attr = {
fillColor = (0,255);
lineCapEnd = 2;
lineCapStart = 2;
strokeHeight = 120;
strokePos = 0;
strokeWidth = 120;
};
closed = 0;
nodes = (
(1313,1394,l),
(1313,6,l)
);
}
);
width = 1413;
},
{
layerId = "FF87E3F2-B049-41CB-BF2F-09DB15105515";
shapes = (
{
attr = {
fillColor = (0,255);
lineCapEnd = "2";
lineCapStart = "2";
strokeHeight = 300;
strokePos = "1";
strokeWidth = 300;
};
closed = 0;
nodes = (
(150,1385,l),
(150,15,l)
);
},
{
attr = {
fillColor = (0,255);
lineCapEnd = "1";
strokeHeight = 300;
strokeWidth = 300;
};
closed = 0;
nodes = (
(1305,138,l),
(742,767,l)
);
},
{
attr = {
fillColor = (0,255);
lineCapEnd = "2";
lineCapStart = "2";
strokeHeight = 300;
strokePos = "0";
strokeWidth = 300;
};
closed = 0;
nodes = (
(1443,1385,l),
(1443,15,l)
);
}
);
width = 1593;
}
);
metricLeft = H;
metricRight = H;
unicode = (78,110);
},
{
color = 4;
glyphname = O;
kernLeft = O;
kernRight = O;
lastChange = "2022-05-30 05:22:11 +0000";
layers = (
{
layerId = m01;
shapes = (
{
attr = {
lineCapEnd = 1;
lineCapStart = 1;
strokePos = "0";
strokeWidth = 50;
};
closed = 0;
nodes = (
(114,700,l),
(114,341,o),
(405,50,o),
(764,50,cs),
(1123,50,o),
(1414,341,o),
(1414,700,cs),
(1414,1059,o),
(1123,1350,o),
(764,1350,c)
);
},
{
closed = 1;
nodes = (
(283,1171,o),
(294,1182,o),
(294,1196,cs),
(294,1210,o),
(283,1221,o),
(269,1221,cs),
(255,1221,o),
(244,1210,o),
(244,1196,cs),
(244,1182,o),
(255,1171,o),
(269,1171,cs)
);
}
);
width = 1528;
},
{
anchors = (
{
name = bottom;
pos = (780,0);
},
{
name = center;
pos = (780,700);
},
{
name = ogonek;
pos = (780,0);
},
{
name = top;
pos = (780,1400);
},
{
name = topleft;
pos = (40,1400);
},
{
name = topright;
pos = (1520,1400);
}
);
layerId = "19FA402B-9607-46D9-AAD6-815AECBA5B6B";
shapes = (
{
attr = {
lineCapEnd = "1";
lineCapStart = "1";
strokeHeight = 120;
strokePos = 0;
strokeWidth = 120;
};
closed = 0;
nodes = (
(200,700,l),
(200,379,o),
(459,120,o),
(780,120,cs),
(1101,120,o),
(1360,379,o),
(1360,700,cs),
(1360,1021,o),
(1101,1280,o),
(780,1280,c)
);
},
{
closed = 1;
nodes = (
(318,1136,o),
(345,1163,o),
(345,1196,cs),
(345,1229,o),
(318,1256,o),
(285,1256,cs),
(252,1256,o),
(225,1229,o),
(225,1196,cs),
(225,1163,o),
(252,1136,o),
(285,1136,cs)
);
}
);
width = 1560;
},
{
layerId = "FF87E3F2-B049-41CB-BF2F-09DB15105515";
shapes = (
{
attr = {
lineCapEnd = "1";
lineCapStart = "1";
strokeHeight = 300;
strokePos = "0";
strokeWidth = 300;
};
closed = 0;
nodes = (
(420,700,l),
(420,479,o),
(599,300,o),
(820,300,cs),
(1041,300,o),
(1220,479,o),
(1220,700,cs),
(1220,921,o),
(1041,1100,o),
(820,1100,c)
);
},
{
closed = 1;
nodes = (
(473,978,o),
(540,1045,o),
(540,1128,cs),
(540,1211,o),
(473,1278,o),
(390,1278,cs),
(307,1278,o),
(240,1211,o),
(240,1128,cs),
(240,1045,o),
(307,978,o),
(390,978,cs)
);
}
);
width = 1640;
}
);
unicode = (79,111);
},
{
color = 5;
glyphname = Oslash;
kernLeft = O;
kernRight = O;
lastChange = "2022-05-30 02:18:52 +0000";
layers = (
{
layerId = m01;
width = 600;
},
{
layerId = "19FA402B-9607-46D9-AAD6-815AECBA5B6B";
shapes = (
{
attr = {
lineCapEnd = "2";
lineCapStart = "2";
strokeHeight = 120;
strokePos = 1;
strokeWidth = 120;
};
closed = 0;
nodes = (
(1298,922,l),
(1355,785,o),
(1360,626,o),
(1298,477,cs),
(1175,182,o),
(836,41,o),
(539,164,c)
);
},
{
attr = {
lineCapEnd = "2";
lineCapStart = "2";
strokeHeight = 120;
strokePos = "0";
strokeWidth = 120;
};
closed = 0;
nodes = (
(982,1236,l),
(685,1359,o),
(346,1218,o),
(223,923,cs),
(161,774,o),
(166,615,o),
(223,478,c)
);
},
{
attr = {
fillColor = (0,255);
lineCapEnd = "1";
lineCapStart = "2";
strokeHeight = 120;
strokeWidth = 120;
};
closed = 0;
nodes = (
(1439,1378,l),
(121,60,l)
);
}
);
width = 1521;
},
{
layerId = "FF87E3F2-B049-41CB-BF2F-09DB15105515";
width = 600;
}
);
unicode = (216,248);
},
{
color = 5;
glyphname = OE;
kernLeft = O;
kernRight = E;
lastChange = "2022-05-30 02:18:52 +0000";
layers = (
{
layerId = m01;
width = 1800;
},
{
layerId = "19FA402B-9607-46D9-AAD6-815AECBA5B6B";
shapes = (
{
attr = {
fillColor = (0,255);
lineCapEnd = "3";
lineCapStart = "2";
strokeHeight = 120;
strokePos = 1;
strokeWidth = 120;
};
closed = 0;
nodes = (
(986,760,l),
(986,120,l)
);
},
{
attr = {
fillColor = (0,255);
lineCapEnd = "1";
lineCapStart = "2";
strokeHeight = 120;
strokePos = 0;
strokeWidth = 120;
};
closed = 0;
nodes = (
(1743,1280,l),
(790,1280,ls),
(469,1280,o),
(210,1021,o),
(210,700,cs),
(210,379,o),
(469,120,o),
(790,120,cs)
);
},
{
attr = {
fillColor = (0,255);
lineCapEnd = "2";
lineCapStart = "1";
strokeHeight = 120;
strokePos = 1;
strokeWidth = 120;
};
closed = 0;
nodes = (
(1046,0,l),
(1743,0,l)
);
},
{
attr = {
fillColor = (0,255);
lineCapEnd = "2";
lineCapStart = "2";
strokeHeight = 120;
strokeWidth = 120;
};
closed = 0;
nodes = (
(1742,700,l),
(1319,700,l)
);
}
);
width = 1829;
},
{
layerId = "FF87E3F2-B049-41CB-BF2F-09DB15105515";
width = 600;
}
);
metricLeft = O;
metricRight = E;
unicode = (338,339);
},
{
color = 4;
glyphname = P;
kernLeft = P;
kernRight = P;
lastChange = "2022-05-30 05:23:33 +0000";
layers = (
{
layerId = m01;
shapes = (
{
attr = {
fillColor = (0,255);
lineCapEnd = "2";
lineCapStart = "1";
strokeHeight = 50;
strokePos = "1";
strokeWidth = 50;
};
closed = 0;
nodes = (
(111,661,l),
(111,6,l)
);
},
{
attr = {
fillColor = (0,255);
lineCapEnd = "1";
lineCapStart = "1";
strokeHeight = 50;
strokePos = "1";
strokeWidth = 50;
};
closed = 0;
nodes = (
(135,1350,l),
(752,1350,ls),
(935,1350,o),
(1084,1202,o),
(1084,1019,cs),
(1084,835,o),
(935,686,o),
(752,686,cs),
(577,686,l)
);
}
);
width = 1200;
},
{
anchors = (
{
name = bottom;
pos = (576,0);
},
{
name = top;
pos = (576,1400);
}
);
layerId = "19FA402B-9607-46D9-AAD6-815AECBA5B6B";
shapes = (
{
attr = {
fillColor = (0,255);
lineCapEnd = 2;
lineCapStart = 1;
strokeHeight = 120;
strokePos = 1;
strokeWidth = 120;
};
closed = 0;
nodes = (
(100,661,l),
(100,6,l)
);
},
{
attr = {
fillColor = (0,255);
lineCapEnd = 1;
lineCapStart = 1;
strokeHeight = 120;
strokePos = 1;
strokeWidth = 120;
};
closed = 0;
nodes = (
(160,1276,l),
(704,1276,ls),
(857,1276,o),
(981,1152,o),
(981,999,cs),
(981,845,o),
(857,721,o),
(704,721,cs),
(558,721,l)
);
}
);
width = 1176;
},
{
layerId = "FF87E3F2-B049-41CB-BF2F-09DB15105515";
shapes = (
{
attr = {
fillColor = (0,255);
lineCapEnd = "2";
lineCapStart = "1";
strokeHeight = 300;
strokePos = "1";
strokeWidth = 300;
};
closed = 0;
nodes = (
(150,661,l),
(150,15,l)
);
},
{
attr = {
fillColor = (0,255);
lineCapEnd = "1";
lineCapStart = "1";
strokeHeight = 300;
strokePos = "1";
strokeWidth = 300;
};
closed = 0;
nodes = (
(300,1100,l),
(811,1100,ls),
(916,1100,o),
(1000,1015,o),
(1000,911,cs),
(1000,806,o),
(916,722,o),
(811,722,cs),
(712,722,l)
);
}
);
width = 1423;
}
);
metricLeft = H;
unicode = (80,112);
},
{
color = 5;
glyphname = Thorn;
kernLeft = I;
kernRight = THORN;
lastChange = "2022-05-30 02:18:52 +0000";
layers = (
{
layerId = m01;
width = 1800;
},
{
layerId = "19FA402B-9607-46D9-AAD6-815AECBA5B6B";
shapes = (
{
attr = {
fillColor = (0,255);
lineCapEnd = "2";
lineCapStart = "1";
strokeHeight = 120;
strokeWidth = 120;
};
closed = 0;
nodes = (
(185,363,l),
(185,6,l)
);
},
{
attr = {
fillColor = (0,255);
lineCapEnd = "1";
lineCapStart = "1";
strokeHeight = 120;
strokePos = 1;
strokeWidth = 120;
};
closed = 0;
nodes = (
(525,978,l),
(683,978,ls),
(836,978,o),
(960,854,o),
(960,701,cs),
(960,547,o),
(836,423,o),
(683,423,cs),
(583,423,l)
);
},
{
attr = {
lineCapEnd = 1;
strokeHeight = 120;
strokeWidth = 120;
};
closed = 0;
nodes = (
(183,363,l),
(583,363,l)
);
},
{
attr = {
fillColor = (0,255);
lineCapEnd = "2";
lineCapStart = "1";
strokeHeight = 120;
strokeWidth = 120;
};
closed = 0;
nodes = (
(185,717,l),
(185,1394,l)
);
}
);
width = 1155;
},
{
layerId = "FF87E3F2-B049-41CB-BF2F-09DB15105515";
width = 1800;
}
);
metricLeft = H;
metricRight = P;
unicode = (222,254);
},
{
color = 4;
glyphname = Q;
kernLeft = O;
kernRight = O;
lastChange = "2022-05-30 05:25:57 +0000";
layers = (
{
layerId = m01;
shapes = (
{
attr = {
fillColor = (0,255);
lineCapEnd = "1";
lineCapStart = "2";
strokeHeight = 50;
strokeWidth = 50;
};
closed = 0;
nodes = (
(949,514,l),
(1438,25,l)
);
},
{
attr = {
lineCapEnd = "1";
lineCapStart = "1";
strokeHeight = 50;
strokePos = "0";
strokeWidth = 50;
};
closed = 0;
nodes = (
(1414,700,l),
(1414,1059,o),
(1123,1350,o),
(764,1350,cs),
(405,1350,o),
(114,1059,o),
(114,700,cs),
(114,341,o),
(405,50,o),
(764,50,c)
);
}
);
width = 1528;
},
{
anchors = (
{
name = bottom;
pos = (780,0);
},
{
name = top;
pos = (780,1400);
}
);
layerId = "19FA402B-9607-46D9-AAD6-815AECBA5B6B";
shapes = (
{
attr = {
fillColor = (0,255);
lineCapEnd = "1";
lineCapStart = "2";
strokeHeight = 120;
strokeWidth = 120;
};
closed = 0;
nodes = (
(965,514,l),
(1419,60,l)
);
},
{
attr = {
lineCapEnd = "1";
lineCapStart = "1";
strokeHeight = 120;
strokePos = "0";
strokeWidth = 120;
};
closed = 0;
nodes = (
(1360,700,l),
(1360,1021,o),
(1101,1280,o),
(780,1280,cs),
(459,1280,o),
(200,1021,o),
(200,700,cs),
(200,379,o),
(459,120,o),
(780,120,c)
);
}
);
width = 1560;
},
{
layerId = "FF87E3F2-B049-41CB-BF2F-09DB15105515";
shapes = (
{
attr = {
fillColor = (0,255);
lineCapEnd = "1";
lineCapStart = "2";
strokeHeight = 300;
strokeWidth = 300;
};
closed = 0;
nodes = (
(974,544,l),
(1367,151,l)
);
},
{
attr = {
lineCapEnd = "1";
lineCapStart = "1";
strokeHeight = 300;
strokePos = "0";
strokeWidth = 300;
};
closed = 0;
nodes = (
(1220,700,l),
(1220,921,o),
(1041,1100,o),
(820,1100,cs),
(599,1100,o),
(420,921,o),
(420,700,cs),
(420,479,o),
(599,300,o),
(820,300,c)
);
}
);
width = 1640;
}
);
metricLeft = O;
metricRight = O;
unicode = (81,113);
},
{
color = 4;
glyphname = R;
kernLeft = P;
kernRight = R;
lastChange = "2022-05-30 05:37:50 +0000";
layers = (
{
layerId = m01;
shapes = (
{
attr = {
fillColor = (0,255);
lineCapEnd = "2";
lineCapStart = "1";
strokeHeight = 50;
strokePos = "1";
strokeWidth = 50;
};
closed = 0;
nodes = (
(112,700,l),
(112,3,l)
);
},
{
attr = {
fillColor = (0,255);
lineCapEnd = "2";
lineCapStart = "1";
strokeHeight = 50;
strokeWidth = 50;
};
closed = 0;
nodes = (
(567,660,l),
(1065,6,l)
);
},
{
attr = {
fillColor = (0,255);
lineCapEnd = "1";
lineCapStart = "1";
strokeHeight = 50;
strokePos = "1";
strokeWidth = 50;
};
closed = 0;
nodes = (
(135,1350,l),
(653,1350,ls),
(836,1350,o),
(985,1202,o),
(985,1019,cs),
(985,835,o),
(836,686,o),
(653,686,cs),
(567,686,l)
);
}
);
width = 1136;
},
{
anchors = (
{
name = bottom;
pos = (579,0);
},
{
name = top;
pos = (579,1400);
}
);
layerId = "19FA402B-9607-46D9-AAD6-815AECBA5B6B";
shapes = (
{
attr = {
fillColor = (0,255);
lineCapEnd = 2;
lineCapStart = 1;
strokeHeight = 120;
strokePos = 1;
strokeWidth = 120;
};
closed = 0;
nodes = (
(116,661,l),
(116,6,l)
);
},
{
attr = {
fillColor = (0,255);
lineCapEnd = 2;
lineCapStart = 1;
strokeHeight = 120;
strokeWidth = 120;
};
closed = 0;
nodes = (
(573,658,l),
(1061,17,l)
);
},
{
attr = {
fillColor = (0,255);
lineCapEnd = "1";
lineCapStart = "1";
strokeHeight = 120;
strokePos = "1";
strokeWidth = 120;
};
closed = 0;
nodes = (
(160,1276,l),
(654,1276,ls),
(807,1276,o),
(931,1152,o),
(931,999,cs),
(931,845,o),
(807,721,o),
(654,721,cs),
(571,721,l)
);
}
);
width = 1158;
},
{
layerId = "FF87E3F2-B049-41CB-BF2F-09DB15105515";
shapes = (
{
attr = {
fillColor = (0,255);
lineCapEnd = "2";
lineCapStart = "1";
strokeHeight = 300;
strokePos = "1";
strokeWidth = 300;
};
closed = 0;
nodes = (
(150,661,l),
(150,15,l)
);
},
{
attr = {
fillColor = (0,255);
lineCapEnd = "2";
lineCapStart = "1";
strokeHeight = 300;
strokeWidth = 300;
};
closed = 0;
nodes = (
(712,568,l),
(1258,52,l)
);
},
{
attr = {
fillColor = (0,255);
lineCapEnd = "1";
lineCapStart = "1";
strokeHeight = 300;
strokePos = "1";
strokeWidth = 300;
};
closed = 0;
nodes = (
(300,1100,l),
(811,1100,ls),
(916,1100,o),
(1000,1015,o),
(1000,911,cs),
(1000,806,o),
(916,722,o),
(811,722,cs),
(712,722,l)
);
}
);
width = 1410;
}
);
metricLeft = H;
metricRight = K;
unicode = (82,114);
},
{
color = 4;
glyphname = S;
kernLeft = S;
kernRight = S;
lastChange = "2022-05-30 05:41:12 +0000";
layers = (
{
layerId = m01;
shapes = (
{
attr = {
fillColor = (0,255);
lineCapEnd = "1";
lineCapStart = "1";
strokeHeight = 50;
strokeWidth = 50;
};
closed = 0;
nodes = (
(435,700,l),
(652,700,l)
);
},
{
attr = {
fillColor = (0,255);
lineCapEnd = "1";
lineCapStart = "2";
strokeHeight = 50;
strokePos = 0;
strokeWidth = 50;
};
closed = 0;
nodes = (
(72,50,l),
(711,50,ls),
(852,50,o),
(966,164,o),
(966,305,c)
);
},
{
attr = {
fillColor = (0,255);
lineCapEnd = "1";
lineCapStart = "2";
strokeHeight = 50;
strokePos = "0";
strokeWidth = 50;
};
closed = 0;
nodes = (
(1015,1350,l),
(376,1350,ls),
(235,1350,o),
(121,1236,o),
(121,1095,c)
);
}
);
width = 1088;
},
{
anchors = (
{
name = bottom;
pos = (523,0);
},
{
name = top;
pos = (583,1400);
}
);
layerId = "19FA402B-9607-46D9-AAD6-815AECBA5B6B";
shapes = (
{
attr = {
fillColor = (0,255);
lineCapEnd = 1;
lineCapStart = 1;
strokeHeight = 120;
strokeWidth = 120;
};
closed = 0;
nodes = (
(475,700,l),
(692,700,l)
);
},
{
attr = {
fillColor = (0,255);
lineCapEnd = "1";
lineCapStart = "2";
strokeHeight = 120;
strokePos = "0";
strokeWidth = 120;
};
closed = 0;
nodes = (
(86,120,l),
(732,120,ls),
(858,120,o),
(960,222,o),
(960,348,c)
);
},
{
attr = {
fillColor = (0,255);
lineCapEnd = 1;
lineCapStart = 2;
strokeHeight = 120;
strokePos = 0;
strokeWidth = 120;
};
closed = 0;
nodes = (
(1080,1280,l),
(434,1280,ls),
(308,1280,o),
(206,1178,o),
(206,1052,c)
);
}
);
width = 1166;
},
{
layerId = "FF87E3F2-B049-41CB-BF2F-09DB15105515";
shapes = (
{
attr = {
fillColor = (0,255);
lineCapEnd = "1";
lineCapStart = "1";
strokeHeight = 300;
strokeWidth = 300;
};
closed = 0;
nodes = (
(562,700,l),
(671,700,l)
);
},
{
attr = {
fillColor = (0,255);
lineCapEnd = "1";
lineCapStart = "2";
strokeHeight = 300;
strokePos = "0";
strokeWidth = 300;
};
closed = 0;
nodes = (
(120,300,l),
(696,300,ls),
(794,300,o),
(873,379,o),
(873,476,c)
);
},
{
attr = {
fillColor = (0,255);
lineCapEnd = "1";
lineCapStart = "2";
strokeHeight = 300;
strokePos = "0";
strokeWidth = 300;
};
closed = 0;
nodes = (
(1113,1100,l),
(537,1100,ls),
(439,1100,o),
(360,1021,o),
(360,924,c)
);
}
);
width = 1233;
}
);
unicode = (83,115);
},
{
color = 5;
glyphname = Germandbls;
kernLeft = I;
kernRight = SZ;
lastChange = "2022-05-30 02:18:52 +0000";
layers = (
{
layerId = m01;
width = 3000;
},
{
layerId = "19FA402B-9607-46D9-AAD6-815AECBA5B6B";
shapes = (
{
attr = {
fillColor = (0,255);
identifier = ID0x60000ffc08c0;
lineCapEnd = "2";
strokeHeight = 120;
strokeWidth = 120;
};
closed = 0;
nodes = (
(185,1336,l),
(185,0,l)
);
},
{
attr = {
fillColor = (0,255);
identifier = ID0x60000ffc08c0;
lineCapEnd = "2";
lineCapStart = "1";
strokeHeight = 120;
strokeWidth = 120;
};
closed = 0;
nodes = (
(185,1340,l),
(1025,1340,ls)
);
},
{
attr = {
fillColor = (0,255);
identifier = ID0x60000ffc08c0;
lineCapEnd = "2";
lineCapStart = "2";
strokeHeight = 120;
strokeWidth = 120;
};
closed = 0;
nodes = (
(405,60,l),
(765,60,ls),
(942,60,o),
(1085,203,o),
(1085,380,cs),
(1085,557,o),
(942,700,o),
(765,700,cs),
(535,700,l)
);
},
{
attr = {
fillColor = (0,255);
identifier = ID0x60000ffc08c0;
lineCapEnd = "2";
lineCapStart = "1";
strokeHeight = 120;
strokeWidth = 120;
};
closed = 0;
nodes = (
(767,1044,l),
(997,1376,l)
);
}
);
width = 1208;
},
{
layerId = "FF87E3F2-B049-41CB-BF2F-09DB15105515";
width = 2400;
}
);
metricLeft = H;
metricRight = B;
unicode = (7838,223);
},
{
color = 4;
glyphname = T;
kernLeft = T;
kernRight = T;
lastChange = "2022-05-30 05:43:41 +0000";
layers = (
{
layerId = m01;
shapes = (
{
attr = {
fillColor = (0,255);
lineCapStart = "2";
strokeHeight = 50;
strokeWidth = 50;
};
closed = 0;
nodes = (
(611,3,l),
(611,1375,l)
);
},
{
attr = {
fillColor = (0,255);
lineCapEnd = "2";
lineCapStart = "2";
strokeHeight = 50;
strokePos = "1";
strokeWidth = 50;
};
closed = 0;
nodes = (
(633,1400,l),
(62,1400,l)
);
},
{
attr = {
fillColor = (0,255);
lineCapEnd = "2";
lineCapStart = "2";
strokeHeight = 50;
strokePos = "1";
strokeWidth = 50;
};
closed = 0;
nodes = (
(1160,1400,l),
(847,1400,l)
);
}
);
width = 1223;
},
{
anchors = (
{
name = bottom;
pos = (565,0);
},
{
name = center;
pos = (625,700);
},
{
name = top;
pos = (625,1400);
}
);
layerId = "19FA402B-9607-46D9-AAD6-815AECBA5B6B";
shapes = (
{
attr = {
fillColor = (0,255);
lineCapStart = 2;
strokeHeight = 120;
strokeWidth = 120;
};
closed = 0;
nodes = (
(625,6,l),
(625,1346,l)
);
},
{
attr = {
fillColor = (0,255);
lineCapEnd = 2;
lineCapStart = 2;
strokeHeight = 120;
strokePos = 1;
strokeWidth = 120;
};
closed = 0;
nodes = (
(679,1400,l),
(76,1400,l)
);
},
{
attr = {
fillColor = (0,255);
lineCapEnd = "2";
lineCapStart = "2";
strokeHeight = 120;
strokePos = "1";
strokeWidth = 120;
};
closed = 0;
nodes = (
(1174,1400,l),
(861,1400,l)
);
}
);
width = 1250;
},
{
layerId = "FF87E3F2-B049-41CB-BF2F-09DB15105515";
shapes = (
{
attr = {
fillColor = (0,255);
lineCapStart = "2";
strokeHeight = 300;
strokeWidth = 300;
};
closed = 0;
nodes = (
(684,6,l),
(684,1246,l)
);
},
{
attr = {
fillColor = (0,255);
lineCapEnd = "2";
lineCapStart = "2";
strokeHeight = 300;
strokePos = "1";
strokeWidth = 300;
};
closed = 0;
nodes = (
(819,1400,l),
(115,1400,l)
);
},
{
attr = {
fillColor = (0,255);
lineCapEnd = "2";
lineCapStart = "2";
strokeHeight = 300;
strokePos = "1";
strokeWidth = 300;
};
closed = 0;
nodes = (
(1253,1400,l),
(920,1400,l)
);
}
);
width = 1368;
}
);
metricLeft = A;
metricRight = A;
unicode = (84,116);
},
{
color = 4;
glyphname = U;
kernLeft = U;
kernRight = U;
lastChange = "2022-05-30 05:45:18 +0000";
layers = (
{
layerId = m01;
shapes = (
{
attr = {
fillColor = (0,255);
identifier = ID0x600002858380;
lineCapEnd = "1";
lineCapStart = "2";
strokeHeight = 50;
strokePos = 0;
strokeWidth = 50;
};
closed = 0;
nodes = (
(160,498,l),
(160,250,o),
(360,50,o),
(608,50,cs),
(855,50,o),
(1055,250,o),
(1055,498,cs),
(1055,1397,l)
);
},
{
attr = {
lineCapEnd = "1";
lineCapStart = "2";
strokeHeight = 50;
strokePos = "1";
strokeWidth = 50;
};
closed = 0;
nodes = (
(110,1397,l),
(110,899,l)
);
}
);
width = 1215;
},
{
anchors = (
{
name = bottom;
pos = (598,0);
},
{
name = ogonek;
pos = (1076,10);
},
{
name = top;
pos = (598,1400);
},
{
name = topright;
pos = (1176,1400);
}
);
layerId = "19FA402B-9607-46D9-AAD6-815AECBA5B6B";
shapes = (
{
attr = {
lineCapEnd = 2;
lineCapStart = 1;
strokePos = 0;
strokeWidth = 120;
};
closed = 0;
nodes = (
(221,498,l),
(221,289,o),
(390,120,o),
(599,120,cs),
(807,120,o),
(976,289,o),
(976,498,cs),
(976,1394,l)
);
},
{
attr = {
lineCapEnd = "1";
lineCapStart = 2;
strokeHeight = 120;
strokePos = "1";
strokeWidth = 120;
};
closed = 0;
nodes = (
(100,1394,l),
(100,899,l)
);
}
);
width = 1196;
},
{
layerId = "FF87E3F2-B049-41CB-BF2F-09DB15105515";
shapes = (
{
attr = {
lineCapEnd = "1";
lineCapStart = "1";
strokeHeight = 300;
strokePos = "0";
strokeWidth = 300;
};
closed = 0;
nodes = (
(450,558,l),
(450,417,o),
(565,303,o),
(706,303,cs),
(846,303,o),
(961,417,o),
(961,558,cs),
(961,1250,l)
);
},
{
attr = {
lineCapEnd = "1";
lineCapStart = "2";
strokeHeight = 300;
strokePos = "1";
strokeWidth = 300;
};
closed = 0;
nodes = (
(150,1385,l),
(150,999,l)
);
}
);
width = 1411;
}
);
metricLeft = H;
metricRight = H;
unicode = (85,117);
},
{
color = 4;
glyphname = V;
kernLeft = V;
kernRight = V;
lastChange = "2022-05-30 06:13:07 +0000";
layers = (
{
layerId = m01;
shapes = (
{
attr = {
fillColor = (0,255);
identifier = ID0x60000283dce0;
lineCapEnd = "2";
lineCapStart = "2";
strokeHeight = 50;
strokeWidth = 50;
};
closed = 0;
nodes = (
(76,1396,l),
(375,689,l)
);
},
{
attr = {
fillColor = (0,255);
identifier = ID0x60000283dce0;
lineCapEnd = "2";
lineCapStart = "2";
strokeHeight = 50;
strokeWidth = 50;
};
closed = 0;
nodes = (
(1276,1396,l),
(679,4,l)
);
}
);
width = 1352;
},
{
anchors = (
{
name = bottom;
pos = (706,0);
},
{
name = top;
pos = (706,1400);
}
);
layerId = "19FA402B-9607-46D9-AAD6-815AECBA5B6B";
shapes = (
{
attr = {
fillColor = (0,255);
lineCapEnd = "2";
lineCapStart = "2";
strokeHeight = 120;
strokeWidth = 120;
};
closed = 0;
nodes = (
(109,1390,l),
(405,689,l)
);
},
{
attr = {
fillColor = (0,255);
lineCapEnd = "2";
lineCapStart = "2";
strokeHeight = 120;
strokeWidth = 120;
};
closed = 0;
nodes = (
(1303,1390,l),
(712,10,l)
);
}
);
width = 1412;
},
{
layerId = "FF87E3F2-B049-41CB-BF2F-09DB15105515";
shapes = (
{
attr = {
fillColor = (0,255);
identifier = ID0x6000028b0380;
lineCapEnd = "2";
lineCapStart = "2";
strokeHeight = 300;
strokeWidth = 300;
};
closed = 0;
nodes = (
(193,1372,l),
(512,689,l)
);
},
{
attr = {
fillColor = (0,255);
identifier = ID0x6000028b0380;
lineCapEnd = "2";
lineCapStart = "2";
strokeHeight = 300;
strokeWidth = 300;
};
closed = 0;
nodes = (
(1373,1373,l),
(746,26,l)
);
}
);
width = 1566;
}
);
metricLeft = A;
metricRight = A;
unicode = (86,118);
},
{
color = 4;
glyphname = W;
kernLeft = W;
kernRight = W;
lastChange = "2022-05-30 06:34:44 +0000";
layers = (
{
layerId = m01;
shapes = (
{
attr = {
fillColor = (0,255);
lineCapEnd = "2";
lineCapStart = "2";
strokeHeight = 50;
strokeWidth = 50;
};
closed = 0;
nodes = (
(78,1396,l),
(301,689,l)
);
},
{
attr = {
fillColor = (0,255);
lineCapEnd = "2";
lineCapStart = "2";
strokeHeight = 50;
strokeWidth = 50;
};
closed = 0;
nodes = (
(961,1396,l),
(527,4,l)
);
},
{
attr = {
fillColor = (0,255);
lineCapEnd = "2";
lineCapStart = "2";
strokeHeight = 50;
strokeWidth = 50;
};
closed = 0;
nodes = (
(948,1397,l),
(1159,689,l)
);
},
{
attr = {
fillColor = (0,255);
lineCapEnd = "2";
lineCapStart = "2";
strokeHeight = 50;
strokeWidth = 50;
};
closed = 0;
nodes = (
(1830,1396,l),
(1386,4,l)
);
}
);
width = 1908;
},
{
anchors = (
{
name = bottom;
pos = (988,0);
},
{
name = top;
pos = (988,1400);
}
);
layerId = "19FA402B-9607-46D9-AAD6-815AECBA5B6B";
shapes = (
{
attr = {
fillColor = (0,255);
lineCapEnd = "2";
lineCapStart = "2";
strokeHeight = 120;
strokeWidth = 120;
};
closed = 0;
nodes = (
(114,1390,l),
(335,689,l)
);
},
{
attr = {
fillColor = (0,255);
lineCapEnd = "2";
lineCapStart = "2";
strokeHeight = 120;
strokeWidth = 120;
};
closed = 0;
nodes = (
(1004,1391,l),
(563,10,l)
);
},
{
attr = {
fillColor = (0,255);
lineCapEnd = "2";
lineCapStart = "2";
strokeHeight = 120;
strokeWidth = 120;
};
closed = 0;
nodes = (
(972,1390,l),
(1193,689,l)
);
},
{
attr = {
fillColor = (0,255);
lineCapEnd = "2";
lineCapStart = "2";
strokeHeight = 120;
strokeWidth = 120;
};
closed = 0;
nodes = (
(1862,1390,l),
(1422,10,l)
);
}
);
width = 1976;
},
{
layerId = "FF87E3F2-B049-41CB-BF2F-09DB15105515";
shapes = (
{
attr = {
fillColor = (0,255);
lineCapEnd = "2";
lineCapStart = "2";
strokeHeight = 300;
strokeWidth = 300;
};
closed = 0;
nodes = (
(210,1379,l),
(425,689,l)
);
},
{
attr = {
fillColor = (0,255);
lineCapEnd = "2";
lineCapStart = "2";
strokeHeight = 300;
strokeWidth = 300;
};
closed = 0;
nodes = (
(1088,1379,l),
(657,21,l)
);
},
{
attr = {
fillColor = (0,255);
lineCapEnd = "2";
lineCapStart = "2";
strokeHeight = 300;
strokeWidth = 300;
};
closed = 0;
nodes = (
(1009,1379,l),
(1254,593,l)
);
},
{
attr = {
fillColor = (0,255);
lineCapEnd = "2";
lineCapStart = "2";
strokeHeight = 300;
strokeWidth = 300;
};
closed = 0;
nodes = (
(1887,1379,l),
(1456,21,l)
);
}
);
width = 2096;
}
);
metricLeft = A;
metricRight = A;
unicode = (87,119);
},
{
color = 4;
glyphname = X;
kernLeft = X;
kernRight = X;
lastChange = "2022-05-30 06:16:00 +0000";
layers = (
{
layerId = m01;
shapes = (
{
attr = {
fillColor = (0,255);
lineCapEnd = "1";
lineCapStart = "2";
strokeHeight = 50;
strokeWidth = 50;
};
closed = 0;
nodes = (
(71,7,l),
(381,402,l)
);
},
{
attr = {
fillColor = (0,255);
lineCapEnd = "2";
lineCapStart = "2";
strokeHeight = 50;
strokeWidth = 50;
};
closed = 0;
nodes = (
(1160,7,l),
(71,1393,l)
);
},
{
attr = {
fillColor = (0,255);
lineCapEnd = "2";
lineCapStart = "1";
strokeHeight = 50;
strokeWidth = 50;
};
closed = 0;
nodes = (
(850,998,l),
(1159,1393,l)
);
}
);
width = 1231;
},
{
anchors = (
{
name = bottom;
pos = (635,0);
},
{
name = top;
pos = (635,1400);
}
);
layerId = "19FA402B-9607-46D9-AAD6-815AECBA5B6B";
shapes = (
{
attr = {
fillColor = (0,255);
lineCapEnd = 1;
lineCapStart = 2;
strokeHeight = 120;
strokeWidth = 120;
};
closed = 0;
nodes = (
(97,16,l),
(400,402,l)
);
},
{
attr = {
fillColor = (0,255);
lineCapEnd = 2;
lineCapStart = 2;
strokeHeight = 120;
strokeWidth = 120;
};
closed = 0;
nodes = (
(1170,18,l),
(99,1382,l)
);
},
{
attr = {
fillColor = (0,255);
lineCapEnd = 2;
lineCapStart = 1;
strokeHeight = 120;
strokeWidth = 120;
};
closed = 0;
nodes = (
(869,998,l),
(1170,1382,l)
);
}
);
width = 1267;
},
{
layerId = "FF87E3F2-B049-41CB-BF2F-09DB15105515";
shapes = (
{
attr = {
fillColor = (0,255);
lineCapEnd = "1";
lineCapStart = "2";
strokeHeight = 300;
strokeWidth = 300;
};
closed = 0;
nodes = (
(167,44,l),
(418,364,l)
);
},
{
attr = {
fillColor = (0,255);
lineCapEnd = "2";
lineCapStart = "2";
strokeHeight = 300;
strokeWidth = 300;
};
closed = 0;
nodes = (
(1194,44,l),
(171,1356,l)
);
},
{
attr = {
fillColor = (0,255);
lineCapEnd = 2;
lineCapStart = 1;
strokeHeight = 300;
strokeWidth = 300;
};
closed = 0;
nodes = (
(945,1036,l),
(1196,1356,l)
);
}
);
width = 1363;
}
);
metricLeft = A;
metricRight = A;
unicode = (88,120);
},
{
color = 4;
glyphname = Y;
kernLeft = Y;
kernRight = Y;
lastChange = "2022-05-30 06:19:16 +0000";
layers = (
{
layerId = m01;
shapes = (
{
attr = {
fillColor = (0,255);
lineCapEnd = "2";
lineCapStart = "2";
strokeHeight = 50;
strokeWidth = 50;
};
closed = 0;
nodes = (
(616,3,l),
(616,719,l)
);
},
{
attr = {
fillColor = (0,255);
lineCapEnd = "1";
lineCapStart = "2";
strokeHeight = 50;
strokeWidth = 50;
};
closed = 0;
nodes = (
(71,1393,l),
(381,998,l)
);
},
{
attr = {
fillColor = (0,255);
lineCapEnd = "2";
lineCapStart = "1";
strokeHeight = 50;
strokeWidth = 50;
};
closed = 0;
nodes = (
(616,699,l),
(1160,1393,l)
);
}
);
width = 1231;
},
{
anchors = (
{
name = bottom;
pos = (633,0);
},
{
name = top;
pos = (633,1400);
},
{
name = topleft;
pos = (19,1400);
}
);
layerId = "19FA402B-9607-46D9-AAD6-815AECBA5B6B";
shapes = (
{
attr = {
fillColor = (0,255);
lineCapEnd = "2";
lineCapStart = "2";
strokeHeight = 120;
strokeWidth = 120;
};
closed = 0;
nodes = (
(633,6,l),
(633,739,l)
);
},
{
attr = {
fillColor = (0,255);
lineCapEnd = "1";
lineCapStart = "2";
strokeHeight = 120;
strokeWidth = 120;
};
closed = 0;
nodes = (
(97,1382,l),
(398,998,l)
);
},
{
attr = {
fillColor = (0,255);
lineCapEnd = "2";
lineCapStart = "1";
strokeHeight = 120;
strokeWidth = 120;
};
closed = 0;
nodes = (
(633,699,l),
(1169,1383,l)
);
}
);
width = 1266;
},
{
layerId = "FF87E3F2-B049-41CB-BF2F-09DB15105515";
shapes = (
{
attr = {
fillColor = (0,255);
lineCapEnd = "2";
lineCapStart = "2";
strokeHeight = 300;
strokeWidth = 300;
};
closed = 0;
nodes = (
(682,15,l),
(682,829,l)
);
},
{
attr = {
fillColor = (0,255);
lineCapEnd = 1;
lineCapStart = 2;
strokeHeight = 300;
strokeWidth = 300;
};
closed = 0;
nodes = (
(167,1356,l),
(418,1036,l)
);
},
{
attr = {
fillColor = (0,255);
lineCapEnd = "2";
lineCapStart = "1";
strokeHeight = 300;
strokeWidth = 300;
};
closed = 0;
nodes = (
(682,699,l),
(1194,1356,l)
);
}
);
width = 1361;
}
);
metricLeft = A;
metricRight = A;
unicode = (89,121);
},
{
color = 4;
glyphname = Z;
kernLeft = Z;
kernRight = Z;
lastChange = "2022-05-30 06:18:38 +0000";
layers = (
{
layerId = m01;
shapes = (
{
attr = {
fillColor = (0,255);
lineCapEnd = "2";
lineCapStart = "2";
strokeHeight = 50;
strokePos = "1";
strokeWidth = 50;
};
closed = 0;
nodes = (
(62,4,l),
(1156,4,l)
);
},
{
attr = {
fillColor = (0,255);
lineCapEnd = "2";
lineCapStart = "2";
strokeHeight = 50;
strokeWidth = 50;
};
closed = 0;
nodes = (
(686,799,l),
(76,18,l)
);
},
{
attr = {
fillColor = (0,255);
lineCapEnd = "2";
lineCapStart = "2";
strokeHeight = 50;
strokePos = "0";
strokeWidth = 50;
};
closed = 0;
nodes = (
(62,1396,l),
(1156,1396,l)
);
}
);
width = 1219;
},
{
anchors = (
{
name = bottom;
pos = (623,0);
},
{
name = center;
pos = (623,700);
},
{
name = top;
pos = (623,1400);
}
);
layerId = "19FA402B-9607-46D9-AAD6-815AECBA5B6B";
shapes = (
{
attr = {
fillColor = (0,255);
lineCapEnd = 2;
lineCapStart = 2;
strokeHeight = 120;
strokePos = 1;
strokeWidth = 120;
};
closed = 0;
nodes = (
(76,4,l),
(1170,4,l)
);
},
{
attr = {
fillColor = (0,255);
lineCapEnd = 2;
lineCapStart = 2;
strokeHeight = 120;
strokeWidth = 120;
};
closed = 0;
nodes = (
(700,799,l),
(99,25,l)
);
},
{
attr = {
fillColor = (0,255);
lineCapEnd = 2;
lineCapStart = 2;
strokeHeight = 120;
strokePos = 0;
strokeWidth = 120;
};
closed = 0;
nodes = (
(76,1396,l),
(1170,1396,l)
);
}
);
width = 1246;
},
{
layerId = "FF87E3F2-B049-41CB-BF2F-09DB15105515";
shapes = (
{
attr = {
fillColor = (0,255);
lineCapEnd = "2";
lineCapStart = "2";
strokeHeight = 300;
strokePos = "1";
strokeWidth = 300;
};
closed = 0;
nodes = (
(117,4,l),
(1211,4,l)
);
},
{
attr = {
fillColor = (0,255);
lineCapEnd = "2";
lineCapStart = "2";
strokeHeight = 300;
strokeWidth = 300;
};
closed = 0;
nodes = (
(741,799,l),
(167,60,l)
);
},
{
attr = {
fillColor = (0,255);
lineCapEnd = "2";
lineCapStart = "2";
strokeHeight = 300;
strokePos = "0";
strokeWidth = 300;
};
closed = 0;
nodes = (
(117,1396,l),
(1211,1396,l)
);
}
);
width = 1326;
}
);
metricLeft = A;
metricRight = A;
unicode = (90,122);
},
{
color = 4;
glyphname = fi;
kernLeft = F;
kernRight = I;
lastChange = "2022-05-30 06:34:01 +0000";
layers = (
{
layerId = m01;
shapes = (
{
attr = {
fillColor = (0,255);
identifier = ID0x60000288b3a0;
lineCapEnd = 3;
lineCapStart = 1;
strokeHeight = 50;
strokeWidth = 50;
};
closed = 0;
nodes = (
(135,25,l),
(135,675,l)
);
},
{
attr = {
fillColor = (0,255);
identifier = ID0x60000288b3a0;
lineCapEnd = 2;
lineCapStart = 1;
strokeHeight = 50;
strokeWidth = 50;
};
closed = 0;
nodes = (
(135,700,l),
(861,700,l)
);
},
{
attr = {
fillColor = (0,255);
identifier = ID0x60000288b3a0;
lineCapEnd = "1";
strokeHeight = 50;
strokeWidth = 50;
};
closed = 0;
nodes = (
(1162,1375,l),
(135,1375,l)
);
},
{
attr = {
fillColor = (0,255);
identifier = ID0x600002888540;
lineCapEnd = "2";
lineCapStart = "1";
strokeHeight = 50;
strokeWidth = 50;
};
closed = 0;
nodes = (
(1161,500,l),
(1161,3,l)
);
},
{
attr = {
fillColor = (0,255);
identifier = ID0x600002888540;
lineCapEnd = "1";
lineCapStart = "2";
strokeHeight = 50;
strokeWidth = 50;
};
closed = 0;
nodes = (
(1161,1397,l),
(1161,900,l)
);
}
);
width = 1296;
},
{
anchors = (
{
name = bottom_1;
pos = (520,0);
},
{
name = bottom_2;
pos = (1199,0);
},
{
name = ogonek_2;
pos = (1199,0);
},
{
name = top_1;
pos = (540,1400);
},
{
name = top_2;
pos = (1199,1400);
},
{
name = topleft_2;
pos = (1059,1400);
}
);
layerId = "19FA402B-9607-46D9-AAD6-815AECBA5B6B";
shapes = (
{
attr = {
fillColor = (0,255);
identifier = ID0x600000ba8000;
lineCapEnd = "3";
lineCapStart = "1";
strokeHeight = 120;
strokeWidth = 120;
};
closed = 0;
nodes = (
(160,60,l),
(160,640,l)
);
},
{
attr = {
fillColor = (0,255);
identifier = ID0x600000ba8000;
lineCapEnd = "2";
lineCapStart = "1";
strokeHeight = 120;
strokeWidth = 120;
};
closed = 0;
nodes = (
(160,700,l),
(883,700,l)
);
},
{
attr = {
fillColor = (0,255);
identifier = ID0x600000ba8000;
lineCapEnd = "1";
lineCapStart = "2";
strokeHeight = 120;
strokeWidth = 120;
};
closed = 0;
nodes = (
(1243,1340,l),
(160,1340,l)
);
},
{
attr = {
fillColor = (0,255);
identifier = ID0x600000ba82a0;
lineCapEnd = 2;
lineCapStart = 1;
strokeHeight = 120;
strokeWidth = 120;
};
closed = 0;
nodes = (
(1199,500,l),
(1199,6,l)
);
},
{
attr = {
fillColor = (0,255);
identifier = ID0x600000ba82a0;
lineCapEnd = 1;
lineCapStart = 2;
strokeHeight = 120;
strokeWidth = 120;
};
closed = 0;
nodes = (
(1199,1394,l),
(1199,900,l)
);
}
);
width = 1359;
},
{
layerId = "FF87E3F2-B049-41CB-BF2F-09DB15105515";
shapes = (
{
attr = {
fillColor = (0,255);
identifier = ID0x60000288b020;
lineCapEnd = "3";
lineCapStart = "1";
strokeHeight = 300;
strokeWidth = 300;
};
closed = 0;
nodes = (
(300,150,l),
(300,560,l)
);
},
{
attr = {
fillColor = (0,255);
identifier = ID0x60000288b020;
lineCapEnd = "2";
lineCapStart = "1";
strokeHeight = 300;
strokeWidth = 300;
};
closed = 0;
nodes = (
(300,700,l),
(1023,700,l)
);
},
{
attr = {
fillColor = (0,255);
identifier = ID0x60000288b020;
lineCapEnd = "1";
strokeHeight = 300;
strokeWidth = 300;
};
closed = 0;
nodes = (
(1553,1250,l),
(300,1250,l)
);
},
{
attr = {
fillColor = (0,255);
identifier = ID0x600002fedb20;
lineCapEnd = "2";
lineCapStart = "1";
strokeHeight = 300;
strokeWidth = 300;
};
closed = 0;
nodes = (
(1558,440,l),
(1558,6,l)
);
},
{
attr = {
fillColor = (0,255);
identifier = ID0x600002fedb20;
lineCapEnd = "1";
lineCapStart = "2";
strokeHeight = 300;
strokeWidth = 300;
};
closed = 0;
nodes = (
(1558,1385,l),
(1558,960,l)
);
}
);
width = 1858;
}
);
metricLeft = F;
metricRight = I;
unicode = 64257;
},
{
color = 4;
glyphname = fl;
kernLeft = F;
kernRight = L;
lastChange = "2022-05-30 06:34:10 +0000";
layers = (
{
layerId = m01;
shapes = (
{
attr = {
fillColor = (0,255);
identifier = ID0x60000286c8c0;
lineCapEnd = 3;
lineCapStart = 1;
strokeHeight = 50;
strokeWidth = 50;
};
closed = 0;
nodes = (
(135,25,l),
(135,675,l)
);
},
{
attr = {
fillColor = (0,255);
identifier = ID0x60000286c8c0;
lineCapEnd = 2;
lineCapStart = 1;
strokeHeight = 50;
strokeWidth = 50;
};
closed = 0;
nodes = (
(135,700,l),
(861,700,l)
);
},
{
attr = {
fillColor = (0,255);
identifier = ID0x60000286c8c0;
lineCapEnd = "1";
strokeHeight = 50;
strokeWidth = 50;
};
closed = 0;
nodes = (
(1164,1375,l),
(135,1375,l)
);
},
{
attr = {
fillColor = (0,255);
identifier = ID0x60000288ff00;
lineCapEnd = "2";
lineCapStart = "2";
strokeHeight = 50;
strokePos = "1";
strokeWidth = 50;
};
closed = 0;
nodes = (
(1138,4,l),
(2153,4,l)
);
},
{
attr = {
fillColor = (0,255);
identifier = ID0x60000288ff00;
lineCapEnd = "1";
lineCapStart = "2";
strokeHeight = 50;
strokePos = "1";
strokeWidth = 50;
};
closed = 0;
nodes = (
(1138,1397,l),
(1138,402,l)
);
}
);
width = 2216;
},
{
anchors = (
{
name = bottom_1;
pos = (520,0);
},
{
name = bottom_2;
pos = (1633,0);
},
{
name = center_2;
pos = (1633,700);
},
{
name = top_1;
pos = (540,1400);
},
{
name = top_2;
pos = (1205,1400);
},
{
name = topright_2;
pos = (2206,1400);
}
);
layerId = "19FA402B-9607-46D9-AAD6-815AECBA5B6B";
shapes = (
{
attr = {
fillColor = (0,255);
identifier = ID0x600000ba80e0;
lineCapEnd = "3";
lineCapStart = "1";
strokeHeight = 120;
strokeWidth = 120;
};
closed = 0;
nodes = (
(160,60,l),
(160,640,l)
);
},
{
attr = {
fillColor = (0,255);
identifier = ID0x600000ba80e0;
lineCapEnd = "2";
lineCapStart = "1";
strokeHeight = 120;
strokeWidth = 120;
};
closed = 0;
nodes = (
(160,700,l),
(883,700,l)
);
},
{
attr = {
fillColor = (0,255);
identifier = ID0x600000ba80e0;
lineCapEnd = "1";
strokeHeight = 120;
strokeWidth = 120;
};
closed = 0;
nodes = (
(1204,1340,l),
(160,1340,l)
);
},
{
attr = {
fillColor = (0,255);
identifier = ID0x600000ba8460;
lineCapEnd = 2;
lineCapStart = 2;
strokeHeight = 120;
strokePos = 1;
strokeWidth = 120;
};
closed = 0;
nodes = (
(1145,4,l),
(2160,4,l)
);
},
{
attr = {
fillColor = (0,255);
identifier = ID0x600000ba8460;
lineCapEnd = 1;
lineCapStart = 2;
strokeHeight = 120;
strokePos = 1;
strokeWidth = 120;
};
closed = 0;
nodes = (
(1145,1394,l),
(1145,402,l)
);
}
);
width = 2236;
},
{
layerId = "FF87E3F2-B049-41CB-BF2F-09DB15105515";
shapes = (
{
attr = {
fillColor = (0,255);
identifier = ID0x60000288ed80;
lineCapEnd = "3";
lineCapStart = "1";
strokeHeight = 300;
strokeWidth = 300;
};
closed = 0;
nodes = (
(300,150,l),
(300,560,l)
);
},
{
attr = {
fillColor = (0,255);
identifier = ID0x60000288ed80;
lineCapEnd = "2";
lineCapStart = "1";
strokeHeight = 300;
strokeWidth = 300;
};
closed = 0;
nodes = (
(300,700,l),
(1023,700,l)
);
},
{
attr = {
fillColor = (0,255);
identifier = ID0x60000288ed80;
lineCapEnd = "1";
strokeHeight = 300;
strokeWidth = 300;
};
closed = 0;
nodes = (
(1573,1250,l),
(300,1250,l)
);
},
{
attr = {
fillColor = (0,255);
identifier = ID0x60000288d420;
lineCapEnd = "2";
lineCapStart = "2";
strokeHeight = 300;
strokePos = "1";
strokeWidth = 300;
};
closed = 0;
nodes = (
(1423,4,l),
(2438,4,l)
);
},
{
attr = {
fillColor = (0,255);
identifier = ID0x60000288d420;
lineCapEnd = "1";
lineCapStart = "2";
strokeHeight = 300;
strokePos = "1";
strokeWidth = 300;
};
closed = 0;
nodes = (
(1423,1385,l),
(1423,602,l)
);
}
);
width = 2553;
}
);
metricLeft = F;
metricRight = L;
unicode = 64258;
},
{
color = 8;
glyphname = ordfeminine;
lastChange = "2022-05-30 06:33:05 +0000";
layers = (
{
layerId = m01;
shapes = (
{
attr = {
fillColor = (0,255);
lineCapEnd = "2";
lineCapStart = "2";
strokeHeight = 50;
strokeWidth = 50;
};
closed = 0;
nodes = (
(196,1122,l),
(76,840,l)
);
},
{
attr = {
fillColor = (0,255);
lineCapEnd = "2";
lineCapStart = "2";
strokeHeight = 50;
strokeWidth = 50;
};
closed = 0;
nodes = (
(317,1396,l),
(556,840,l)
);
}
);
width = 632;
},
{
layerId = "19FA402B-9607-46D9-AAD6-815AECBA5B6B";
shapes = (
{
attr = {
fillColor = (0,255);
lineCapEnd = "2";
lineCapStart = "2";
strokeHeight = 120;
strokeWidth = 120;
};
closed = 0;
nodes = (
(228,1118,l),
(109,837,l)
);
},
{
attr = {
fillColor = (0,255);
lineCapEnd = "2";
lineCapStart = "2";
strokeHeight = 120;
strokeWidth = 120;
};
closed = 0;
nodes = (
(351,1390,l),
(588,837,l)
);
}
);
width = 697;
},
{
layerId = "FF87E3F2-B049-41CB-BF2F-09DB15105515";
shapes = (
{
attr = {
fillColor = (0,255);
identifier = ID0x60000289aa00;
lineCapEnd = "2";
lineCapStart = "2";
strokeHeight = 300;
strokeWidth = 300;
};
closed = 0;
nodes = (
(355,1023,l),
(193,673,l)
);
},
{
attr = {
fillColor = (0,255);
identifier = ID0x60000289aa00;
lineCapEnd = "2";
lineCapStart = "2";
strokeHeight = 300;
strokeWidth = 300;
};
closed = 0;
nodes = (
(440,1371,l),
(834,687,l)
);
}
);
width = 1017;
}
);
metricLeft = A;
metricRight = A;
unicode = 170;
},
{
color = 8;
glyphname = ordmasculine;
lastChange = "2022-05-30 06:33:29 +0000";
layers = (
{
layerId = m01;
shapes = (
{
closed = 1;
nodes = (
(186,1263,o),
(197,1274,o),
(197,1288,cs),
(197,1302,o),
(186,1313,o),
(172,1313,cs),
(158,1313,o),
(147,1302,o),
(147,1288,cs),
(147,1274,o),
(158,1263,o),
(172,1263,cs)
);
},
{
attr = {
lineCapEnd = "1";
lineCapStart = "1";
strokePos = "0";
strokeWidth = 50;
};
closed = 0;
nodes = (
(110,1090,l),
(110,946,o),
(226,830,o),
(370,830,cs),
(514,830,o),
(630,946,o),
(630,1090,cs),
(630,1234,o),
(514,1350,o),
(370,1350,c)
);
}
);
width = 740;
},
{
layerId = "19FA402B-9607-46D9-AAD6-815AECBA5B6B";
shapes = (
{
closed = 1;
nodes = (
(185,1259,o),
(212,1286,o),
(212,1318,cs),
(212,1351,o),
(185,1378,o),
(153,1378,cs),
(120,1378,o),
(93,1351,o),
(93,1318,cs),
(93,1286,o),
(120,1259,o),
(153,1259,cs)
);
},
{
attr = {
lineCapEnd = "1";
lineCapStart = "1";
strokeHeight = 120;
strokePos = 0;
strokeWidth = 120;
};
closed = 0;
nodes = (
(190,1119,l),
(190,1030,o),
(262,959,o),
(351,959,cs),
(440,959,o),
(511,1030,o),
(511,1119,cs),
(511,1208,o),
(440,1280,o),
(351,1280,c)
);
}
);
width = 701;
},
{
layerId = "FF87E3F2-B049-41CB-BF2F-09DB15105515";
shapes = (
{
closed = 1;
nodes = (
(265,1195,o),
(302,1230,o),
(302,1276,cs),
(302,1321,o),
(265,1358,o),
(221,1358,cs),
(176,1358,o),
(139,1321,o),
(139,1276,cs),
(139,1230,o),
(176,1195,o),
(221,1195,cs)
);
},
{
attr = {
lineCapEnd = "1";
lineCapStart = "1";
strokeHeight = 300;
strokePos = "0";
strokeWidth = 300;
};
closed = 0;
nodes = (
(400,1023,l),
(400,983,o),
(434,949,o),
(474,949,cs),
(514,949,o),
(548,983,o),
(548,1023,cs),
(548,1064,o),
(514,1097,o),
(474,1097,c)
);
}
);
width = 948;
}
);
metricLeft = A;
metricRight = A;
unicode = 186;
},
{
color = 4;
glyphname = Delta;
lastChange = "2022-05-30 06:36:36 +0000";
layers = (
{
layerId = m01;
shapes = (
{
attr = {
fillColor = (0,255);
lineCapEnd = "2";
lineCapStart = "2";
strokeHeight = 50;
strokePos = "1";
strokeWidth = 50;
};
closed = 0;
nodes = (
(62,0,l),
(1282,0,l)
);
},
{
attr = {
fillColor = (0,255);
lineCapEnd = "2";
strokeHeight = 50;
strokePos = "0";
strokeWidth = 50;
};
closed = 0;
nodes = (
(61,34,l),
(501,963,l)
);
},
{
attr = {
fillColor = (0,255);
lineCapEnd = "2";
lineCapStart = "2";
strokeHeight = 50;
strokeWidth = 50;
};
closed = 0;
nodes = (
(1134,339,l),
(664,1396,l)
);
}
);
width = 1345;
},
{
layerId = "19FA402B-9607-46D9-AAD6-815AECBA5B6B";
shapes = (
{
attr = {
fillColor = (0,255);
lineCapEnd = 2;
lineCapStart = 2;
strokeHeight = 120;
strokePos = 1;
strokeWidth = 120;
};
closed = 0;
nodes = (
(76,0,l),
(1296,0,l)
);
},
{
attr = {
fillColor = (0,255);
lineCapEnd = 2;
strokeHeight = 120;
strokePos = 0;
strokeWidth = 120;
};
closed = 0;
nodes = (
(74,82,l),
(490,963,l)
);
},
{
attr = {
fillColor = (0,255);
lineCapEnd = 2;
lineCapStart = 2;
strokeHeight = 120;
strokeWidth = 120;
};
closed = 0;
nodes = (
(1148,339,l),
(682,1388,l)
);
}
);
width = 1372;
},
{
layerId = "FF87E3F2-B049-41CB-BF2F-09DB15105515";
shapes = (
{
attr = {
fillColor = (0,255);
lineCapEnd = "2";
lineCapStart = "2";
strokeHeight = 300;
strokePos = "1";
strokeWidth = 300;
};
closed = 0;
nodes = (
(115,0,l),
(1335,0,l)
);
},
{
attr = {
fillColor = (0,255);
lineCapEnd = "2";
strokeHeight = 300;
strokePos = "0";
strokeWidth = 300;
};
closed = 0;
nodes = (
(111,207,l),
(468,963,l)
);
},
{
attr = {
fillColor = (0,255);
lineCapEnd = "2";
lineCapStart = "2";
strokeHeight = 300;
strokeWidth = 300;
};
closed = 0;
nodes = (
(1129,469,l),
(728,1373,l)
);
}
);
width = 1450;
}
);
metricLeft = A;
metricRight = A;
unicode = 916;
},
{
color = 4;
glyphname = Omega;
lastChange = "2022-05-30 06:38:36 +0000";
layers = (
{
layerId = m01;
shapes = (
{
attr = {
strokeHeight = 50;
strokePos = "0";
strokeWidth = 50;
};
closed = 1;
nodes = (
(854,463,o),
(1053,662,o),
(1053,907,cs),
(1053,1151,o),
(854,1350,o),
(610,1350,cs),
(365,1350,o),
(166,1151,o),
(166,907,cs),
(166,662,o),
(365,463,o),
(610,463,cs)
);
},
{
attr = {
fillColor = (0,255);
lineCapEnd = "2";
lineCapStart = "2";
strokeHeight = 50;
strokePos = "1";
strokeWidth = 50;
};
closed = 0;
nodes = (
(62,0,l),
(1156,0,l)
);
}
);
width = 1219;
},
{
layerId = "19FA402B-9607-46D9-AAD6-815AECBA5B6B";
shapes = (
{
attr = {
strokeHeight = 120;
strokePos = 0;
strokeWidth = 120;
};
closed = 1;
nodes = (
(844,481,o),
(1023,660,o),
(1023,881,cs),
(1023,1101,o),
(844,1280,o),
(624,1280,cs),
(403,1280,o),
(224,1101,o),
(224,881,cs),
(224,660,o),
(403,481,o),
(624,481,cs)
);
},
{
attr = {
fillColor = (0,255);
lineCapEnd = "2";
lineCapStart = "2";
strokeHeight = 120;
strokePos = "1";
strokeWidth = 120;
};
closed = 0;
nodes = (
(76,4,l),
(1170,4,l)
);
}
);
width = 1246;
},
{
layerId = "FF87E3F2-B049-41CB-BF2F-09DB15105515";
shapes = (
{
attr = {
strokeHeight = 300;
strokePos = "0";
strokeWidth = 300;
};
closed = 1;
nodes = (
(784,661,o),
(882,759,o),
(882,881,cs),
(882,1002,o),
(784,1100,o),
(663,1100,cs),
(541,1100,o),
(443,1002,o),
(443,881,cs),
(443,759,o),
(541,661,o),
(663,661,cs)
);
},
{
attr = {
fillColor = (0,255);
lineCapEnd = "2";
lineCapStart = "2";
strokeHeight = 300;
strokePos = "1";
strokeWidth = 300;
};
closed = 0;
nodes = (
(115,4,l),
(1209,4,l)
);
}
);
width = 1324;
}
);
metricLeft = A;
metricRight = A;
unicode = 937;
},
{
color = 4;
glyphname = pi;
lastChange = "2022-05-30 06:40:53 +0000";
layers = (
{
layerId = m01;
shapes = (
{
attr = {
fillColor = (0,255);
identifier = ID0x60000ffd02a0;
lineCapEnd = "2";
lineCapStart = "2";
strokeHeight = 50;
strokeWidth = 50;
};
closed = 0;
nodes = (
(302,645,l),
(302,3,l)
);
},
{
attr = {
identifier = ID0x60000ffd02a0;
lineCapEnd = "3";
lineCapStart = "1";
strokeHeight = 50;
strokePos = "0";
strokeWidth = 50;
};
closed = 0;
nodes = (
(85,1000,l),
(850,1000,l)
);
},
{
attr = {
lineCapEnd = "1";
lineCapStart = "1";
strokeHeight = 50;
strokePos = "0";
strokeWidth = 50;
};
closed = 0;
nodes = (
(895,975,l),
(895,220,ls),
(895,126,o),
(970,50,o),
(1064,50,c)
);
}
);
width = 1149;
},
{
layerId = "19FA402B-9607-46D9-AAD6-815AECBA5B6B";
shapes = (
{
attr = {
fillColor = (0,255);
identifier = ID0x60000ffd02a0;
lineCapEnd = "2";
lineCapStart = "2";
strokeHeight = 120;
strokeWidth = 120;
};
closed = 0;
nodes = (
(347,645,l),
(347,6,l)
);
},
{
attr = {
identifier = ID0x60000ffd02a0;
lineCapEnd = "3";
lineCapStart = "1";
strokeHeight = 120;
strokePos = 0;
strokeWidth = 120;
};
closed = 0;
nodes = (
(130,1000,l),
(826,1000,l)
);
},
{
attr = {
lineCapEnd = 1;
lineCapStart = 1;
strokeHeight = 120;
strokePos = 0;
strokeWidth = 120;
};
closed = 0;
nodes = (
(946,940,l),
(946,277,ls),
(946,190,o),
(1016,120,o),
(1103,120,c)
);
}
);
width = 1233;
},
{
layerId = "FF87E3F2-B049-41CB-BF2F-09DB15105515";
shapes = (
{
attr = {
fillColor = (0,255);
identifier = ID0x60000ffd02a0;
lineCapEnd = "2";
lineCapStart = "2";
strokeHeight = 300;
strokeWidth = 300;
};
closed = 0;
nodes = (
(467,545,l),
(467,15,l)
);
},
{
attr = {
identifier = ID0x60000ffd02a0;
lineCapEnd = "3";
lineCapStart = "1";
strokeHeight = 300;
strokePos = "0";
strokeWidth = 300;
};
closed = 0;
nodes = (
(250,1000,l),
(779,1000,l)
);
},
{
attr = {
lineCapEnd = "1";
lineCapStart = "1";
strokeHeight = 300;
strokePos = "0";
strokeWidth = 300;
};
closed = 0;
nodes = (
(1085,850,l),
(1085,418,ls),
(1085,353,o),
(1138,300,o),
(1204,300,c)
);
}
);
width = 1454;
}
);
metricLeft = A;
metricRight = A;
unicode = 960;
},
{
color = 1;
glyphname = zero;
lastChange = "2022-05-30 02:18:52 +0000";
layers = (
{
layerId = m01;
width = 600;
},
{
layerId = "19FA402B-9607-46D9-AAD6-815AECBA5B6B";
shapes = (
{
attr = {
lineCapEnd = "1";
lineCapStart = "1";
strokeHeight = 120;
strokePos = "0";
strokeWidth = 120;
};
closed = 0;
nodes = (
(220,352,l),
(220,226,o),
(322,124,o),
(448,124,cs),
(574,124,o),
(676,226,o),
(676,352,cs),
(676,601,l)
);
},
{
attr = {
fillColor = (0,255);
lineCapEnd = 1;
lineCapStart = 1;
strokeHeight = 120;
strokeWidth = 120;
};
closed = 0;
nodes = (
(299,601,l),
(597,799,l)
);
},
{
attr = {
lineCapEnd = 1;
lineCapStart = 1;
strokeHeight = 120;
strokePos = 0;
strokeWidth = 120;
};
closed = 0;
nodes = (
(676,1048,l),
(676,1174,o),
(574,1276,o),
(448,1276,cs),
(322,1276,o),
(220,1174,o),
(220,1048,cs),
(220,799,l)
);
}
);
width = 896;
},
{
layerId = "FF87E3F2-B049-41CB-BF2F-09DB15105515";
width = 600;
}
);
unicode = 48;
},
{
color = 1;
glyphname = one;
lastChange = "2022-05-30 02:18:52 +0000";
layers = (
{
layerId = m01;
width = 600;
},
{
layerId = "19FA402B-9607-46D9-AAD6-815AECBA5B6B";
shapes = (
{
attr = {
fillColor = (0,255);
lineCapEnd = "2";
lineCapStart = "1";
strokeHeight = 120;
strokeWidth = 120;
};
closed = 0;
nodes = (
(528,440,l),
(528,6,l)
);
},
{
attr = {
fillColor = (0,255);
lineCapEnd = 1;
lineCapStart = 1;
strokeHeight = 120;
strokeWidth = 120;
};
closed = 0;
nodes = (
(231,1138,l),
(528,1342,l)
);
},
{
attr = {
fillColor = (0,255);
lineCapEnd = "1";
lineCapStart = "2";
strokeHeight = 120;
strokeWidth = 120;
};
closed = 0;
nodes = (
(528,1394,l),
(528,840,l)
);
}
);
width = 896;
},
{
layerId = "FF87E3F2-B049-41CB-BF2F-09DB15105515";
width = 600;
}
);
unicode = 49;
},
{
color = 1;
glyphname = two;
lastChange = "2022-05-30 02:41:50 +0000";
layers = (
{
layerId = m01;
width = 600;
},
{
layerId = "19FA402B-9607-46D9-AAD6-815AECBA5B6B";
shapes = (
{
attr = {
fillColor = (0,255);
lineCapEnd = 2;
lineCapStart = 2;
strokeHeight = 120;
strokePos = 0;
strokeWidth = 120;
};
closed = 0;
nodes = (
(790,0,l),
(106,0,l)
);
},
{
attr = {
fillColor = (0,255);
lineCapEnd = "2";
lineCapStart = "1";
strokeHeight = 120;
strokeWidth = 120;
};
closed = 0;
nodes = (
(497,501,l),
(121,20,l)
);
},
{
attr = {
lineCapEnd = "1";
lineCapStart = "1";
strokeHeight = 120;
strokePos = 0;
strokeWidth = 120;
};
closed = 0;
nodes = (
(678,1046,l),
(678,1173,o),
(575,1276,o),
(448,1276,cs),
(321,1276,o),
(218,1173,o),
(218,1046,c)
);
}
);
width = 896;
},
{
layerId = "FF87E3F2-B049-41CB-BF2F-09DB15105515";
width = 600;
}
);
unicode = 50;
},
{
color = 1;
glyphname = three;
lastChange = "2022-05-30 02:41:50 +0000";
layers = (
{
layerId = m01;
width = 600;
},
{
layerId = "19FA402B-9607-46D9-AAD6-815AECBA5B6B";
shapes = (
{
attr = {
lineCapEnd = "1";
lineCapStart = "1";
strokeHeight = 120;
strokePos = "0";
strokeWidth = 120;
};
closed = 0;
nodes = (
(218,354,l),
(218,227,o),
(321,124,o),
(448,124,cs),
(575,124,o),
(678,227,o),
(678,354,c)
);
},
{
attr = {
lineCapEnd = 1;
lineCapStart = 1;
strokeHeight = 120;
strokePos = 0;
strokeWidth = 120;
};
closed = 0;
nodes = (
(450,820,l),
(577,820,o),
(680,923,o),
(680,1050,cs),
(680,1177,o),
(577,1280,o),
(450,1280,cs),
(323,1280,o),
(220,1177,o),
(220,1050,c)
);
}
);
width = 896;
},
{
layerId = "FF87E3F2-B049-41CB-BF2F-09DB15105515";
width = 600;
}
);
unicode = 51;
},
{
color = 1;
glyphname = four;
lastChange = "2022-05-30 02:18:52 +0000";
layers = (
{
layerId = m01;
width = 600;
},
{
layerId = "19FA402B-9607-46D9-AAD6-815AECBA5B6B";
shapes = (
{
attr = {
fillColor = (0,255);
lineCapEnd = "1";
lineCapStart = "2";
strokeHeight = 120;
strokeWidth = 120;
};
closed = 0;
nodes = (
(86,400,l),
(475,400,l)
);
},
{
attr = {
fillColor = (0,255);
lineCapEnd = "1";
lineCapStart = "2";
strokeHeight = 120;
strokeWidth = 120;
};
closed = 0;
nodes = (
(735,0,l),
(735,1000,l)
);
},
{
attr = {
fillColor = (0,255);
lineCapEnd = "1";
lineCapStart = "2";
strokeHeight = 120;
strokeWidth = 120;
};
closed = 0;
nodes = (
(570,1389,l),
(125,400,l)
);
}
);
width = 896;
},
{
layerId = "FF87E3F2-B049-41CB-BF2F-09DB15105515";
width = 600;
}
);
unicode = 52;
},
{
color = 1;
glyphname = five;
lastChange = "2022-05-30 02:41:50 +0000";
layers = (
{
layerId = m01;
width = 600;
},
{
layerId = "19FA402B-9607-46D9-AAD6-815AECBA5B6B";
shapes = (
{
attr = {
lineCapEnd = "1";
lineCapStart = "1";
strokeHeight = 120;
strokePos = "0";
strokeWidth = 120;
};
closed = 0;
nodes = (
(218,354,l),
(218,227,o),
(321,124,o),
(448,124,cs),
(575,124,o),
(678,227,o),
(678,354,cs),
(678,454,ls),
(678,581,o),
(575,684,o),
(448,684,c)
);
},
{
attr = {
fillColor = (0,255);
lineCapEnd = "1";
strokeHeight = 120;
strokePos = 1;
strokeWidth = 120;
};
closed = 0;
nodes = (
(101,1338,l),
(101,930,l)
);
},
{
attr = {
fillColor = (0,255);
lineCapEnd = 2;
lineCapStart = "2";
strokeHeight = 120;
strokePos = 1;
strokeWidth = 120;
};
closed = 0;
nodes = (
(807,1400,l),
(107,1400,l)
);
}
);
width = 896;
},
{
layerId = "FF87E3F2-B049-41CB-BF2F-09DB15105515";
width = 600;
}
);
unicode = 53;
},
{
color = 1;
glyphname = six;
lastChange = "2022-05-30 02:18:52 +0000";
layers = (
{
layerId = m01;
width = 600;
},
{
layerId = "19FA402B-9607-46D9-AAD6-815AECBA5B6B";
shapes = (
{
attr = {
strokeHeight = 120;
strokePos = "0";
strokeWidth = 120;
};
closed = 1;
nodes = (
(573,120,o),
(676,223,o),
(676,350,cs),
(676,477,o),
(573,580,o),
(446,580,cs),
(319,580,o),
(216,477,o),
(216,350,cs),
(216,223,o),
(319,120,o),
(446,120,cs)
);
},
{
attr = {
fillColor = (0,255);
lineCapEnd = 2;
lineCapStart = 1;
strokeHeight = 120;
strokeWidth = 120;
};
closed = 0;
nodes = (
(356,910,l),
(606,1386,l)
);
}
);
width = 896;
},
{
layerId = "FF87E3F2-B049-41CB-BF2F-09DB15105515";
width = 600;
}
);
unicode = 54;
},
{
color = 1;
glyphname = seven;
lastChange = "2022-05-30 02:18:52 +0000";
layers = (
{
layerId = m01;
width = 600;
},
{
layerId = "19FA402B-9607-46D9-AAD6-815AECBA5B6B";
shapes = (
{
attr = {
fillColor = (0,255);
lineCapEnd = 2;
lineCapStart = 2;
strokeHeight = 120;
strokeWidth = 120;
};
closed = 0;
nodes = (
(761,1391,l),
(264,9,l)
);
},
{
attr = {
fillColor = (0,255);
lineCapEnd = 2;
lineCapStart = 2;
strokeHeight = 120;
strokePos = 0;
strokeWidth = 120;
};
closed = 0;
nodes = (
(111,1400,l),
(491,1400,l)
);
}
);
width = 896;
},
{
layerId = "FF87E3F2-B049-41CB-BF2F-09DB15105515";
width = 600;
}
);
unicode = 55;
},
{
color = 1;
glyphname = eight;
lastChange = "2022-05-30 02:41:50 +0000";
layers = (
{
layerId = m01;
width = 600;
},
{
layerId = "19FA402B-9607-46D9-AAD6-815AECBA5B6B";
shapes = (
{
attr = {
lineCapEnd = "1";
lineCapStart = "1";
strokeHeight = 120;
strokePos = "0";
strokeWidth = 120;
};
closed = 0;
nodes = (
(448,120,l),
(575,120,o),
(678,223,o),
(678,350,c)
);
},
{
attr = {
lineCapEnd = "1";
lineCapStart = "1";
strokeHeight = 120;
strokeWidth = 120;
};
closed = 0;
nodes = (
(156,409,l),
(156,569,o),
(286,699,o),
(446,699,cs),
(606,699,o),
(736,829,o),
(736,989,c)
);
},
{
attr = {
lineCapEnd = "1";
lineCapStart = "1";
strokeHeight = 120;
strokePos = "0";
strokeWidth = 120;
};
closed = 0;
nodes = (
(448,1280,l),
(321,1280,o),
(218,1177,o),
(218,1050,c)
);
}
);
width = 896;
},
{
layerId = "FF87E3F2-B049-41CB-BF2F-09DB15105515";
width = 600;
}
);
unicode = 56;
},
{
color = 1;
glyphname = nine;
lastChange = "2022-05-30 02:41:49 +0000";
layers = (
{
layerId = m01;
width = 600;
},
{
layerId = "19FA402B-9607-46D9-AAD6-815AECBA5B6B";
shapes = (
{
attr = {
strokeHeight = 120;
strokePos = "0";
strokeWidth = 120;
};
closed = 1;
nodes = (
(577,820,o),
(680,923,o),
(680,1050,cs),
(680,1177,o),
(577,1280,o),
(450,1280,cs),
(323,1280,o),
(220,1177,o),
(220,1050,cs),
(220,923,o),
(323,820,o),
(450,820,cs)
);
},
{
attr = {
fillColor = (0,255);
lineCapEnd = "2";
lineCapStart = "1";
strokeHeight = 120;
strokeWidth = 120;
};
closed = 0;
nodes = (
(540,490,l),
(290,14,l)
);
}
);
width = 896;
},
{
layerId = "FF87E3F2-B049-41CB-BF2F-09DB15105515";
width = 600;
}
);
unicode = 57;
},
{
color = 2;
glyphname = fraction;
lastChange = "2022-05-30 02:18:52 +0000";
layers = (
{
layerId = m01;
width = 600;
},
{
layerId = "19FA402B-9607-46D9-AAD6-815AECBA5B6B";
shapes = (
{
attr = {
lineCapEnd = "2";
lineCapStart = "2";
strokeHeight = 120;
strokeWidth = 120;
};
closed = 0;
nodes = (
(-405,19,l),
(751,1381,l)
);
}
);
width = 346;
},
{
layerId = "FF87E3F2-B049-41CB-BF2F-09DB15105515";
width = 600;
}
);
unicode = 8260;
},
{
color = 2;
glyphname = zerosuperior;
lastChange = "2022-05-30 02:18:52 +0000";
layers = (
{
layerId = m01;
width = 600;
},
{
layerId = "19FA402B-9607-46D9-AAD6-815AECBA5B6B";
shapes = (
{
attr = {
identifier = ID0x6000024447e0;
lineCapEnd = "1";
lineCapStart = "1";
strokeHeight = 100;
strokePos = "0";
strokeWidth = 100;
};
closed = 0;
nodes = (
(156,838,l),
(156,775,o),
(207,724,o),
(270,724,cs),
(333,724,o),
(384,775,o),
(384,838,cs),
(384,903,l)
);
},
{
attr = {
fillColor = (0,255);
identifier = ID0x6000024447e0;
lineCapEnd = 1;
lineCapStart = 1;
strokeHeight = 100;
strokeWidth = 100;
};
closed = 0;
nodes = (
(196,963,l),
(345,1062,l)
);
},
{
attr = {
identifier = ID0x6000024447e0;
lineCapEnd = 1;
lineCapStart = 1;
strokeHeight = 100;
strokePos = 0;
strokeWidth = 100;
};
closed = 0;
nodes = (
(384,1186,l),
(384,1249,o),
(333,1300,o),
(270,1300,cs),
(207,1300,o),
(156,1249,o),
(156,1186,cs),
(156,1122,l)
);
}
);
width = 540;
},
{
layerId = "FF87E3F2-B049-41CB-BF2F-09DB15105515";
shapes = (
{
ref = zero;
}
);
width = 600;
}
);
unicode = 8304;
},
{
color = 2;
glyphname = onesuperior;
lastChange = "2022-05-30 02:18:52 +0000";
layers = (
{
layerId = m01;
width = 600;
},
{
layerId = "19FA402B-9607-46D9-AAD6-815AECBA5B6B";
shapes = (
{
attr = {
fillColor = (0,255);
identifier = ID0x60000241c7e0;
lineCapEnd = "2";
lineCapStart = "1";
strokeHeight = 100;
strokeWidth = 100;
};
closed = 0;
nodes = (
(304,902,l),
(304,629,l)
);
},
{
attr = {
fillColor = (0,255);
identifier = ID0x60000241c7e0;
lineCapEnd = "1";
lineCapStart = "1";
strokeHeight = 100;
strokeWidth = 100;
};
closed = 0;
nodes = (
(156,1248,l),
(304,1350,l)
);
},
{
attr = {
fillColor = (0,255);
identifier = ID0x60000241c7e0;
lineCapEnd = "1";
lineCapStart = "2";
strokeHeight = 100;
strokeWidth = 100;
};
closed = 0;
nodes = (
(304,1395,l),
(304,1102,l)
);
}
);
width = 540;
},
{
layerId = "FF87E3F2-B049-41CB-BF2F-09DB15105515";
width = 600;
}
);
unicode = 185;
},
{
color = 2;
glyphname = twosuperior;
lastChange = "2022-05-30 02:18:52 +0000";
layers = (
{
layerId = m01;
width = 600;
},
{
layerId = "19FA402B-9607-46D9-AAD6-815AECBA5B6B";
shapes = (
{
attr = {
fillColor = (0,255);
identifier = ID0x600002450b60;
lineCapEnd = "2";
lineCapStart = "2";
strokeHeight = 100;
strokePos = "0";
strokeWidth = 100;
};
closed = 0;
nodes = (
(478,624,l),
(56,624,l)
);
},
{
attr = {
fillColor = (0,255);
identifier = ID0x600002450b60;
lineCapEnd = "2";
lineCapStart = "1";
strokeHeight = 100;
strokeWidth = 100;
};
closed = 0;
nodes = (
(262,882,l),
(74,641,l)
);
},
{
attr = {
identifier = ID0x600002450b60;
lineCapEnd = "1";
lineCapStart = "1";
strokeHeight = 100;
strokePos = 0;
strokeWidth = 100;
};
closed = 0;
nodes = (
(381,1185,l),
(381,1248,o),
(329,1300,o),
(266,1300,cs),
(203,1300,o),
(151,1248,o),
(151,1185,c)
);
}
);
width = 540;
},
{
layerId = "FF87E3F2-B049-41CB-BF2F-09DB15105515";
width = 600;
}
);
unicode = 178;
},
{
color = 2;
glyphname = threesuperior;
lastChange = "2022-05-30 02:41:50 +0000";
layers = (
{
layerId = m01;
width = 600;
},
{
layerId = "19FA402B-9607-46D9-AAD6-815AECBA5B6B";
shapes = (
{
attr = {
identifier = ID0x600002422840;
lineCapEnd = "1";
lineCapStart = "1";
strokeHeight = 100;
strokePos = "0";
strokeWidth = 100;
};
closed = 0;
nodes = (
(152,841,l),
(152,778,o),
(204,726,o),
(267,726,cs),
(331,726,o),
(382,778,o),
(382,841,c)
);
},
{
attr = {
identifier = ID0x600002422840;
lineCapEnd = 1;
lineCapStart = 1;
strokeHeight = 100;
strokePos = 0;
strokeWidth = 100;
};
closed = 0;
nodes = (
(268,1074,l),
(331,1074,o),
(383,1126,o),
(383,1189,cs),
(383,1252,o),
(331,1304,o),
(268,1304,cs),
(205,1304,o),
(153,1252,o),
(153,1189,c)
);
}
);
width = 540;
},
{
layerId = "FF87E3F2-B049-41CB-BF2F-09DB15105515";
width = 600;
}
);
unicode = 179;
},
{
color = 2;
glyphname = foursuperior;
lastChange = "2022-05-30 02:18:52 +0000";
layers = (
{
layerId = m01;
width = 600;
},
{
layerId = "19FA402B-9607-46D9-AAD6-815AECBA5B6B";
shapes = (
{
attr = {
fillColor = (0,255);
identifier = ID0x6000024448c0;
lineCapEnd = "1";
lineCapStart = 4;
strokeHeight = 100;
strokeWidth = 100;
};
closed = 0;
nodes = (
(107,829,l),
(268,829,l)
);
},
{
attr = {
fillColor = (0,255);
identifier = ID0x6000024448c0;
lineCapEnd = "1";
lineCapStart = "2";
strokeHeight = 100;
strokeWidth = 100;
};
closed = 0;
nodes = (
(418,629,l),
(418,1069,l)
);
},
{
attr = {
fillColor = (0,255);
identifier = ID0x6000024448c0;
lineCapEnd = "1";
lineCapStart = "2";
strokeHeight = 100;
strokeWidth = 100;
};
closed = 0;
nodes = (
(345,1390,l),
(103,829,l)
);
}
);
width = 540;
},
{
layerId = "FF87E3F2-B049-41CB-BF2F-09DB15105515";
shapes = (
{
ref = four;
}
);
width = 600;
}
);
unicode = 8308;
},
{
color = 2;
glyphname = fivesuperior;
lastChange = "2022-05-30 02:41:50 +0000";
layers = (
{
layerId = m01;
width = 600;
},
{
layerId = "19FA402B-9607-46D9-AAD6-815AECBA5B6B";
shapes = (
{
attr = {
identifier = ID0x600002441f80;
lineCapEnd = "1";
lineCapStart = "1";
strokeHeight = 100;
strokePos = "0";
strokeWidth = 100;
};
closed = 0;
nodes = (
(159,841,l),
(159,778,o),
(211,726,o),
(274,726,cs),
(338,726,o),
(389,778,o),
(389,841,cs),
(389,891,ls),
(389,955,o),
(338,1006,o),
(274,1006,c)
);
},
{
attr = {
fillColor = (0,255);
identifier = ID0x600002441f80;
lineCapEnd = "1";
strokeHeight = 100;
strokePos = 1;
strokeWidth = 100;
};
closed = 0;
nodes = (
(59,1353,l),
(59,1129,l)
);
},
{
attr = {
fillColor = (0,255);
identifier = ID0x600002441f80;
lineCapEnd = 2;
lineCapStart = "2";
strokeHeight = 100;
strokePos = 1;
strokeWidth = 100;
};
closed = 0;
nodes = (
(484,1400,l),
(64,1400,l)
);
}
);
width = 540;
},
{
layerId = "FF87E3F2-B049-41CB-BF2F-09DB15105515";
shapes = (
{
ref = five;
}
);
width = 600;
}
);
unicode = 8309;
},
{
color = 2;
glyphname = sixsuperior;
lastChange = "2022-05-30 02:18:52 +0000";
layers = (
{
layerId = m01;
width = 600;
},
{
layerId = "19FA402B-9607-46D9-AAD6-815AECBA5B6B";
shapes = (
{
attr = {
identifier = ID0x600002441ce0;
strokeHeight = 100;
strokePos = "0";
strokeWidth = 100;
};
closed = 1;
nodes = (
(331,723,o),
(382,775,o),
(382,838,cs),
(382,902,o),
(331,953,o),
(267,953,cs),
(204,953,o),
(152,902,o),
(152,838,cs),
(152,775,o),
(204,723,o),
(267,723,cs)
);
},
{
attr = {
fillColor = (0,255);
identifier = ID0x600002441ce0;
lineCapEnd = 2;
lineCapStart = 1;
strokeHeight = 100;
strokeWidth = 100;
};
closed = 0;
nodes = (
(222,1152,l),
(347,1390,l)
);
}
);
width = 540;
},
{
layerId = "FF87E3F2-B049-41CB-BF2F-09DB15105515";
shapes = (
{
ref = six;
}
);
width = 600;
}
);
unicode = 8310;
},
{
color = 2;
glyphname = sevensuperior;
lastChange = "2022-05-30 02:18:52 +0000";
layers = (
{
layerId = m01;
width = 600;
},
{
layerId = "19FA402B-9607-46D9-AAD6-815AECBA5B6B";
shapes = (
{
attr = {
fillColor = (0,255);
identifier = ID0x600002442f40;
lineCapEnd = "2";
lineCapStart = "2";
strokeHeight = 100;
strokeWidth = 100;
};
closed = 0;
nodes = (
(438,1391,l),
(184,629,l)
);
},
{
attr = {
fillColor = (0,255);
identifier = ID0x600002442f40;
lineCapEnd = "2";
lineCapStart = "2";
strokeHeight = 100;
strokePos = "0";
strokeWidth = 100;
};
closed = 0;
nodes = (
(83,1400,l),
(283,1400,l)
);
}
);
width = 540;
},
{
layerId = "FF87E3F2-B049-41CB-BF2F-09DB15105515";
shapes = (
{
ref = seven;
}
);
width = 600;
}
);
unicode = 8311;
},
{
color = 2;
glyphname = eightsuperior;
lastChange = "2022-05-30 02:41:50 +0000";
layers = (
{
layerId = m01;
width = 600;
},
{
layerId = "19FA402B-9607-46D9-AAD6-815AECBA5B6B";
shapes = (
{
attr = {
identifier = ID0x6000024431e0;
lineCapEnd = "1";
lineCapStart = 2;
strokeHeight = 100;
strokePos = "0";
strokeWidth = 100;
};
closed = 0;
nodes = (
(250,724,l),
(314,724,o),
(365,776,o),
(365,839,c)
);
},
{
attr = {
identifier = ID0x6000024431e0;
lineCapEnd = "1";
lineCapStart = 2;
strokeHeight = 100;
strokePos = "0";
strokeWidth = 100;
};
closed = 0;
nodes = (
(250,724,l),
(314,724,o),
(365,776,o),
(365,839,c)
);
},
{
attr = {
identifier = ID0x6000024431e0;
lineCapEnd = "1";
lineCapStart = "1";
strokeHeight = 100;
strokeWidth = 100;
};
closed = 0;
nodes = (
(125,869,l),
(125,949,o),
(190,1014,o),
(270,1014,cs),
(350,1014,o),
(415,1079,o),
(415,1159,c)
);
},
{
attr = {
identifier = ID0x6000024431e0;
lineCapEnd = "1";
lineCapStart = 2;
strokeHeight = 100;
strokePos = "0";
strokeWidth = 100;
};
closed = 0;
nodes = (
(290,1304,l),
(226,1304,o),
(175,1252,o),
(175,1189,c)
);
}
);
width = 540;
},
{
layerId = "FF87E3F2-B049-41CB-BF2F-09DB15105515";
shapes = (
{
ref = eight;
}
);
width = 600;
}
);
unicode = 8312;
},
{
color = 2;
glyphname = ninesuperior;
lastChange = "2022-05-30 02:41:49 +0000";
layers = (
{
layerId = m01;
width = 600;
},
{
layerId = "19FA402B-9607-46D9-AAD6-815AECBA5B6B";
shapes = (
{
attr = {
identifier = ID0x600002441ce0;
strokeHeight = 100;
strokePos = "0";
strokeWidth = 100;
};
closed = 1;
nodes = (
(336,1070,o),
(388,1121,o),
(388,1185,cs),
(388,1248,o),
(336,1300,o),
(273,1300,cs),
(209,1300,o),
(158,1248,o),
(158,1185,cs),
(158,1121,o),
(209,1070,o),
(273,1070,cs)
);
},
{
attr = {
fillColor = (0,255);
identifier = ID0x600002441ce0;
lineCapEnd = "2";
lineCapStart = "1";
strokeHeight = 100;
strokeWidth = 100;
};
closed = 0;
nodes = (
(318,871,l),
(193,633,l)
);
}
);
width = 540;
},
{
layerId = "FF87E3F2-B049-41CB-BF2F-09DB15105515";
shapes = (
{
ref = nine;
}
);
width = 600;
}
);
unicode = 8313;
},
{
color = 11;
glyphname = .notdef;
lastChange = "2022-05-30 06:48:22 +0000";
layers = (
{
layerId = m01;
shapes = (
{
attr = {
fillColor = (0,255);
lineCapEnd = "2";
lineCapStart = "2";
strokeHeight = 50;
strokeWidth = 50;
};
closed = 0;
nodes = (
(594,530,l),
(73,9,l)
);
},
{
attr = {
lineCapEnd = "1";
lineCapStart = "1";
strokeHeight = 50;
strokePos = "0";
strokeWidth = 50;
};
closed = 0;
nodes = (
(517,99,l),
(670,36,o),
(847,32,o),
(1012,100,c)
);
},
{
attr = {
lineCapEnd = "1";
lineCapStart = "1";
strokeHeight = 50;
strokePos = "0";
strokeWidth = 50;
};
closed = 0;
nodes = (
(164,948,l),
(101,795,o),
(97,618,o),
(165,453,c)
);
},
{
attr = {
fillColor = (0,255);
lineCapEnd = "1";
lineCapStart = "2";
strokeHeight = 50;
strokeWidth = 50;
};
closed = 0;
nodes = (
(73,1391,l),
(1439,25,l)
);
},
{
attr = {
lineCapEnd = "1";
lineCapStart = "1";
strokeHeight = 50;
strokePos = "0";
strokeWidth = 50;
};
closed = 0;
nodes = (
(1012,1300,l),
(847,1368,o),
(670,1364,o),
(517,1301,c)
);
},
{
attr = {
lineCapEnd = "1";
lineCapStart = "1";
strokeHeight = 50;
strokePos = "1";
strokeWidth = 50;
};
closed = 0;
nodes = (
(1365,948,l),
(1428,795,o),
(1432,618,o),
(1364,453,c)
);
},
{
attr = {
fillColor = (0,255);
lineCapEnd = "1";
lineCapStart = "2";
strokeHeight = 50;
strokeWidth = 50;
};
closed = 0;
nodes = (
(1456,1391,l),
(935,870,l)
);
}
);
width = 1529;
},
{
layerId = "19FA402B-9607-46D9-AAD6-815AECBA5B6B";
shapes = (
{
attr = {
fillColor = (0,255);
lineCapEnd = 2;
lineCapStart = "2";
strokeHeight = 120;
strokeWidth = 120;
};
closed = 0;
nodes = (
(610,530,l),
(102,22,l)
);
},
{
attr = {
lineCapEnd = 1;
lineCapStart = 1;
strokeHeight = 120;
strokePos = "0";
strokeWidth = 120;
};
closed = 0;
nodes = (
(559,163,l),
(696,107,o),
(854,103,o),
(1002,164,c)
);
},
{
attr = {
lineCapEnd = 1;
lineCapStart = 1;
strokeHeight = 120;
strokePos = "0";
strokeWidth = 120;
};
closed = 0;
nodes = (
(244,922,l),
(188,785,o),
(184,627,o),
(245,479,c)
);
},
{
attr = {
fillColor = (0,255);
lineCapEnd = "1";
lineCapStart = "2";
strokeHeight = 120;
strokeWidth = 120;
};
closed = 0;
nodes = (
(102,1378,l),
(1420,60,l)
);
},
{
attr = {
lineCapEnd = 1;
lineCapStart = 1;
strokeHeight = 120;
strokePos = "0";
strokeWidth = 120;
};
closed = 0;
nodes = (
(1002,1236,l),
(854,1297,o),
(696,1293,o),
(559,1237,c)
);
},
{
attr = {
lineCapEnd = 1;
lineCapStart = 1;
strokeHeight = 120;
strokePos = 1;
strokeWidth = 120;
};
closed = 0;
nodes = (
(1317,922,l),
(1373,785,o),
(1377,627,o),
(1316,479,c)
);
},
{
attr = {
fillColor = (0,255);
lineCapEnd = "1";
lineCapStart = "2";
strokeHeight = 120;
strokeWidth = 120;
};
closed = 0;
nodes = (
(1459,1378,l),
(951,870,l)
);
}
);
width = 1561;
},
{
layerId = "FF87E3F2-B049-41CB-BF2F-09DB15105515";
shapes = (
{
attr = {
fillColor = (0,255);
lineCapEnd = "2";
lineCapStart = "2";
strokeHeight = 300;
strokeWidth = 300;
};
closed = 0;
nodes = (
(620,500,l),
(177,57,l)
);
},
{
attr = {
lineCapEnd = "1";
lineCapStart = "1";
strokeHeight = 300;
strokePos = "0";
strokeWidth = 300;
};
closed = 0;
nodes = (
(774,304,l),
(806,300,o),
(838,300,o),
(868,304,c)
);
},
{
attr = {
lineCapEnd = "1";
lineCapStart = "1";
strokeHeight = 300;
strokePos = 0;
strokeWidth = 300;
};
closed = 0;
nodes = (
(424,747,l),
(420,715,o),
(420,683,o),
(424,653,c)
);
},
{
attr = {
fillColor = (0,255);
lineCapEnd = "1";
lineCapStart = "2";
strokeHeight = 300;
strokeWidth = 300;
};
closed = 0;
nodes = (
(175,1345,l),
(1370,150,l)
);
},
{
attr = {
lineCapEnd = "1";
lineCapStart = "1";
strokeHeight = 300;
strokePos = "0";
strokeWidth = 300;
};
closed = 0;
nodes = (
(868,1096,l),
(838,1100,o),
(806,1100,o),
(774,1096,c)
);
},
{
attr = {
lineCapEnd = "1";
lineCapStart = "1";
strokeHeight = 300;
strokePos = 1;
strokeWidth = 300;
};
closed = 0;
nodes = (
(1217,747,l),
(1221,715,o),
(1221,683,o),
(1217,653,c)
);
},
{
attr = {
fillColor = (0,255);
lineCapEnd = "2";
lineCapStart = "2";
strokeHeight = 300;
strokeWidth = 300;
};
closed = 0;
nodes = (
(1464,1343,l),
(1021,900,l)
);
},
{
attr = {
lineCapEnd = "1";
strokeHeight = 300;
strokePos = "0";
strokeWidth = 300;
};
closed = 0;
nodes = (
(868,303,l)
);
}
);
width = 1640;
}
);
metricLeft = O;
metricRight = O;
},
{
color = 9;
glyphname = period;
kernLeft = PERIOD;
kernRight = PERIOD;
lastChange = "2022-05-30 02:18:52 +0000";
layers = (
{
layerId = m01;
width = 600;
},
{
layerId = "19FA402B-9607-46D9-AAD6-815AECBA5B6B";
shapes = (
{
closed = 1;
nodes = (
(216,0,o),
(250,34,o),
(250,75,cs),
(250,116,o),
(216,150,o),
(175,150,cs),
(134,150,o),
(100,116,o),
(100,75,cs),
(100,34,o),
(134,0,o),
(175,0,cs)
);
}
);
width = 350;
},
{
layerId = "FF87E3F2-B049-41CB-BF2F-09DB15105515";
width = 600;
}
);
unicode = 46;
},
{
color = 9;
glyphname = comma;
kernLeft = COMMA;
kernRight = COMMA;
lastChange = "2022-05-30 02:18:52 +0000";
layers = (
{
layerId = m01;
width = 600;
},
{
layerId = "19FA402B-9607-46D9-AAD6-815AECBA5B6B";
shapes = (
{
attr = {
lineCapEnd = 2;
lineCapStart = 2;
strokeHeight = 120;
strokeWidth = 120;
};
closed = 0;
nodes = (
(253,218,l),
(146,-185,l)
);
}
);
width = 399;
},
{
layerId = "FF87E3F2-B049-41CB-BF2F-09DB15105515";
width = 600;
}
);
metricLeft = period;
metricRight = period;
unicode = 44;
},
{
color = 9;
glyphname = colon;
kernLeft = COLON;
kernRight = COLON;
lastChange = "2022-05-30 02:18:52 +0000";
layers = (
{
layerId = m01;
width = 600;
},
{
layerId = "19FA402B-9607-46D9-AAD6-815AECBA5B6B";
shapes = (
{
closed = 1;
nodes = (
(216,945,o),
(250,979,o),
(250,1020,cs),
(250,1061,o),
(216,1095,o),
(175,1095,cs),
(134,1095,o),
(100,1061,o),
(100,1020,cs),
(100,979,o),
(134,945,o),
(175,945,cs)
);
},
{
closed = 1;
nodes = (
(216,305,o),
(250,339,o),
(250,380,cs),
(250,421,o),
(216,455,o),
(175,455,cs),
(134,455,o),
(100,421,o),
(100,380,cs),
(100,339,o),
(134,305,o),
(175,305,cs)
);
}
);
width = 350;
},
{
layerId = "FF87E3F2-B049-41CB-BF2F-09DB15105515";
width = 600;
}
);
metricLeft = period;
metricRight = period;
unicode = 58;
},
{
color = 9;
glyphname = semicolon;
kernLeft = SEMICOLON;
kernRight = SEMICOLON;
lastChange = "2022-05-30 02:18:52 +0000";
layers = (
{
layerId = m01;
width = 600;
},
{
layerId = "19FA402B-9607-46D9-AAD6-815AECBA5B6B";
shapes = (
{
closed = 1;
nodes = (
(280,731,o),
(314,765,o),
(314,806,cs),
(314,847,o),
(280,881,o),
(239,881,cs),
(198,881,o),
(164,847,o),
(164,806,cs),
(164,765,o),
(198,731,o),
(239,731,cs)
);
},
{
attr = {
lineCapEnd = "2";
lineCapStart = "2";
strokeHeight = 120;
strokeWidth = 120;
};
closed = 0;
nodes = (
(253,218,l),
(146,-185,l)
);
}
);
width = 414;
},
{
layerId = "FF87E3F2-B049-41CB-BF2F-09DB15105515";
width = 600;
}
);
metricLeft = period;
metricRight = period;
unicode = 59;
},
{
color = 9;
glyphname = exclam;
lastChange = "2022-05-30 06:48:52 +0000";
layers = (
{
layerId = m01;
width = 1400;
},
{
layerId = "19FA402B-9607-46D9-AAD6-815AECBA5B6B";
shapes = (
{
closed = 1;
nodes = (
(216,0,o),
(250,34,o),
(250,75,cs),
(250,116,o),
(216,150,o),
(175,150,cs),
(134,150,o),
(100,116,o),
(100,75,cs),
(100,34,o),
(134,0,o),
(175,0,cs)
);
},
{
attr = {
fillColor = (0,255);
lineCapEnd = "2";
lineCapStart = "2";
strokeHeight = 120;
strokeWidth = 120;
};
closed = 0;
nodes = (
(175,359,l),
(175,1394,l)
);
}
);
width = 350;
},
{
layerId = "FF87E3F2-B049-41CB-BF2F-09DB15105515";
width = 1200;
}
);
metricLeft = I;
metricRight = I;
unicode = 33;
},
{
color = 9;
glyphname = question;
lastChange = "2022-05-30 06:48:52 +0000";
layers = (
{
layerId = m01;
width = 600;
},
{
layerId = "19FA402B-9607-46D9-AAD6-815AECBA5B6B";
shapes = (
{
closed = 1;
nodes = (
(442,0,o),
(476,34,o),
(476,75,cs),
(476,116,o),
(442,150,o),
(401,150,cs),
(360,150,o),
(326,116,o),
(326,75,cs),
(326,34,o),
(360,0,o),
(401,0,cs)
);
},
{
attr = {
fillColor = (0,255);
lineCapEnd = 2;
lineCapStart = 2;
strokeHeight = 120;
strokeWidth = 120;
};
closed = 0;
nodes = (
(401,299,l),
(401,638,l)
);
},
{
attr = {
lineCapEnd = 1;
lineCapStart = 1;
strokeHeight = 120;
strokePos = "0";
strokeWidth = 120;
};
closed = 0;
nodes = (
(600,799,l),
(711,909,o),
(711,1087,o),
(600,1198,cs),
(490,1308,o),
(312,1308,o),
(202,1198,c)
);
}
);
width = 903;
},
{
layerId = "FF87E3F2-B049-41CB-BF2F-09DB15105515";
width = 600;
}
);
metricLeft = asterisk;
metricRight = asterisk;
unicode = 63;
},
{
color = 9;
glyphname = asterisk;
lastChange = "2022-05-30 06:48:52 +0000";
layers = (
{
layerId = m01;
width = 1400;
},
{
layerId = "19FA402B-9607-46D9-AAD6-815AECBA5B6B";
shapes = (
{
closed = 1;
nodes = (
(639,1151,o),
(666,1178,o),
(666,1211,cs),
(666,1244,o),
(639,1271,o),
(606,1271,cs),
(573,1271,o),
(546,1244,o),
(546,1211,cs),
(546,1178,o),
(573,1151,o),
(606,1151,cs)
);
},
{
closed = 1;
nodes = (
(193,893,o),
(220,920,o),
(220,953,cs),
(220,986,o),
(193,1013,o),
(160,1013,cs),
(127,1013,o),
(100,986,o),
(100,953,cs),
(100,920,o),
(127,893,o),
(160,893,cs)
);
},
{
closed = 1;
nodes = (
(415,765,o),
(442,792,o),
(442,825,cs),
(442,858,o),
(415,885,o),
(382,885,cs),
(349,885,o),
(322,858,o),
(322,825,cs),
(322,792,o),
(349,765,o),
(382,765,cs)
);
},
{
attr = {
fillColor = (0,255);
lineCapEnd = "2";
lineCapStart = "2";
strokeHeight = 120;
strokeWidth = 120;
};
closed = 0;
nodes = (
(653,926,l),
(113,1238,l)
);
},
{
closed = 1;
nodes = (
(416,1280,o),
(443,1307,o),
(443,1340,cs),
(443,1373,o),
(416,1400,o),
(383,1400,cs),
(350,1400,o),
(323,1373,o),
(323,1340,cs),
(323,1307,o),
(350,1280,o),
(383,1280,cs)
);
}
);
width = 766;
},
{
layerId = "FF87E3F2-B049-41CB-BF2F-09DB15105515";
width = 1200;
}
);
metricLeft = I;
metricRight = I;
unicode = 42;
},
{
color = 9;
glyphname = numbersign;
lastChange = "2022-05-30 05:21:14 +0000";
layers = (
{
layerId = m01;
width = 600;
},
{
layerId = "19FA402B-9607-46D9-AAD6-815AECBA5B6B";
shapes = (
{
closed = 1;
nodes = (
(1078,893,o),
(1105,920,o),
(1105,953,cs),
(1105,986,o),
(1078,1013,o),
(1045,1013,cs),
(1012,1013,o),
(985,986,o),
(985,953,cs),
(985,920,o),
(1012,893,o),
(1045,893,cs)
);
},
{
closed = 1;
nodes = (
(193,387,o),
(220,414,o),
(220,447,cs),
(220,480,o),
(193,507,o),
(160,507,cs),
(127,507,o),
(100,480,o),
(100,447,cs),
(100,414,o),
(127,387,o),
(160,387,cs)
);
},
{
attr = {
lineCapEnd = "2";
lineCapStart = "2";
strokeHeight = 120;
strokeWidth = 120;
};
closed = 0;
nodes = (
(395,1394,l),
(395,6,l)
);
},
{
closed = 1;
nodes = (
(193,893,o),
(220,920,o),
(220,953,cs),
(220,986,o),
(193,1013,o),
(160,1013,cs),
(127,1013,o),
(100,986,o),
(100,953,cs),
(100,920,o),
(127,893,o),
(160,893,cs)
);
},
{
closed = 1;
nodes = (
(1078,387,o),
(1105,414,o),
(1105,447,cs),
(1105,480,o),
(1078,507,o),
(1045,507,cs),
(1012,507,o),
(985,480,o),
(985,447,cs),
(985,414,o),
(1012,387,o),
(1045,387,cs)
);
},
{
attr = {
lineCapEnd = "2";
lineCapStart = "2";
strokeHeight = 120;
strokeWidth = 120;
};
closed = 0;
nodes = (
(811,1394,l),
(811,6,l)
);
}
);
width = 1205;
},
{
layerId = "FF87E3F2-B049-41CB-BF2F-09DB15105515";
width = 600;
}
);
metricLeft = asterisk;
metricRight = asterisk;
unicode = 35;
},
{
color = 9;
glyphname = slash;
lastChange = "2022-05-30 05:21:14 +0000";
layers = (
{
layerId = m01;
width = 600;
},
{
layerId = "19FA402B-9607-46D9-AAD6-815AECBA5B6B";
shapes = (
{
attr = {
lineCapEnd = "2";
lineCapStart = "2";
strokeHeight = 120;
strokeWidth = 120;
};
closed = 0;
nodes = (
(143,10,l),
(599,1390,l)
);
}
);
width = 742;
},
{
layerId = "FF87E3F2-B049-41CB-BF2F-09DB15105515";
width = 600;
}
);
metricLeft = asterisk;
metricRight = asterisk;
unicode = 47;
},
{
color = 9;
glyphname = hyphen;
kernLeft = HYPHEN;
lastChange = "2022-05-30 05:21:14 +0000";
layers = (
{
layerId = m01;
width = 600;
},
{
layerId = "19FA402B-9607-46D9-AAD6-815AECBA5B6B";
shapes = (
{
attr = {
fillColor = (0,255);
lineCapEnd = "2";
lineCapStart = "2";
strokeHeight = 120;
strokeWidth = 120;
};
closed = 0;
nodes = (
(106,700,l),
(555,700,l)
);
}
);
width = 661;
},
{
layerId = "FF87E3F2-B049-41CB-BF2F-09DB15105515";
width = 600;
}
);
metricLeft = asterisk;
metricRight = asterisk;
unicode = 45;
},
{
color = 9;
glyphname = emdash;
kernLeft = HYPHEN;
lastChange = "2022-05-30 05:21:14 +0000";
layers = (
{
layerId = m01;
width = 600;
},
{
layerId = "19FA402B-9607-46D9-AAD6-815AECBA5B6B";
shapes = (
{
attr = {
fillColor = (0,255);
lineCapEnd = "2";
lineCapStart = "2";
strokeHeight = 120;
strokeWidth = 120;
};
closed = 0;
nodes = (
(106,700,l),
(1426,700,l)
);
}
);
width = 1532;
},
{
layerId = "FF87E3F2-B049-41CB-BF2F-09DB15105515";
width = 600;
}
);
metricLeft = asterisk;
metricRight = asterisk;
unicode = 8212;
},
{
color = 9;
glyphname = underscore;
lastChange = "2022-05-30 05:21:14 +0000";
layers = (
{
layerId = m01;
width = 600;
},
{
layerId = "19FA402B-9607-46D9-AAD6-815AECBA5B6B";
shapes = (
{
attr = {
fillColor = (0,255);
lineCapEnd = "2";
lineCapStart = "2";
strokeHeight = 120;
strokePos = 0;
strokeWidth = 120;
};
closed = 0;
nodes = (
(106,0,l),
(1201,0,l)
);
}
);
width = 1307;
},
{
layerId = "FF87E3F2-B049-41CB-BF2F-09DB15105515";
width = 600;
}
);
metricLeft = asterisk;
metricRight = asterisk;
unicode = 95;
},
{
color = 9;
glyphname = parenleft;
lastChange = "2022-05-30 06:48:52 +0000";
layers = (
{
layerId = m01;
width = 856;
},
{
layerId = "19FA402B-9607-46D9-AAD6-815AECBA5B6B";
shapes = (
{
attr = {
lineCapEnd = 2;
lineCapStart = 2;
strokeHeight = 100;
strokePos = 0;
strokeWidth = 100;
};
closed = 0;
nodes = (
(361,1336,l),
(121,1140,o),
(121,260,o),
(361,64,c)
);
}
);
width = 447;
},
{
layerId = "FF87E3F2-B049-41CB-BF2F-09DB15105515";
width = 800;
}
);
metricLeft = O;
metricRight = asterisk;
unicode = 40;
},
{
color = 9;
glyphname = braceleft;
lastChange = "2022-05-30 05:21:14 +0000";
layers = (
{
layerId = m01;
width = 600;
},
{
layerId = "19FA402B-9607-46D9-AAD6-815AECBA5B6B";
shapes = (
{
closed = 1;
nodes = (
(193,640,o),
(220,667,o),
(220,700,cs),
(220,733,o),
(193,760,o),
(160,760,cs),
(127,760,o),
(100,733,o),
(100,700,cs),
(100,667,o),
(127,640,o),
(160,640,cs)
);
},
{
attr = {
lineCapEnd = "1";
lineCapStart = "1";
strokeHeight = 120;
strokePos = "0";
strokeWidth = 120;
};
closed = 0;
nodes = (
(366,522,l),
(366,293,ls),
(366,198,o),
(443,120,o),
(540,120,c)
);
},
{
attr = {
lineCapEnd = 1;
lineCapStart = 1;
strokeHeight = 120;
strokePos = 0;
strokeWidth = 120;
};
closed = 0;
nodes = (
(540,1280,l),
(443,1280,o),
(366,1202,o),
(366,1107,cs),
(366,878,l)
);
}
);
width = 700;
},
{
layerId = "FF87E3F2-B049-41CB-BF2F-09DB15105515";
width = 600;
}
);
metricLeft = asterisk;
metricRight = asterisk;
unicode = 123;
},
{
color = 9;
glyphname = bracketleft;
lastChange = "2022-05-30 05:21:14 +0000";
layers = (
{
layerId = m01;
width = 600;
},
{
layerId = "19FA402B-9607-46D9-AAD6-815AECBA5B6B";
shapes = (
{
attr = {
fillColor = (0,255);
identifier = ID0x60000ffd4000;
lineCapEnd = "1";
lineCapStart = "1";
strokeHeight = 120;
strokePos = "1";
strokeWidth = 120;
};
closed = 0;
nodes = (
(160,0,l),
(455,0,l)
);
},
{
attr = {
fillColor = (0,255);
identifier = ID0x60000ffd4000;
lineCapEnd = "2";
lineCapStart = "2";
strokeHeight = 120;
strokeWidth = 120;
};
closed = 0;
nodes = (
(160,1084,l),
(160,6,l)
);
},
{
attr = {
fillColor = (0,255);
identifier = ID0x60000ffd4000;
lineCapEnd = "1";
lineCapStart = "1";
strokeHeight = 120;
strokePos = 0;
strokeWidth = 120;
};
closed = 0;
nodes = (
(160,1400,l),
(455,1400,l)
);
}
);
width = 615;
},
{
layerId = "FF87E3F2-B049-41CB-BF2F-09DB15105515";
width = 600;
}
);
metricLeft = period;
metricRight = asterisk;
unicode = 91;
},
{
color = 9;
glyphname = guilsinglleft;
lastChange = "2022-05-30 05:21:14 +0000";
layers = (
{
layerId = m01;
width = 600;
},
{
layerId = "19FA402B-9607-46D9-AAD6-815AECBA5B6B";
shapes = (
{
attr = {
fillColor = (0,255);
identifier = ID0x600000bfa920;
lineCapEnd = "2";
lineCapStart = "2";
strokeHeight = 120;
strokeWidth = 120;
};
closed = 0;
nodes = (
(278,556,l),
(589,293,l)
);
},
{
attr = {
fillColor = (0,255);
identifier = ID0x600000bfa920;
lineCapEnd = "2";
lineCapStart = "2";
strokeHeight = 120;
strokeWidth = 120;
};
closed = 0;
nodes = (
(119,703,l),
(589,1107,l)
);
}
);
width = 708;
},
{
layerId = "FF87E3F2-B049-41CB-BF2F-09DB15105515";
width = 600;
}
);
metricLeft = asterisk;
metricRight = asterisk;
unicode = 8249;
},
{
color = 9;
glyphname = quotesingle;
kernLeft = QUOTE;
kernRight = QUOTE;
lastChange = "2022-05-30 05:21:14 +0000";
layers = (
{
layerId = m01;
width = 600;
},
{
layerId = "19FA402B-9607-46D9-AAD6-815AECBA5B6B";
shapes = (
{
attr = {
fillColor = (0,255);
lineCapEnd = "2";
lineCapStart = "2";
strokeHeight = 120;
strokeWidth = 120;
};
closed = 0;
nodes = (
(160,1171,l),
(160,1594,l)
);
}
);
width = 320;
},
{
layerId = "FF87E3F2-B049-41CB-BF2F-09DB15105515";
width = 600;
}
);
metricLeft = asterisk;
metricRight = asterisk;
unicode = 39;
},
{
color = 8;
glyphname = florin;
lastChange = "2022-05-30 05:21:14 +0000";
layers = (
{
layerId = m01;
width = 600;
},
{
layerId = "19FA402B-9607-46D9-AAD6-815AECBA5B6B";
shapes = (
{
attr = {
fillColor = (0,255);
lineCapEnd = "1";
lineCapStart = "1";
strokeHeight = 120;
strokePos = 0;
strokeWidth = 120;
};
closed = 0;
nodes = (
(160,-280,l),
(286,-280,o),
(388,-178,o),
(388,-52,cs),
(388,342,l)
);
},
{
attr = {
fillColor = (0,255);
lineCapEnd = "2";
lineCapStart = "2";
strokeHeight = 120;
strokeWidth = 120;
};
closed = 0;
nodes = (
(745,700,l),
(151,700,l)
);
},
{
attr = {
fillColor = (0,255);
lineCapEnd = "1";
lineCapStart = "1";
strokeHeight = 120;
strokePos = "0";
strokeWidth = 120;
};
closed = 0;
nodes = (
(736,1280,l),
(610,1280,o),
(508,1178,o),
(508,1052,c)
);
}
);
width = 896;
},
{
layerId = "FF87E3F2-B049-41CB-BF2F-09DB15105515";
width = 600;
}
);
metricLeft = asterisk;
metricRight = asterisk;
unicode = 402;
},
{
color = 8;
glyphname = at;
lastChange = "2022-05-30 06:48:52 +0000";
layers = (
{
layerId = m01;
width = 856;
},
{
layerId = "19FA402B-9607-46D9-AAD6-815AECBA5B6B";
shapes = (
{
attr = {
strokeHeight = 120;
strokePos = "0";
strokeWidth = 120;
};
closed = 1;
nodes = (
(888,490,o),
(982,584,o),
(982,700,cs),
(982,816,o),
(888,910,o),
(772,910,cs),
(656,910,o),
(562,816,o),
(562,700,cs),
(562,584,o),
(656,490,o),
(772,490,cs)
);
},
{
attr = {
lineCapEnd = 2;
lineCapStart = 2;
strokeHeight = 120;
strokePos = 0;
strokeWidth = 120;
};
closed = 0;
nodes = (
(1191,1110,l),
(964,1337,o),
(596,1337,o),
(370,1111,cs),
(143,884,o),
(143,516,o),
(370,289,cs),
(483,176,o),
(631,120,o),
(780,120,cs),
(1225,120,l)
);
}
);
width = 1354;
},
{
layerId = "FF87E3F2-B049-41CB-BF2F-09DB15105515";
width = 800;
}
);
metricLeft = O;
metricRight = asterisk;
unicode = 64;
},
{
color = 8;
glyphname = ampersand;
lastChange = "2022-05-30 06:48:52 +0000";
layers = (
{
layerId = m01;
width = 3000;
},
{
layerId = "19FA402B-9607-46D9-AAD6-815AECBA5B6B";
shapes = (
{
attr = {
fillColor = (0,255);
identifier = ID0x60000243ddc0;
lineCapEnd = "2";
lineCapStart = "2";
strokeHeight = 120;
strokePos = 0;
strokeWidth = 120;
};
closed = 0;
nodes = (
(680,640,l),
(430,640,ls),
(286,640,o),
(170,524,o),
(170,380,cs),
(170,236,o),
(286,120,o),
(430,120,cs),
(690,120,l)
);
},
{
attr = {
fillColor = (0,255);
identifier = ID0x60000ffeaae0;
lineCapEnd = "2";
lineCapStart = "2";
strokeHeight = 120;
strokePos = 0;
strokeWidth = 120;
};
closed = 0;
nodes = (
(940,880,l),
(940,0,l)
);
},
{
attr = {
fillColor = (0,255);
identifier = ID0x60000243ddc0;
lineCapEnd = "2";
lineCapStart = 2;
strokeHeight = 120;
strokePos = 1;
strokeWidth = 120;
};
closed = 0;
nodes = (
(670,760,l),
(530,760,ls),
(386,760,o),
(270,876,o),
(270,1020,cs),
(270,1164,o),
(386,1280,o),
(530,1280,cs),
(934,1280,l)
);
}
);
width = 1040;
},
{
layerId = "FF87E3F2-B049-41CB-BF2F-09DB15105515";
width = 2550;
}
);
metricLeft = "=|B";
metricRight = H;
unicode = 38;
},
{
color = 8;
glyphname = paragraph;
lastChange = "2022-05-30 05:21:14 +0000";
layers = (
{
layerId = m01;
width = 600;
},
{
layerId = "19FA402B-9607-46D9-AAD6-815AECBA5B6B";
shapes = (
{
attr = {
fillColor = (0,255);
lineCapEnd = "2";
lineCapStart = "2";
strokeHeight = 120;
strokeWidth = 120;
};
closed = 0;
nodes = (
(624,1394,l),
(624,6,l)
);
},
{
attr = {
lineCapEnd = 2;
lineCapStart = 2;
strokeHeight = 120;
strokePos = "0";
strokeWidth = 120;
};
closed = 0;
nodes = (
(450,1280,l),
(323,1280,o),
(220,1177,o),
(220,1050,cs),
(220,923,o),
(323,820,o),
(450,820,c)
);
},
{
attr = {
fillColor = (0,255);
lineCapEnd = "2";
lineCapStart = "2";
strokeHeight = 120;
strokeWidth = 120;
};
closed = 0;
nodes = (
(924,1394,l),
(924,6,l)
);
}
);
width = 1084;
},
{
layerId = "FF87E3F2-B049-41CB-BF2F-09DB15105515";
width = 600;
}
);
metricLeft = asterisk;
metricRight = period;
unicode = 182;
},
{
color = 8;
glyphname = section;
lastChange = "2022-05-30 05:21:14 +0000";
layers = (
{
layerId = m01;
width = 600;
},
{
layerId = "19FA402B-9607-46D9-AAD6-815AECBA5B6B";
shapes = (
{
attr = {
strokePos = 0;
strokeWidth = 120;
};
closed = 1;
nodes = (
(578,273,o),
(680,375,o),
(680,500,cs),
(680,625,o),
(578,727,o),
(453,727,cs),
(328,727,o),
(226,625,o),
(226,500,cs),
(226,375,o),
(328,273,o),
(453,273,cs)
);
},
{
attr = {
fillColor = (0,255);
lineCapEnd = "1";
lineCapStart = "2";
strokeHeight = 120;
strokePos = "0";
strokeWidth = 120;
};
closed = 0;
nodes = (
(106,-280,l),
(452,-280,ls),
(578,-280,o),
(680,-178,o),
(680,-52,c)
);
},
{
attr = {
fillColor = (0,255);
lineCapEnd = "1";
lineCapStart = "2";
strokeHeight = 120;
strokePos = "0";
strokeWidth = 120;
};
closed = 0;
nodes = (
(800,1280,l),
(454,1280,ls),
(328,1280,o),
(226,1178,o),
(226,1052,c)
);
}
);
width = 906;
},
{
layerId = "FF87E3F2-B049-41CB-BF2F-09DB15105515";
width = 600;
}
);
metricLeft = asterisk;
metricRight = asterisk;
unicode = 167;
},
{
color = 8;
glyphname = copyright;
lastChange = "2022-05-30 06:48:52 +0000";
layers = (
{
layerId = m01;
width = 1112;
},
{
layerId = "19FA402B-9607-46D9-AAD6-815AECBA5B6B";
shapes = (
{
closed = 1;
nodes = (
(985,932,o),
(1012,959,o),
(1012,992,cs),
(1012,1026,o),
(985,1052,o),
(952,1052,cs),
(921,1052,o),
(892,1026,o),
(892,992,cs),
(892,959,o),
(921,932,o),
(952,932,cs)
);
},
{
attr = {
fillColor = (0,255);
identifier = ID0x600002443e20;
lineCapEnd = 2;
lineCapStart = 1;
strokeHeight = 120;
strokePos = 0;
strokeWidth = 120;
};
closed = 0;
nodes = (
(817,932,l),
(673,932,o),
(556,815,o),
(556,671,cs),
(556,527,o),
(673,410,o),
(817,410,cs),
(976,410,l)
);
},
{
angle = -90;
pos = (80,1459);
ref = O;
}
);
width = 1560;
},
{
layerId = "FF87E3F2-B049-41CB-BF2F-09DB15105515";
width = 1000;
}
);
metricLeft = O;
metricRight = O;
unicode = 169;
},
{
color = 8;
glyphname = registered;
lastChange = "2022-05-30 06:48:52 +0000";
layers = (
{
layerId = m01;
width = 1112;
},
{
layerId = "19FA402B-9607-46D9-AAD6-815AECBA5B6B";
shapes = (
{
attr = {
fillColor = (0,255);
identifier = ID0x60000245d0a0;
lineCapEnd = 2;
lineCapStart = 1;
strokeHeight = 120;
strokeWidth = 120;
};
closed = 0;
nodes = (
(566,672,l),
(566,378,l)
);
},
{
attr = {
fillColor = (0,255);
identifier = ID0x60000245d0a0;
lineCapEnd = 2;
lineCapStart = 1;
strokeHeight = 120;
strokeWidth = 120;
};
closed = 0;
nodes = (
(771,639,l),
(991,383,l)
);
},
{
ref = O;
},
{
attr = {
fillColor = (0,255);
identifier = ID0x60000245d0a0;
lineCapEnd = "1";
lineCapStart = 1;
strokeHeight = 120;
strokePos = "1";
strokeWidth = 120;
};
closed = 0;
nodes = (
(566,949,l),
(808,949,ls),
(877,949,o),
(933,893,o),
(933,825,cs),
(933,755,o),
(877,699,o),
(808,699,cs),
(771,699,l)
);
}
);
width = 1560;
},
{
layerId = "FF87E3F2-B049-41CB-BF2F-09DB15105515";
width = 1000;
}
);
metricLeft = O;
metricRight = O;
unicode = 174;
},
{
color = 8;
glyphname = trademark;
lastChange = "2022-05-30 05:21:14 +0000";
layers = (
{
layerId = m01;
width = 600;
},
{
layerId = "19FA402B-9607-46D9-AAD6-815AECBA5B6B";
shapes = (
{
attr = {
fillColor = (0,255);
identifier = ID0x60000243ee60;
lineCapStart = 2;
strokeHeight = 120;
strokeWidth = 120;
};
closed = 0;
nodes = (
(367,738,l),
(367,1344,l)
);
},
{
attr = {
fillColor = (0,255);
identifier = ID0x60000243ee60;
lineCapEnd = 2;
lineCapStart = 2;
strokeHeight = 120;
strokePos = 1;
strokeWidth = 120;
};
closed = 0;
nodes = (
(421,1400,l),
(106,1400,l)
);
},
{
attr = {
fillColor = (0,255);
identifier = ID0x60000243ebc0;
lineCapEnd = 2;
lineCapStart = 2;
strokeHeight = 120;
strokePos = 0;
strokeWidth = 120;
};
closed = 0;
nodes = (
(707,738,l),
(707,1397,l)
);
},
{
attr = {
fillColor = (0,255);
identifier = ID0x60000243ee60;
lineCapEnd = "2";
lineCapStart = "2";
strokeHeight = 120;
strokePos = "1";
strokeWidth = 120;
};
closed = 0;
nodes = (
(628,1400,l),
(479,1400,l)
);
},
{
attr = {
fillColor = (0,255);
identifier = ID0x60000243ebc0;
lineCapEnd = 1;
lineCapStart = 2;
strokeHeight = 120;
strokeWidth = 120;
};
closed = 0;
nodes = (
(731,1383,l),
(1020,1066,l)
);
},
{
attr = {
fillColor = (0,255);
identifier = ID0x60000243ebc0;
lineCapEnd = 2;
lineCapStart = 2;
strokeHeight = 120;
strokePos = 1;
strokeWidth = 120;
};
closed = 0;
nodes = (
(1334,738,l),
(1334,1397,l)
);
}
);
width = 1434;
},
{
layerId = "FF87E3F2-B049-41CB-BF2F-09DB15105515";
width = 600;
}
);
metricLeft = asterisk;
metricRight = asterisk;
unicode = 8482;
},
{
color = 8;
glyphname = bar;
lastChange = "2022-05-30 06:48:52 +0000";
layers = (
{
layerId = m01;
width = 1400;
},
{
layerId = "19FA402B-9607-46D9-AAD6-815AECBA5B6B";
shapes = (
{
attr = {
fillColor = (0,255);
lineCapEnd = 2;
lineCapStart = "2";
strokeHeight = 120;
strokeWidth = 120;
};
closed = 0;
nodes = (
(160,1394,l),
(160,6,l)
);
}
);
width = 320;
},
{
layerId = "FF87E3F2-B049-41CB-BF2F-09DB15105515";
width = 1200;
}
);
metricLeft = I;
metricRight = I;
unicode = 124;
},
{
color = 8;
glyphname = brokenbar;
lastChange = "2022-05-30 06:48:52 +0000";
layers = (
{
layerId = m01;
width = 1400;
},
{
layerId = "19FA402B-9607-46D9-AAD6-815AECBA5B6B";
shapes = (
{
attr = {
fillColor = (0,255);
lineCapEnd = "2";
lineCapStart = "1";
strokeHeight = 120;
strokeWidth = 120;
};
closed = 0;
nodes = (
(160,350,l),
(160,6,l)
);
},
{
attr = {
fillColor = (0,255);
lineCapEnd = "1";
lineCapStart = "2";
strokeHeight = 120;
strokeWidth = 120;
};
closed = 0;
nodes = (
(160,1394,l),
(160,1050,l)
);
}
);
width = 320;
},
{
layerId = "FF87E3F2-B049-41CB-BF2F-09DB15105515";
width = 1200;
}
);
metricLeft = I;
metricRight = I;
unicode = 166;
},
{
color = 8;
glyphname = dagger;
lastChange = "2022-05-30 05:21:14 +0000";
layers = (
{
layerId = m01;
width = 600;
},
{
layerId = "19FA402B-9607-46D9-AAD6-815AECBA5B6B";
shapes = (
{
attr = {
lineCapEnd = "2";
lineCapStart = "2";
strokeHeight = 120;
strokeWidth = 120;
};
closed = 0;
nodes = (
(299,1126,l),
(106,1126,l)
);
},
{
attr = {
lineCapEnd = "2";
lineCapStart = "2";
strokeHeight = 120;
strokeWidth = 120;
};
closed = 0;
nodes = (
(424,1394,l),
(424,539,l)
);
},
{
attr = {
lineCapEnd = "2";
lineCapStart = "2";
strokeHeight = 120;
strokeWidth = 120;
};
closed = 0;
nodes = (
(742,1126,l),
(549,1126,l)
);
}
);
width = 848;
},
{
layerId = "FF87E3F2-B049-41CB-BF2F-09DB15105515";
width = 600;
}
);
metricLeft = asterisk;
metricRight = asterisk;
unicode = 8224;
},
{
color = 8;
glyphname = daggerdbl;
lastChange = "2022-05-30 05:21:14 +0000";
layers = (
{
layerId = m01;
width = 600;
},
{
layerId = "19FA402B-9607-46D9-AAD6-815AECBA5B6B";
shapes = (
{
attr = {
lineCapEnd = "2";
lineCapStart = "2";
strokeHeight = 120;
strokeWidth = 120;
};
closed = 0;
nodes = (
(424,682,l),
(424,539,l)
);
},
{
attr = {
lineCapEnd = "2";
lineCapStart = "2";
strokeHeight = 120;
strokeWidth = 120;
};
closed = 0;
nodes = (
(742,807,l),
(106,807,l)
);
},
{
attr = {
lineCapEnd = "2";
lineCapStart = "2";
strokeHeight = 120;
strokeWidth = 120;
};
closed = 0;
nodes = (
(299,1126,l),
(106,1126,l)
);
},
{
attr = {
lineCapEnd = "2";
lineCapStart = "2";
strokeHeight = 120;
strokeWidth = 120;
};
closed = 0;
nodes = (
(424,1394,l),
(424,932,l)
);
},
{
attr = {
lineCapEnd = "2";
lineCapStart = "2";
strokeHeight = 120;
strokeWidth = 120;
};
closed = 0;
nodes = (
(742,1126,l),
(549,1126,l)
);
}
);
width = 848;
},
{
layerId = "FF87E3F2-B049-41CB-BF2F-09DB15105515";
width = 600;
}
);
metricLeft = asterisk;
metricRight = asterisk;
unicode = 8225;
},
{
color = 8;
glyphname = cent;
lastChange = "2022-05-30 06:48:52 +0000";
layers = (
{
layerId = m01;
width = 2214;
},
{
layerId = "19FA402B-9607-46D9-AAD6-815AECBA5B6B";
shapes = (
{
closed = 1;
nodes = (
(791,200,o),
(818,227,o),
(818,260,cs),
(818,293,o),
(791,320,o),
(758,320,cs),
(725,320,o),
(698,293,o),
(698,260,cs),
(698,227,o),
(725,200,o),
(758,200,cs)
);
},
{
attr = {
lineCapEnd = "2";
lineCapStart = "2";
strokeHeight = 120;
strokeWidth = 120;
};
closed = 0;
nodes = (
(510,118,l),
(510,-130,l)
);
},
{
attr = {
fillColor = (0,255);
lineCapEnd = "1";
lineCapStart = "2";
strokeHeight = 120;
strokePos = "0";
strokeWidth = 120;
};
closed = 0;
nodes = (
(812,1080,l),
(580,1080,ls),
(370,1080,o),
(200,910,o),
(200,700,cs),
(200,490,o),
(370,320,o),
(580,320,c)
);
},
{
attr = {
lineCapEnd = "2";
lineCapStart = "2";
strokeHeight = 120;
strokeWidth = 120;
};
closed = 0;
nodes = (
(510,1530,l),
(510,1282,l)
);
}
);
width = 868;
},
{
layerId = "FF87E3F2-B049-41CB-BF2F-09DB15105515";
width = 1016;
}
);
metricLeft = C;
metricRight = C;
unicode = 162;
},
{
color = 8;
glyphname = dollar;
lastChange = "2022-05-30 06:48:52 +0000";
layers = (
{
layerId = m01;
width = 1108;
},
{
layerId = "19FA402B-9607-46D9-AAD6-815AECBA5B6B";
shapes = (
{
attr = {
lineCapEnd = 2;
lineCapStart = 2;
strokeHeight = 120;
strokeWidth = 120;
};
closed = 0;
nodes = (
(560,-98,l),
(560,-346,l)
);
},
{
ref = S;
},
{
attr = {
lineCapEnd = "2";
lineCapStart = "2";
strokeHeight = 120;
strokeWidth = 120;
};
closed = 0;
nodes = (
(560,1746,l),
(560,1498,l)
);
}
);
width = 1166;
},
{
layerId = "FF87E3F2-B049-41CB-BF2F-09DB15105515";
width = 720;
}
);
metricLeft = S;
metricRight = S;
unicode = 36;
},
{
color = 8;
glyphname = euro;
lastChange = "2022-05-30 05:21:14 +0000";
layers = (
{
layerId = m01;
width = 600;
},
{
layerId = "19FA402B-9607-46D9-AAD6-815AECBA5B6B";
shapes = (
{
attr = {
fillColor = (0,255);
lineCapEnd = "1";
lineCapStart = "1";
strokeHeight = 120;
strokeWidth = 120;
};
closed = 0;
nodes = (
(542,587,l),
(160,587,l)
);
},
{
attr = {
lineCapEnd = 2;
lineCapStart = 2;
strokeHeight = 120;
strokePos = "1";
strokeWidth = 120;
};
closed = 0;
nodes = (
(980,409,l),
(980,252,o),
(852,124,o),
(695,124,cs),
(538,124,o),
(410,252,o),
(410,409,c)
);
},
{
attr = {
fillColor = (0,255);
lineCapEnd = "1";
lineCapStart = "1";
strokeHeight = 120;
strokeWidth = 120;
};
closed = 0;
nodes = (
(542,814,l),
(160,814,l)
);
},
{
attr = {
lineCapEnd = 2;
lineCapStart = 2;
strokeHeight = 120;
strokePos = 1;
strokeWidth = 120;
};
closed = 0;
nodes = (
(410,991,l),
(410,1148,o),
(538,1276,o),
(695,1276,cs),
(852,1276,o),
(980,1148,o),
(980,991,c)
);
}
);
width = 1196;
},
{
layerId = "FF87E3F2-B049-41CB-BF2F-09DB15105515";
width = 600;
}
);
metricLeft = asterisk;
metricRight = asterisk;
unicode = 8364;
},
{
color = 8;
glyphname = sterling;
lastChange = "2022-05-30 05:21:14 +0000";
layers = (
{
layerId = m01;
width = 600;
},
{
layerId = "19FA402B-9607-46D9-AAD6-815AECBA5B6B";
shapes = (
{
attr = {
fillColor = (0,255);
lineCapEnd = "1";
lineCapStart = "2";
strokeHeight = 120;
strokePos = "0";
strokeWidth = 120;
};
closed = 0;
nodes = (
(1242,0,l),
(160,1,l)
);
},
{
attr = {
fillColor = (0,255);
lineCapEnd = 1;
lineCapStart = 1;
strokeHeight = 120;
strokeWidth = 120;
};
closed = 0;
nodes = (
(542,483,l),
(160,483,l)
);
},
{
attr = {
lineCapEnd = "1";
lineCapStart = "1";
strokeHeight = 120;
strokePos = "0";
strokeWidth = 120;
};
closed = 0;
nodes = (
(1127,898,l),
(1127,1107,o),
(958,1276,o),
(749,1276,cs),
(541,1276,o),
(372,1107,o),
(372,898,c)
);
}
);
width = 1348;
},
{
layerId = "FF87E3F2-B049-41CB-BF2F-09DB15105515";
width = 600;
}
);
metricLeft = asterisk;
metricRight = asterisk;
unicode = 163;
},
{
color = 8;
glyphname = yen;
lastChange = "2022-05-30 06:48:52 +0000";
layers = (
{
layerId = m01;
width = 1040;
},
{
layerId = "19FA402B-9607-46D9-AAD6-815AECBA5B6B";
shapes = (
{
attr = {
fillColor = (0,255);
lineCapEnd = "1";
lineCapStart = "1";
strokeHeight = 120;
strokeWidth = 120;
};
closed = 0;
nodes = (
(998,263,l),
(260,263,l)
);
},
{
attr = {
fillColor = (0,255);
lineCapEnd = "1";
lineCapStart = "1";
strokeHeight = 120;
strokeWidth = 120;
};
closed = 0;
nodes = (
(998,523,l),
(260,523,l)
);
},
{
attr = {
fillColor = (0,255);
lineCapEnd = "1";
lineCapStart = "2";
strokeHeight = 120;
strokeWidth = 120;
};
closed = 0;
nodes = (
(93,1382,l),
(394,1068,l)
);
},
{
attr = {
fillColor = (0,255);
lineCapEnd = "2";
lineCapStart = "1";
strokeHeight = 120;
strokeWidth = 120;
};
closed = 0;
nodes = (
(629,823,l),
(1165,1383,l)
);
}
);
width = 1258;
},
{
layerId = "FF87E3F2-B049-41CB-BF2F-09DB15105515";
width = 800;
}
);
metricLeft = Y;
metricRight = Y;
unicode = 165;
},
{
color = 8;
glyphname = plus;
lastChange = "2022-05-30 02:18:52 +0000";
layers = (
{
layerId = m01;
width = 600;
},
{
layerId = "19FA402B-9607-46D9-AAD6-815AECBA5B6B";
shapes = (
{
attr = {
lineCapEnd = "2";
lineCapStart = "2";
strokeHeight = 120;
strokeWidth = 120;
};
closed = 0;
nodes = (
(329,700,l),
(66,700,l)
);
},
{
attr = {
lineCapEnd = "2";
lineCapStart = "2";
strokeHeight = 120;
strokeWidth = 120;
};
closed = 0;
nodes = (
(504,1138,l),
(504,263,l)
);
},
{
attr = {
lineCapEnd = "2";
lineCapStart = "2";
strokeHeight = 120;
strokeWidth = 120;
};
closed = 0;
nodes = (
(942,700,l),
(679,700,l)
);
}
);
width = 1007;
},
{
layerId = "FF87E3F2-B049-41CB-BF2F-09DB15105515";
width = 600;
}
);
unicode = 43;
},
{
color = 8;
glyphname = minus;
lastChange = "2022-05-30 02:18:52 +0000";
layers = (
{
layerId = m01;
width = 600;
},
{
layerId = "19FA402B-9607-46D9-AAD6-815AECBA5B6B";
shapes = (
{
attr = {
lineCapEnd = "2";
lineCapStart = "2";
strokeHeight = 120;
strokeWidth = 120;
};
closed = 0;
nodes = (
(941,701,l),
(66,701,l)
);
}
);
width = 1007;
},
{
layerId = "FF87E3F2-B049-41CB-BF2F-09DB15105515";
width = 600;
}
);
unicode = 8722;
},
{
color = 8;
glyphname = multiply;
lastChange = "2022-05-30 02:18:52 +0000";
layers = (
{
layerId = m01;
width = 600;
},
{
layerId = "19FA402B-9607-46D9-AAD6-815AECBA5B6B";
shapes = (
{
attr = {
lineCapEnd = "2";
lineCapStart = "2";
strokeHeight = 120;
strokeWidth = 120;
};
closed = 0;
nodes = (
(860,344,l),
(627,576,l)
);
},
{
attr = {
lineCapEnd = "2";
lineCapStart = "2";
strokeHeight = 120;
strokeWidth = 120;
};
closed = 0;
nodes = (
(860,1057,l),
(148,344,l)
);
},
{
attr = {
lineCapEnd = "2";
lineCapStart = "2";
strokeHeight = 120;
strokeWidth = 120;
};
closed = 0;
nodes = (
(380,825,l),
(147,1057,l)
);
}
);
width = 1007;
},
{
layerId = "FF87E3F2-B049-41CB-BF2F-09DB15105515";
width = 600;
}
);
unicode = 215;
},
{
color = 8;
glyphname = divide;
lastChange = "2022-05-30 02:18:52 +0000";
layers = (
{
layerId = m01;
width = 600;
},
{
layerId = "19FA402B-9607-46D9-AAD6-815AECBA5B6B";
shapes = (
{
closed = 1;
nodes = (
(545,963,o),
(579,997,o),
(579,1038,cs),
(579,1079,o),
(545,1113,o),
(504,1113,cs),
(463,1113,o),
(429,1079,o),
(429,1038,cs),
(429,997,o),
(463,963,o),
(504,963,cs)
);
},
{
closed = 1;
nodes = (
(545,287,o),
(579,321,o),
(579,362,cs),
(579,403,o),
(545,437,o),
(504,437,cs),
(463,437,o),
(429,403,o),
(429,362,cs),
(429,321,o),
(463,287,o),
(504,287,cs)
);
},
{
attr = {
lineCapEnd = "2";
lineCapStart = "2";
strokeHeight = 120;
strokeWidth = 120;
};
closed = 0;
nodes = (
(941,701,l),
(66,701,l)
);
}
);
width = 1007;
},
{
layerId = "FF87E3F2-B049-41CB-BF2F-09DB15105515";
width = 600;
}
);
unicode = 247;
},
{
color = 8;
glyphname = equal;
lastChange = "2022-05-30 02:18:52 +0000";
layers = (
{
layerId = m01;
width = 600;
},
{
layerId = "19FA402B-9607-46D9-AAD6-815AECBA5B6B";
shapes = (
{
attr = {
lineCapEnd = 2;
lineCapStart = 2;
strokeHeight = 120;
strokeWidth = 120;
};
closed = 0;
nodes = (
(66,455,l),
(941,455,l)
);
},
{
attr = {
lineCapEnd = 2;
lineCapStart = 2;
strokeHeight = 120;
strokeWidth = 120;
};
closed = 0;
nodes = (
(66,945,l),
(941,945,l)
);
}
);
width = 1007;
},
{
layerId = "FF87E3F2-B049-41CB-BF2F-09DB15105515";
width = 600;
}
);
unicode = 61;
},
{
color = 8;
glyphname = notequal;
lastChange = "2022-05-30 02:18:52 +0000";
layers = (
{
layerId = m01;
width = 600;
},
{
layerId = "19FA402B-9607-46D9-AAD6-815AECBA5B6B";
shapes = (
{
attr = {
identifier = ID0x600002432140;
lineCapEnd = "2";
lineCapStart = "2";
strokeHeight = 120;
strokeWidth = 120;
};
closed = 0;
nodes = (
(211,455,l),
(66,455,l)
);
},
{
attr = {
identifier = ID0x600002432140;
lineCapEnd = "2";
lineCapStart = "2";
strokeHeight = 120;
strokeWidth = 120;
};
closed = 0;
nodes = (
(66,944,l),
(446,944,l)
);
},
{
attr = {
identifier = ID0x600002432140;
lineCapEnd = "2";
lineCapStart = "2";
strokeHeight = 120;
strokeWidth = 120;
};
closed = 0;
nodes = (
(808,1324,l),
(199,76,l)
);
},
{
attr = {
identifier = ID0x600002432140;
lineCapEnd = "2";
lineCapStart = "2";
strokeHeight = 120;
strokeWidth = 120;
};
closed = 0;
nodes = (
(941,455,l),
(561,455,l)
);
},
{
attr = {
identifier = ID0x600002432140;
lineCapEnd = "2";
lineCapStart = "2";
strokeHeight = 120;
strokeWidth = 120;
};
closed = 0;
nodes = (
(796,944,l),
(941,944,l)
);
}
);
width = 1007;
},
{
layerId = "FF87E3F2-B049-41CB-BF2F-09DB15105515";
width = 600;
}
);
unicode = 8800;
},
{
color = 8;
glyphname = greater;
lastChange = "2022-05-30 05:21:14 +0000";
layers = (
{
layerId = m01;
width = 600;
},
{
layerId = "19FA402B-9607-46D9-AAD6-815AECBA5B6B";
shapes = (
{
attr = {
fillColor = (0,255);
lineCapEnd = "2";
lineCapStart = "2";
strokeHeight = 120;
strokeWidth = 120;
};
closed = 0;
nodes = (
(111,209,l),
(1138,696,l)
);
},
{
attr = {
fillColor = (0,255);
lineCapEnd = "2";
lineCapStart = "2";
strokeHeight = 120;
strokeWidth = 120;
};
closed = 0;
nodes = (
(111,1191,l),
(633,947,l)
);
}
);
width = 1249;
},
{
layerId = "FF87E3F2-B049-41CB-BF2F-09DB15105515";
width = 600;
}
);
metricLeft = asterisk;
metricRight = asterisk;
unicode = 62;
},
{
color = 8;
glyphname = less;
lastChange = "2022-05-30 05:21:14 +0000";
layers = (
{
layerId = m01;
width = 600;
},
{
layerId = "19FA402B-9607-46D9-AAD6-815AECBA5B6B";
shapes = (
{
attr = {
fillColor = (0,255);
lineCapEnd = "2";
lineCapStart = "2";
strokeHeight = 120;
strokeWidth = 120;
};
closed = 0;
nodes = (
(616,453,l),
(1138,209,l)
);
},
{
attr = {
fillColor = (0,255);
lineCapEnd = "2";
lineCapStart = "2";
strokeHeight = 120;
strokeWidth = 120;
};
closed = 0;
nodes = (
(111,704,l),
(1138,1191,l)
);
}
);
width = 1249;
},
{
layerId = "FF87E3F2-B049-41CB-BF2F-09DB15105515";
width = 600;
}
);
metricLeft = asterisk;
metricRight = asterisk;
unicode = 60;
},
{
color = 8;
glyphname = greaterequal;
lastChange = "2022-05-30 05:21:14 +0000";
layers = (
{
layerId = m01;
width = 600;
},
{
layerId = "19FA402B-9607-46D9-AAD6-815AECBA5B6B";
shapes = (
{
attr = {
lineCapEnd = "2";
lineCapStart = "2";
strokeHeight = 120;
strokeWidth = 120;
};
closed = 0;
nodes = (
(106,209,l),
(1136,209,l)
);
},
{
attr = {
fillColor = (0,255);
lineCapEnd = "2";
lineCapStart = "2";
strokeHeight = 120;
strokeWidth = 120;
};
closed = 0;
nodes = (
(109,447,l),
(1136,816,l)
);
},
{
attr = {
fillColor = (0,255);
lineCapEnd = "2";
lineCapStart = "2";
strokeHeight = 120;
strokeWidth = 120;
};
closed = 0;
nodes = (
(109,1191,l),
(631,1006,l)
);
}
);
width = 1245;
},
{
layerId = "FF87E3F2-B049-41CB-BF2F-09DB15105515";
width = 600;
}
);
metricLeft = greater;
metricRight = greater;
unicode = 8805;
},
{
color = 8;
glyphname = lessequal;
lastChange = "2022-05-30 05:21:14 +0000";
layers = (
{
layerId = m01;
width = 600;
},
{
layerId = "19FA402B-9607-46D9-AAD6-815AECBA5B6B";
shapes = (
{
attr = {
identifier = ID0x600002432920;
lineCapEnd = "2";
lineCapStart = "2";
strokeHeight = 120;
strokeWidth = 120;
};
closed = 0;
nodes = (
(109,209,l),
(1139,209,l)
);
},
{
attr = {
fillColor = (0,255);
identifier = ID0x600002432920;
lineCapEnd = "2";
lineCapStart = "2";
strokeHeight = 120;
strokeWidth = 120;
};
closed = 0;
nodes = (
(1136,447,l),
(614,632,l)
);
},
{
attr = {
fillColor = (0,255);
identifier = ID0x600002432920;
lineCapEnd = "2";
lineCapStart = "2";
strokeHeight = 120;
strokeWidth = 120;
};
closed = 0;
nodes = (
(1136,1191,l),
(109,822,l)
);
}
);
width = 1245;
},
{
layerId = "FF87E3F2-B049-41CB-BF2F-09DB15105515";
width = 600;
}
);
metricLeft = less;
metricRight = less;
unicode = 8804;
},
{
color = 8;
glyphname = plusminus;
lastChange = "2022-05-30 02:18:52 +0000";
layers = (
{
layerId = m01;
width = 600;
},
{
layerId = "19FA402B-9607-46D9-AAD6-815AECBA5B6B";
shapes = (
{
attr = {
lineCapEnd = "2";
lineCapStart = "2";
strokeHeight = 120;
strokeWidth = 120;
};
closed = 0;
nodes = (
(941,277,l),
(66,277,l)
);
},
{
attr = {
lineCapEnd = "2";
lineCapStart = "2";
strokeHeight = 120;
strokeWidth = 120;
};
closed = 0;
nodes = (
(329,800,l),
(66,800,l)
);
},
{
attr = {
lineCapEnd = "2";
lineCapStart = "2";
strokeHeight = 120;
strokeWidth = 120;
};
closed = 0;
nodes = (
(504,1178,l),
(504,423,l)
);
},
{
attr = {
lineCapEnd = "2";
lineCapStart = "2";
strokeHeight = 120;
strokeWidth = 120;
};
closed = 0;
nodes = (
(942,800,l),
(679,800,l)
);
}
);
width = 1007;
},
{
layerId = "FF87E3F2-B049-41CB-BF2F-09DB15105515";
width = 600;
}
);
unicode = 177;
},
{
color = 8;
glyphname = approxequal;
lastChange = "2022-05-30 02:18:52 +0000";
layers = (
{
layerId = m01;
width = 600;
},
{
layerId = "19FA402B-9607-46D9-AAD6-815AECBA5B6B";
shapes = (
{
attr = {
lineCapEnd = "1";
lineCapStart = "1";
strokeHeight = 120;
strokeWidth = 120;
};
closed = 0;
nodes = (
(120,453,l),
(219,600,o),
(357,596,o),
(503,500,cs),
(648,404,o),
(787,400,o),
(887,547,c)
);
},
{
attr = {
lineCapEnd = "1";
lineCapStart = "1";
strokeHeight = 120;
strokeWidth = 120;
};
closed = 0;
nodes = (
(120,853,l),
(219,1000,o),
(357,996,o),
(503,900,cs),
(648,804,o),
(787,800,o),
(887,947,c)
);
}
);
width = 1007;
},
{
layerId = "FF87E3F2-B049-41CB-BF2F-09DB15105515";
width = 600;
}
);
unicode = 8776;
},
{
color = 8;
glyphname = asciitilde;
lastChange = "2022-05-30 05:21:14 +0000";
layers = (
{
layerId = m01;
width = 600;
},
{
layerId = "19FA402B-9607-46D9-AAD6-815AECBA5B6B";
shapes = (
{
attr = {
lineCapEnd = "1";
lineCapStart = "1";
strokeHeight = 120;
strokeWidth = 120;
};
closed = 0;
nodes = (
(160,666,l),
(231,787,o),
(333,781,o),
(434,700,cs),
(535,619,o),
(637,613,o),
(708,734,c)
);
}
);
width = 868;
},
{
layerId = "FF87E3F2-B049-41CB-BF2F-09DB15105515";
width = 600;
}
);
metricLeft = asterisk;
metricRight = asterisk;
unicode = 126;
},
{
color = 8;
glyphname = logicalnot;
lastChange = "2022-05-30 02:18:52 +0000";
layers = (
{
layerId = m01;
width = 600;
},
{
layerId = "19FA402B-9607-46D9-AAD6-815AECBA5B6B";
shapes = (
{
attr = {
lineCapEnd = "2";
lineCapStart = "2";
strokeHeight = 120;
strokeWidth = 120;
};
closed = 0;
nodes = (
(66,830,l),
(921,830,l)
);
},
{
attr = {
lineCapEnd = 2;
strokeHeight = 120;
strokeWidth = 120;
};
closed = 0;
nodes = (
(867,824,l),
(867,370,l)
);
}
);
width = 1007;
},
{
layerId = "FF87E3F2-B049-41CB-BF2F-09DB15105515";
width = 600;
}
);
unicode = 172;
},
{
color = 8;
glyphname = asciicircum;
lastChange = "2022-05-30 05:21:14 +0000";
layers = (
{
layerId = m01;
width = 600;
},
{
layerId = "19FA402B-9607-46D9-AAD6-815AECBA5B6B";
shapes = (
{
attr = {
fillColor = (0,255);
lineCapEnd = "2";
lineCapStart = "2";
strokeHeight = 120;
strokeWidth = 120;
};
closed = 0;
nodes = (
(124,1027,l),
(444,1380,l)
);
},
{
attr = {
fillColor = (0,255);
lineCapEnd = "2";
lineCapStart = "2";
strokeHeight = 120;
strokeWidth = 120;
};
closed = 0;
nodes = (
(692,1027,l),
(372,1380,l)
);
}
);
width = 816;
},
{
layerId = "FF87E3F2-B049-41CB-BF2F-09DB15105515";
width = 600;
}
);
metricLeft = asterisk;
metricRight = asterisk;
unicode = 94;
},
{
color = 8;
glyphname = infinity;
lastChange = "2022-05-30 05:21:14 +0000";
layers = (
{
layerId = m01;
width = 600;
},
{
layerId = "19FA402B-9607-46D9-AAD6-815AECBA5B6B";
shapes = (
{
attr = {
lineCapEnd = "1";
lineCapStart = "1";
strokeHeight = 120;
strokePos = "0";
strokeWidth = 120;
};
closed = 0;
nodes = (
(220,703,l),
(220,517,o),
(371,366,o),
(556,366,c)
);
},
{
attr = {
lineCapEnd = "1";
lineCapStart = "1";
strokeHeight = 120;
strokeWidth = 120;
};
closed = 0;
nodes = (
(1406,275,l),
(1171,275,o),
(981,466,o),
(981,700,cs),
(981,934,o),
(791,1125,o),
(556,1125,c)
);
},
{
attr = {
lineCapEnd = "1";
lineCapStart = "1";
strokeHeight = 120;
strokePos = "0";
strokeWidth = 120;
};
closed = 0;
nodes = (
(1742,703,l),
(1742,889,o),
(1591,1040,o),
(1406,1040,c)
);
}
);
width = 1962;
},
{
layerId = "FF87E3F2-B049-41CB-BF2F-09DB15105515";
width = 600;
}
);
metricLeft = asterisk;
metricRight = asterisk;
unicode = 8734;
},
{
color = 8;
glyphname = integral;
lastChange = "2022-05-30 05:21:14 +0000";
layers = (
{
layerId = m01;
width = 600;
},
{
layerId = "19FA402B-9607-46D9-AAD6-815AECBA5B6B";
shapes = (
{
attr = {
fillColor = (0,255);
lineCapEnd = 2;
lineCapStart = "1";
strokeHeight = 120;
strokePos = "0";
strokeWidth = 120;
};
closed = 0;
nodes = (
(160,-80,l),
(286,-80,o),
(388,22,o),
(388,148,cs),
(388,512,l)
);
},
{
attr = {
fillColor = (0,255);
lineCapEnd = 2;
lineCapStart = 1;
strokeHeight = 120;
strokePos = "0";
strokeWidth = 120;
};
closed = 0;
nodes = (
(736,1480,l),
(610,1480,o),
(508,1378,o),
(508,1252,cs),
(508,888,l)
);
}
);
width = 896;
},
{
layerId = "FF87E3F2-B049-41CB-BF2F-09DB15105515";
width = 600;
}
);
metricLeft = asterisk;
metricRight = asterisk;
unicode = 8747;
},
{
color = 8;
glyphname = product;
lastChange = "2022-05-30 06:48:52 +0000";
layers = (
{
layerId = m01;
width = 3800;
},
{
layerId = "19FA402B-9607-46D9-AAD6-815AECBA5B6B";
shapes = (
{
attr = {
fillColor = (0,255);
identifier = ID0x60000ffd02a0;
lineCapEnd = 2;
lineCapStart = 2;
strokeHeight = 120;
strokeWidth = 120;
};
closed = 0;
nodes = (
(160,1045,l),
(160,6,l)
);
},
{
attr = {
fillColor = (0,255);
identifier = ID0x60000ffd02a0;
lineCapEnd = 1;
lineCapStart = 1;
strokeHeight = 120;
strokeWidth = 120;
};
closed = 0;
nodes = (
(1116,60,l),
(1116,1340,l)
);
},
{
attr = {
identifier = ID0x60000ffd02a0;
lineCapEnd = 3;
lineCapStart = 1;
strokeHeight = 120;
strokeWidth = 120;
};
closed = 0;
nodes = (
(160,1340,l),
(1056,1340,l)
);
}
);
width = 1276;
},
{
layerId = "FF87E3F2-B049-41CB-BF2F-09DB15105515";
width = 4000;
}
);
metricLeft = H;
metricRight = H;
unicode = 8719;
},
{
color = 8;
glyphname = summation;
lastChange = "2022-05-30 06:48:52 +0000";
layers = (
{
layerId = m01;
width = 3054;
},
{
layerId = "19FA402B-9607-46D9-AAD6-815AECBA5B6B";
shapes = (
{
attr = {
fillColor = (0,255);
lineCapEnd = "2";
lineCapStart = "2";
strokeHeight = 120;
strokePos = 1;
strokeWidth = 120;
};
closed = 0;
nodes = (
(106,4,l),
(1200,4,l)
);
},
{
attr = {
fillColor = (0,255);
lineCapEnd = "2";
lineCapStart = "2";
strokeHeight = 120;
strokeWidth = 120;
};
closed = 0;
nodes = (
(130,1375,l),
(660,681,l)
);
},
{
attr = {
fillColor = (0,255);
lineCapEnd = "2";
lineCapStart = "2";
strokeHeight = 120;
strokePos = 0;
strokeWidth = 120;
};
closed = 0;
nodes = (
(106,1396,l),
(1200,1396,l)
);
}
);
width = 1286;
},
{
layerId = "FF87E3F2-B049-41CB-BF2F-09DB15105515";
width = 1101;
}
);
metricLeft = E;
metricRight = E;
unicode = 8721;
},
{
color = 8;
glyphname = radical;
lastChange = "2022-05-30 05:21:14 +0000";
layers = (
{
layerId = m01;
width = 600;
},
{
layerId = "19FA402B-9607-46D9-AAD6-815AECBA5B6B";
shapes = (
{
attr = {
fillColor = (0,255);
lineCapEnd = "2";
lineCapStart = "2";
strokeHeight = 120;
strokeWidth = 120;
};
closed = 0;
nodes = (
(414,12,l),
(135,544,l)
);
},
{
attr = {
fillColor = (0,255);
lineCapEnd = "2";
lineCapStart = "2";
strokeHeight = 120;
strokeWidth = 120;
};
closed = 0;
nodes = (
(673,956,l),
(374,12,l)
);
},
{
attr = {
fillColor = (0,255);
lineCapEnd = "2";
lineCapStart = "2";
strokeHeight = 120;
strokePos = "0";
strokeWidth = 120;
};
closed = 0;
nodes = (
(741,1400,l),
(1467,1400,l)
);
}
);
width = 1573;
},
{
layerId = "FF87E3F2-B049-41CB-BF2F-09DB15105515";
width = 600;
}
);
metricLeft = asterisk;
metricRight = asterisk;
unicode = 8730;
},
{
color = 8;
glyphname = micro;
lastChange = "2022-05-30 06:48:52 +0000";
layers = (
{
layerId = m01;
width = 1400;
},
{
layerId = "19FA402B-9607-46D9-AAD6-815AECBA5B6B";
shapes = (
{
attr = {
fillColor = (0,255);
lineCapEnd = "2";
lineCapStart = "1";
strokeHeight = 120;
strokeWidth = 120;
};
closed = 0;
nodes = (
(160,100,l),
(160,-394,l)
);
},
{
attr = {
fillColor = (0,255);
lineCapEnd = "1";
lineCapStart = "2";
strokeHeight = 120;
strokeWidth = 120;
};
closed = 0;
nodes = (
(160,994,l),
(160,500,l)
);
},
{
attr = {
fillColor = (0,255);
lineCapEnd = "1";
lineCapStart = "2";
strokeHeight = 120;
strokePos = 1;
strokeWidth = 120;
};
closed = 0;
nodes = (
(975,996,l),
(975,502,ls),
(975,293,o),
(806,124,o),
(598,124,c)
);
}
);
width = 1195;
},
{
layerId = "FF87E3F2-B049-41CB-BF2F-09DB15105515";
width = 900;
}
);
metricLeft = U;
metricRight = U;
unicode = 181;
},
{
color = 8;
glyphname = partialdiff;
lastChange = "2022-05-30 06:48:52 +0000";
layers = (
{
layerId = m01;
width = 1112;
},
{
layerId = "19FA402B-9607-46D9-AAD6-815AECBA5B6B";
shapes = (
{
attr = {
strokePos = 0;
strokeWidth = 120;
};
closed = 1;
nodes = (
(686,120,o),
(826,260,o),
(826,433,cs),
(826,607,o),
(686,747,o),
(513,747,cs),
(340,747,o),
(200,607,o),
(200,433,cs),
(200,260,o),
(340,120,o),
(513,120,cs)
);
},
{
attr = {
fillColor = (0,255);
identifier = ID0x600002411f80;
lineCapEnd = 2;
lineCapStart = 1;
strokeHeight = 120;
strokeWidth = 120;
};
closed = 0;
nodes = (
(515,1340,l),
(684,1067,l)
);
}
);
width = 1026;
},
{
layerId = "FF87E3F2-B049-41CB-BF2F-09DB15105515";
width = 1000;
}
);
metricLeft = O;
metricRight = O;
unicode = 8706;
},
{
color = 8;
glyphname = percent;
lastChange = "2022-05-30 05:21:14 +0000";
layers = (
{
layerId = m01;
width = 600;
},
{
layerId = "19FA402B-9607-46D9-AAD6-815AECBA5B6B";
shapes = (
{
attr = {
lineCapEnd = 1;
lineCapStart = 1;
strokePos = 0;
strokeWidth = 120;
};
closed = 0;
nodes = (
(450,1280,l),
(323,1280,o),
(220,1177,o),
(220,1050,cs),
(220,923,o),
(323,820,o),
(450,820,c)
);
},
{
attr = {
lineCapEnd = 2;
lineCapStart = 2;
strokeHeight = 120;
strokeWidth = 120;
};
closed = 0;
nodes = (
(235,16,l),
(1210,1384,l)
);
},
{
attr = {
lineCapEnd = "1";
lineCapStart = "1";
strokePos = "0";
strokeWidth = 120;
};
closed = 0;
nodes = (
(995,120,l),
(1122,120,o),
(1225,223,o),
(1225,350,cs),
(1225,477,o),
(1122,580,o),
(995,580,c)
);
}
);
width = 1445;
},
{
layerId = "FF87E3F2-B049-41CB-BF2F-09DB15105515";
width = 600;
}
);
metricLeft = asterisk;
metricRight = asterisk;
unicode = 37;
},
{
color = 8;
glyphname = perthousand;
lastChange = "2022-05-30 05:21:14 +0000";
layers = (
{
layerId = m01;
width = 600;
},
{
layerId = "19FA402B-9607-46D9-AAD6-815AECBA5B6B";
shapes = (
{
attr = {
lineCapEnd = "1";
lineCapStart = "1";
strokePos = "0";
strokeWidth = 120;
};
closed = 0;
nodes = (
(450,1280,l),
(323,1280,o),
(220,1177,o),
(220,1050,cs),
(220,923,o),
(323,820,o),
(450,820,c)
);
},
{
attr = {
lineCapEnd = "2";
lineCapStart = "2";
strokeHeight = 120;
strokeWidth = 120;
};
closed = 0;
nodes = (
(235,16,l),
(1210,1384,l)
);
},
{
attr = {
lineCapEnd = "1";
lineCapStart = "1";
strokePos = "0";
strokeWidth = 120;
};
closed = 0;
nodes = (
(995,120,l),
(1122,120,o),
(1225,223,o),
(1225,350,cs),
(1225,477,o),
(1122,580,o),
(995,580,c)
);
},
{
attr = {
lineCapEnd = "1";
lineCapStart = "1";
strokePos = "0";
strokeWidth = 120;
};
closed = 0;
nodes = (
(1495,120,l),
(1622,120,o),
(1725,223,o),
(1725,350,cs),
(1725,477,o),
(1622,580,o),
(1495,580,c)
);
}
);
width = 1945;
},
{
layerId = "FF87E3F2-B049-41CB-BF2F-09DB15105515";
width = 600;
}
);
metricLeft = asterisk;
metricRight = asterisk;
unicode = 8240;
},
{
color = 8;
glyphname = lozenge;
lastChange = "2022-05-30 05:21:14 +0000";
layers = (
{
layerId = m01;
width = 600;
},
{
layerId = "19FA402B-9607-46D9-AAD6-815AECBA5B6B";
shapes = (
{
attr = {
fillColor = (0,255);
lineCapEnd = "2";
strokeHeight = 120;
strokeWidth = 120;
};
closed = 0;
nodes = (
(523,59,l),
(253,519,l)
);
},
{
attr = {
fillColor = (0,255);
lineCapEnd = "2";
lineCapStart = "2";
strokeHeight = 120;
strokeWidth = 120;
};
closed = 0;
nodes = (
(495,14,l),
(919,702,l)
);
},
{
attr = {
fillColor = (0,255);
lineCapEnd = "2";
lineCapStart = "2";
strokeHeight = 120;
strokeWidth = 120;
};
closed = 0;
nodes = (
(556,1386,l),
(132,698,l)
);
},
{
attr = {
fillColor = (0,255);
lineCapEnd = "2";
strokeHeight = 120;
strokeWidth = 120;
};
closed = 0;
nodes = (
(527,1341,l),
(798,881,l)
);
}
);
width = 1051;
},
{
layerId = "FF87E3F2-B049-41CB-BF2F-09DB15105515";
width = 600;
}
);
metricLeft = asterisk;
metricRight = asterisk;
unicode = 9674;
},
{
color = 3;
glyphname = dieresiscomb;
lastChange = "2022-05-30 02:18:52 +0000";
layers = (
{
layerId = m01;
width = 1200;
},
{
anchors = (
{
name = _top;
pos = (0,1400);
},
{
name = top;
pos = (0,1744);
}
);
layerId = "19FA402B-9607-46D9-AAD6-815AECBA5B6B";
shapes = (
{
closed = 1;
nodes = (
(221,1594,o),
(255,1628,o),
(255,1669,cs),
(255,1710,o),
(221,1744,o),
(180,1744,cs),
(139,1744,o),
(105,1710,o),
(105,1669,cs),
(105,1628,o),
(139,1594,o),
(180,1594,cs)
);
},
{
closed = 1;
nodes = (
(-139,1594,o),
(-105,1628,o),
(-105,1669,cs),
(-105,1710,o),
(-139,1744,o),
(-180,1744,cs),
(-221,1744,o),
(-255,1710,o),
(-255,1669,cs),
(-255,1628,o),
(-221,1594,o),
(-180,1594,cs)
);
}
);
width = 0;
},
{
anchors = (
{
name = _top;
pos = (0,600);
},
{
name = top;
}
);
layerId = "FF87E3F2-B049-41CB-BF2F-09DB15105515";
width = 1200;
}
);
unicode = 776;
},
{
color = 3;
glyphname = dotaccentcomb;
lastChange = "2022-05-30 02:18:52 +0000";
layers = (
{
layerId = m01;
width = 1200;
},
{
anchors = (
{
name = _top;
pos = (0,1400);
},
{
name = top;
pos = (0,1744);
}
);
layerId = "19FA402B-9607-46D9-AAD6-815AECBA5B6B";
shapes = (
{
closed = 1;
nodes = (
(41,1594,o),
(75,1628,o),
(75,1669,cs),
(75,1710,o),
(41,1744,o),
(0,1744,cs),
(-41,1744,o),
(-75,1710,o),
(-75,1669,cs),
(-75,1628,o),
(-41,1594,o),
(0,1594,cs)
);
}
);
width = 0;
},
{
layerId = "FF87E3F2-B049-41CB-BF2F-09DB15105515";
width = 1200;
}
);
unicode = 775;
},
{
color = 3;
glyphname = gravecomb;
lastChange = "2022-05-30 02:18:52 +0000";
layers = (
{
layerId = m01;
width = 1200;
},
{
anchors = (
{
name = _top;
pos = (0,1400);
},
{
name = top;
pos = (0,1830);
}
);
layerId = "19FA402B-9607-46D9-AAD6-815AECBA5B6B";
shapes = (
{
attr = {
fillColor = (0,255);
lineCapEnd = "2";
lineCapStart = "2";
strokeHeight = 100;
strokeWidth = 100;
};
closed = 0;
nodes = (
(36,1577,l),
(-324,1830,l)
);
}
);
width = 0;
},
{
layerId = "FF87E3F2-B049-41CB-BF2F-09DB15105515";
width = 1200;
}
);
unicode = 768;
},
{
color = 3;
glyphname = acutecomb;
lastChange = "2022-05-30 02:18:52 +0000";
layers = (
{
layerId = m01;
width = 1200;
},
{
anchors = (
{
name = _top;
pos = (0,1400);
},
{
name = top;
pos = (0,1830);
}
);
layerId = "19FA402B-9607-46D9-AAD6-815AECBA5B6B";
shapes = (
{
attr = {
fillColor = (0,255);
lineCapEnd = "2";
lineCapStart = "2";
strokeHeight = 100;
strokeWidth = 100;
};
closed = 0;
nodes = (
(-36,1577,l),
(324,1830,l)
);
}
);
width = 0;
},
{
layerId = "FF87E3F2-B049-41CB-BF2F-09DB15105515";
width = 1200;
}
);
unicode = 769;
},
{
color = 3;
glyphname = hungarumlautcomb;
lastChange = "2022-05-30 02:18:52 +0000";
layers = (
{
layerId = m01;
width = 1200;
},
{
anchors = (
{
name = _top;
pos = (127,1400);
},
{
name = top;
pos = (127,1849);
}
);
layerId = "19FA402B-9607-46D9-AAD6-815AECBA5B6B";
shapes = (
{
attr = {
fillColor = (0,255);
lineCapEnd = "2";
lineCapStart = "2";
strokeHeight = 100;
strokeWidth = 100;
};
closed = 0;
nodes = (
(-153,1577,l),
(107,1830,l)
);
},
{
attr = {
fillColor = (0,255);
lineCapEnd = "2";
lineCapStart = "2";
strokeHeight = 100;
strokeWidth = 100;
};
closed = 0;
nodes = (
(147,1577,l),
(407,1830,l)
);
}
);
width = 0;
},
{
anchors = (
{
name = _top;
pos = (0,600);
},
{
name = top;
}
);
layerId = "FF87E3F2-B049-41CB-BF2F-09DB15105515";
width = 1200;
}
);
unicode = 779;
},
{
color = 3;
glyphname = circumflexcomb;
lastChange = "2022-05-30 02:18:52 +0000";
layers = (
{
layerId = m01;
width = 1200;
},
{
anchors = (
{
name = _top;
pos = (0,1400);
},
{
name = top;
pos = (0,1850);
}
);
layerId = "19FA402B-9607-46D9-AAD6-815AECBA5B6B";
shapes = (
{
attr = {
fillColor = (0,255);
lineCapEnd = "2";
lineCapStart = "2";
strokeHeight = 100;
strokeWidth = 100;
};
closed = 0;
nodes = (
(-235,1577,l),
(32,1830,l)
);
},
{
attr = {
fillColor = (0,255);
lineCapStart = "2";
strokeHeight = 100;
strokeWidth = 100;
};
closed = 0;
nodes = (
(235,1577,l),
(2,1797,l)
);
}
);
width = 0;
},
{
layerId = "FF87E3F2-B049-41CB-BF2F-09DB15105515";
width = 1200;
}
);
unicode = 770;
},
{
color = 3;
glyphname = caroncomb;
lastChange = "2022-05-30 02:18:52 +0000";
layers = (
{
layerId = m01;
width = 1200;
},
{
anchors = (
{
name = _top;
pos = (0,1400);
},
{
name = top;
pos = (0,1830);
}
);
layerId = "19FA402B-9607-46D9-AAD6-815AECBA5B6B";
shapes = (
{
attr = {
fillColor = (0,255);
lineCapStart = "2";
strokeHeight = 100;
strokeWidth = 100;
};
closed = 0;
nodes = (
(-235,1810,l),
(-2,1590,l)
);
},
{
attr = {
fillColor = (0,255);
lineCapEnd = "2";
lineCapStart = "2";
strokeHeight = 100;
strokeWidth = 100;
};
closed = 0;
nodes = (
(235,1810,l),
(-32,1557,l)
);
}
);
width = 0;
},
{
layerId = "FF87E3F2-B049-41CB-BF2F-09DB15105515";
width = 1200;
}
);
unicode = 780;
},
{
color = 3;
glyphname = brevecomb;
lastChange = "2022-05-30 02:18:52 +0000";
layers = (
{
layerId = m01;
width = 1200;
},
{
anchors = (
{
name = _top;
pos = (0,1400);
},
{
name = top;
pos = (0,1823);
}
);
layerId = "19FA402B-9607-46D9-AAD6-815AECBA5B6B";
shapes = (
{
attr = {
lineCapEnd = "2";
lineCapStart = "2";
strokeHeight = 100;
strokeWidth = 100;
};
closed = 0;
nodes = (
(-245,1818,l),
(-245,1682,o),
(-136,1573,o),
(1,1573,cs),
(136,1573,o),
(245,1682,o),
(245,1818,c)
);
}
);
width = 0;
},
{
anchors = (
{
name = _top;
pos = (0,600);
},
{
name = top;
}
);
layerId = "FF87E3F2-B049-41CB-BF2F-09DB15105515";
width = 1200;
}
);
unicode = 774;
},
{
color = 3;
glyphname = ringcomb;
lastChange = "2022-05-30 02:18:52 +0000";
layers = (
{
layerId = m01;
width = 1200;
},
{
anchors = (
{
name = _top;
pos = (0,1400);
},
{
name = top;
pos = (0,1880);
}
);
layerId = "19FA402B-9607-46D9-AAD6-815AECBA5B6B";
shapes = (
{
attr = {
strokeHeight = 100;
strokePos = 0;
strokeWidth = 100;
};
closed = 1;
nodes = (
(45,1610,o),
(83,1648,o),
(83,1695,cs),
(83,1742,o),
(45,1780,o),
(-2,1780,cs),
(-49,1780,o),
(-87,1742,o),
(-87,1695,cs),
(-87,1648,o),
(-49,1610,o),
(-2,1610,cs)
);
}
);
width = 0;
},
{
layerId = "FF87E3F2-B049-41CB-BF2F-09DB15105515";
width = 1200;
}
);
unicode = 778;
},
{
color = 3;
glyphname = tildecomb;
lastChange = "2022-05-30 02:18:52 +0000";
layers = (
{
layerId = m01;
width = 1200;
},
{
anchors = (
{
name = _top;
pos = (0,1400);
},
{
name = top;
pos = (0,1740);
}
);
layerId = "19FA402B-9607-46D9-AAD6-815AECBA5B6B";
shapes = (
{
attr = {
lineCapEnd = "1";
lineCapStart = "1";
strokeHeight = 100;
strokeWidth = 100;
};
closed = 0;
nodes = (
(-228,1642,l),
(-192,1728,o),
(-99,1760,o),
(0,1676,cs),
(99,1592,o),
(192,1624,o),
(228,1710,c)
);
}
);
width = 0;
},
{
layerId = "FF87E3F2-B049-41CB-BF2F-09DB15105515";
width = 1200;
}
);
unicode = 771;
},
{
color = 3;
glyphname = macroncomb;
lastChange = "2022-05-30 02:18:52 +0000";
layers = (
{
layerId = m01;
width = 1200;
},
{
anchors = (
{
name = _top;
pos = (0,1400);
},
{
name = top;
pos = (0,1722);
}
);
layerId = "19FA402B-9607-46D9-AAD6-815AECBA5B6B";
shapes = (
{
attr = {
fillColor = (0,255);
lineCapEnd = "2";
lineCapStart = "2";
strokeHeight = 100;
strokeWidth = 100;
};
closed = 0;
nodes = (
(268,1672,l),
(-268,1672,l)
);
}
);
width = 0;
},
{
anchors = (
{
name = _top;
pos = (0,600);
},
{
name = top;
}
);
layerId = "FF87E3F2-B049-41CB-BF2F-09DB15105515";
width = 1200;
}
);
unicode = 772;
},
{
color = 3;
glyphname = cedillacomb;
lastChange = "2022-05-30 02:18:52 +0000";
layers = (
{
layerId = m01;
width = 1200;
},
{
anchors = (
{
name = _bottom;
},
{
name = bottom;
pos = (0,-383);
}
);
layerId = "19FA402B-9607-46D9-AAD6-815AECBA5B6B";
shapes = (
{
attr = {
lineCapEnd = 2;
lineCapStart = 2;
strokeHeight = 120;
strokeWidth = 120;
};
closed = 0;
nodes = (
(78,-84,l),
(-19,-374,l)
);
}
);
width = 0;
},
{
anchors = (
{
name = _bottom;
},
{
name = bottom;
}
);
layerId = "FF87E3F2-B049-41CB-BF2F-09DB15105515";
width = 1200;
}
);
unicode = 807;
},
{
color = 3;
glyphname = ogonekcomb;
lastChange = "2022-05-30 02:18:52 +0000";
layers = (
{
layerId = m01;
width = 1200;
},
{
anchors = (
{
name = _ogonek;
pos = (64,0);
}
);
layerId = "19FA402B-9607-46D9-AAD6-815AECBA5B6B";
shapes = (
{
attr = {
lineCapEnd = "2";
lineCapStart = "2";
strokeHeight = 120;
strokeWidth = 120;
};
closed = 0;
nodes = (
(-84,-292,l),
(84,110,l)
);
}
);
width = 0;
},
{
anchors = (
{
name = _ogonek;
}
);
layerId = "FF87E3F2-B049-41CB-BF2F-09DB15105515";
width = 1200;
}
);
unicode = 808;
},
{
color = 3;
glyphname = grave;
lastChange = "2022-05-30 02:18:52 +0000";
layers = (
{
layerId = m01;
width = 600;
},
{
layerId = "19FA402B-9607-46D9-AAD6-815AECBA5B6B";
shapes = (
{
attr = {
fillColor = (0,255);
lineCapEnd = "2";
lineCapStart = "2";
strokeHeight = 120;
strokeWidth = 120;
};
closed = 0;
nodes = (
(404,1027,l),
(84,1380,l)
);
}
);
width = 488;
},
{
layerId = "FF87E3F2-B049-41CB-BF2F-09DB15105515";
width = 600;
}
);
unicode = 96;
},
